# Blender v3.0.0 OBJ File: 'level3.blend'
# www.blender.org
mtllib level3_room.mtl
o Room_Cube
v -8.000000 -0.500000 8.000000
v -7.021477 0.500000 7.021477
v -8.000000 -0.500000 -8.000000
v -7.021477 0.500000 -7.021477
v 8.000000 -0.500000 8.000000
v 7.021477 0.500000 7.021477
v 8.000000 -0.500000 -8.000000
v 7.021477 0.500000 -7.021477
v -8.000000 0.500000 8.000000
v -8.000000 0.500000 -8.000000
v 8.000000 0.500000 -8.000000
v 8.000000 0.500000 8.000000
v -8.000000 0.500000 2.633057
v 8.000000 0.500000 2.633054
v -2.633057 0.500000 8.000000
v -7.021477 0.500000 -2.633054
v 2.633054 0.500000 -7.021477
v 7.021477 0.500000 2.633054
v -2.633054 0.500000 7.021477
v -7.021477 0.500000 2.633054
v -2.633054 0.500000 -7.021477
v 7.021477 0.500000 -2.633054
v 2.633054 0.500000 7.021477
v 2.633051 0.500000 -8.000000
v 2.633051 0.500000 8.000000
v -2.633054 0.500000 -2.633054
v 2.633054 0.500000 -2.633054
v 2.633054 0.500000 2.633054
v -2.633054 0.500000 2.633054
v 8.000000 0.500000 -2.633052
v -8.000000 0.500000 -2.633053
v -2.633056 0.500000 -8.000000
v -8.000000 7.838979 -2.633053
v -8.000000 7.838979 -8.000000
v 2.633051 7.838979 -8.000000
v 8.000000 7.838979 -8.000000
v 8.000000 7.838979 2.633054
v 8.000000 7.838979 8.000000
v -2.633057 7.838979 8.000000
v -8.000000 7.838979 8.000000
v -7.021477 7.838979 -2.633054
v -7.021477 7.838979 -7.021477
v 2.633054 7.838979 -7.021477
v 7.021477 7.838979 -7.021477
v 7.021477 7.838979 2.633054
v 7.021477 7.838979 7.021477
v -2.633054 7.838979 7.021477
v -7.021477 7.838979 7.021477
v -7.021477 7.838979 2.633054
v -2.633054 7.838979 -7.021477
v 7.021477 7.838979 -2.633054
v 2.633054 7.838979 7.021477
v -8.000000 7.838979 2.633057
v 2.633051 7.838979 8.000000
v 8.000000 7.838979 -2.633052
v -2.633056 7.838979 -8.000000
v -8.000000 7.838979 3.611581
v -8.000000 7.838979 -3.611581
v -8.000000 -0.500000 3.611581
v -8.000000 0.500000 3.611581
v -8.000000 -0.500000 -3.611581
v -8.000000 0.500000 -3.611581
vt 0.375000 0.000000
vt 0.625000 0.000000
vt 0.625000 0.057356
vt 0.375000 0.068569
vt 0.375000 0.250000
vt 0.625000 0.250000
vt 0.625000 0.320145
vt 0.625000 0.429855
vt 0.625000 0.500000
vt 0.375000 0.500000
vt 0.625000 0.570145
vt 0.625000 0.679855
vt 0.625000 0.750000
vt 0.375000 0.750000
vt 0.625000 0.820145
vt 0.625000 0.929855
vt 0.625000 1.000000
vt 0.375000 1.000000
vt 0.125000 0.500000
vt 0.125000 0.750000
vt 0.125000 0.681431
vt 0.125000 0.568569
vt 0.804855 0.679855
vt 0.859711 0.679855
vt 0.859711 0.734711
vt 0.804855 0.734711
vt 0.859711 0.570145
vt 0.859711 0.515289
vt 0.859711 0.515289
vt 0.859711 0.570145
vt 0.640289 0.679855
vt 0.640289 0.679855
vt 0.625000 0.679855
vt 0.625000 0.929855
vt 0.625000 1.000000
vt 0.625000 0.070145
vt 0.625000 0.057356
vt 0.625000 0.070145
vt 0.804855 0.515289
vt 0.804855 0.500000
vt 0.804855 0.500000
vt 0.804855 0.515289
vt 0.695145 0.750000
vt 0.695145 0.734711
vt 0.804855 0.750000
vt 0.695145 0.570145
vt 0.695145 0.679855
vt 0.640289 0.570145
vt 0.804855 0.570145
vt 0.640289 0.515289
vt 0.695145 0.515289
vt 0.804855 0.734711
vt 0.804855 0.750000
vt 0.640289 0.734711
vt 0.875000 0.679855
vt 0.875000 0.570145
vt 0.875000 0.679855
vt 0.859711 0.679855
vt 0.625000 0.250000
vt 0.625000 0.320145
vt 0.695145 0.500000
vt 0.859711 0.734711
vt 0.875000 0.692644
vt 0.875000 0.750000
vt 0.875000 0.500000
vt 0.640289 0.515289
vt 0.640289 0.570145
vt 0.625000 0.570145
vt 0.625000 0.500000
vt 0.640289 0.734711
vt 0.695145 0.734711
vt 0.695145 0.750000
vt 0.625000 0.750000
vt 0.695145 0.500000
vt 0.695145 0.515289
vt 0.875000 0.570145
vt 0.875000 0.557356
vt 0.625000 0.429855
vt 0.625000 0.820145
vt 0.625000 0.192644
vt 0.625000 0.192644
vt 0.625000 0.179855
vt 0.375000 0.181431
vt 0.625000 0.000000
vt 0.625000 0.179855
vn -1.0000 0.0000 0.0000
vn 0.0000 0.0000 -1.0000
vn 1.0000 0.0000 0.0000
vn 0.0000 0.0000 1.0000
vn 0.0000 -1.0000 0.0000
vn 0.0000 1.0000 0.0000
usemtl None
s off
f 1/1/1 9/2/1 60/3/1 59/4/1
f 3/5/2 10/6/2 32/7/2 24/8/2 11/9/2 7/10/2
f 7/10/3 11/9/3 30/11/3 14/12/3 12/13/3 5/14/3
f 5/14/4 12/13/4 25/15/4 15/16/4 9/17/4 1/18/4
f 3/19/5 7/10/5 5/14/5 1/20/5 59/21/5 61/22/5
f 29/23/6 20/24/6 2/25/6 19/26/6
f 16/27/3 4/28/3 42/29/3 41/30/3
f 14/12/2 18/31/2 45/32/2 37/33/2
f 9/17/4 15/16/4 39/34/4 40/35/4
f 13/36/1 60/3/1 57/37/1 53/38/1
f 21/39/3 32/40/3 56/41/3 50/42/3
f 25/43/6 23/44/6 19/26/6 15/45/6
f 27/46/6 28/47/6 18/31/6 22/48/6
f 21/39/6 4/28/6 16/27/6 26/49/6
f 26/49/6 29/23/6 28/47/6 27/46/6
f 8/50/6 17/51/6 27/46/6 22/48/6
f 15/45/3 19/26/3 47/52/3 39/53/3
f 18/31/6 28/47/6 23/44/6 6/54/6
f 13/55/6 20/24/6 16/27/6 31/56/6
f 17/51/6 21/39/6 26/49/6 27/46/6
f 20/24/6 29/23/6 26/49/6 16/27/6
f 20/24/2 13/55/2 53/57/2 49/58/2
f 28/47/6 29/23/6 19/26/6 23/44/6
f 30/11/6 22/48/6 18/31/6 14/12/6
f 32/7/2 10/6/2 34/59/2 56/60/2
f 32/40/6 21/39/6 17/51/6 24/61/6
f 48/62/6 49/58/6 57/63/6 40/64/6
f 42/29/6 50/42/6 56/41/6 34/65/6
f 44/66/6 51/67/6 55/68/6 36/69/6
f 46/70/6 52/71/6 54/72/6 38/73/6
f 37/33/6 45/32/6 46/70/6 38/73/6
f 39/53/6 47/52/6 48/62/6 40/64/6
f 35/74/6 43/75/6 44/66/6 36/69/6
f 33/76/6 41/30/6 58/77/6
f 11/9/2 24/8/2 35/78/2 36/69/2
f 30/11/3 11/9/3 36/69/3 55/68/3
f 17/51/4 8/50/4 44/66/4 43/75/4
f 2/25/3 20/24/3 49/58/3 48/62/3
f 24/61/1 17/51/1 43/75/1 35/74/1
f 25/15/4 12/13/4 38/73/4 54/79/4
f 22/48/4 30/11/4 55/68/4 51/67/4
f 18/31/1 6/54/1 46/70/1 45/32/1
f 4/28/4 21/39/4 50/42/4 42/29/4
f 19/26/2 2/25/2 48/62/2 47/52/2
f 8/50/1 22/48/1 51/67/1 44/66/1
f 23/44/1 25/43/1 54/72/1 52/71/1
f 12/13/3 14/12/3 37/33/3 38/73/3
f 31/56/4 16/27/4 41/30/4 33/76/4
f 6/54/2 23/44/2 52/71/2 46/70/2
f 10/6/1 62/80/1 58/81/1 34/59/1
f 57/63/6 49/58/6 53/57/6
f 58/77/6 41/30/6 42/29/6 34/65/6
f 59/4/1 60/3/1 13/36/1 31/82/1 62/80/1 61/83/1
f 57/37/1 60/3/1 9/2/1 40/84/1
f 58/81/1 62/80/1 31/82/1 33/85/1
f 61/83/1 62/80/1 10/6/1 3/5/1
