# Blender v3.0.0 OBJ File: 'level3.blend'
# www.blender.org
mtllib level3_room.mtl
o Room_Cube
v -8.000000 -0.500000 8.000000
v -8.000000 -0.500000 -8.000000
v 8.000000 -0.500000 8.000000
v 8.000000 -0.500000 -8.000000
v -8.000000 0.500000 8.000000
v -8.000000 0.500000 -8.000000
v 8.000000 0.500000 -8.000000
v 8.000000 0.500000 8.000000
v -8.000000 0.500000 2.633057
v 8.000000 0.500000 2.633054
v -2.633057 0.500000 8.000000
v 2.633051 0.500000 -8.000000
v 2.633051 0.500000 8.000000
v 8.000000 0.500000 -2.633052
v -8.000000 0.500000 -2.633053
v -2.633056 0.500000 -8.000000
v -8.000000 7.838979 -2.633053
v -8.000000 7.838979 -8.000000
v 2.633051 7.838979 -8.000000
v 8.000000 7.838979 -8.000000
v 8.000000 7.838979 2.633054
v 8.000000 7.838979 8.000000
v -2.633057 7.838979 8.000000
v -8.000000 7.838979 8.000000
v -7.021477 7.838979 -2.633054
v -7.021477 7.838979 -7.021477
v 2.633054 7.838979 -7.021477
v 7.021477 7.838979 -7.021477
v 7.021477 7.838979 2.633054
v 7.021477 7.838979 7.021477
v -2.633054 7.838979 7.021477
v -7.021477 7.838979 7.021477
v -7.021477 7.838979 2.633054
v -2.633054 7.838979 -7.021477
v 7.021477 7.838979 -2.633054
v 2.633054 7.838979 7.021477
v -8.000000 7.838979 2.633057
v 2.633051 7.838979 8.000000
v 8.000000 7.838979 -2.633052
v -2.633056 7.838979 -8.000000
v -7.021477 0.500000 -2.633054
v -7.021477 0.500000 -7.021477
v 2.633054 0.500000 -7.021477
v 7.021477 0.500000 -7.021477
v 7.021477 0.500000 2.633054
v 7.021477 0.500000 7.021477
v -2.633054 0.500000 7.021477
v -7.021477 0.500000 7.021477
v -7.021477 0.500000 2.633054
v -2.633054 0.500000 -7.021477
v 7.021477 0.500000 -2.633054
v 2.633054 0.500000 7.021477
v -6.762685 0.315508 -2.536006
v -6.762685 0.315508 -6.762685
v 2.536007 0.315508 -6.762685
v 6.762685 0.315508 -6.762685
v 6.762685 0.315508 2.536007
v 6.762685 0.315508 6.762685
v -2.536007 0.315508 6.762685
v -6.762685 0.315508 6.762685
v -6.762685 0.315508 2.536007
v -2.536007 0.315508 -6.762685
v 6.762685 0.315508 -2.536006
v 2.536007 0.315508 6.762685
v -6.505695 0.315508 -6.505695
v 6.505695 0.315508 6.505695
v -6.505695 0.315508 2.730757
v 6.505695 0.315508 -2.730757
v 2.730757 0.315508 6.505695
v -6.321204 0.500000 6.321204
v -6.505695 0.315508 6.505695
v -6.321204 0.500000 -6.321204
v 6.321204 0.500000 6.321204
v 6.321204 0.500000 -6.321204
v 6.505695 0.315508 -6.505695
v -6.505695 0.315508 -2.730757
v -6.321203 0.500000 -2.730757
v 2.730757 0.315508 -6.505695
v 2.730757 0.500000 -6.321203
v 6.505695 0.315508 2.730757
v 6.321203 0.500000 2.730757
v -2.730757 0.315508 6.505695
v -2.730757 0.500000 6.321203
v -6.321203 0.500000 2.730757
v -2.730757 0.315508 -6.505695
v -2.730757 0.500000 -6.321203
v 6.321203 0.500000 -2.730757
v 2.730757 0.500000 6.321203
v 2.633051 8.838980 -8.000000
v 8.000000 8.838980 -8.000000
v 8.000000 8.838980 2.633054
v 8.000000 8.838980 8.000000
v -2.633057 8.838980 8.000000
v -8.000000 8.838980 8.000000
v -7.021477 8.838980 -2.633054
v -7.021477 8.838980 -7.021477
v 2.633054 8.838980 -7.021477
v 7.021477 8.838980 -7.021477
v 7.021477 8.838980 2.633054
v 7.021477 8.838980 7.021477
v -2.633054 8.838980 7.021477
v -7.021477 8.838980 7.021477
v -8.000000 8.838980 -8.000000
v -7.021477 8.838980 2.633054
v -2.633054 8.838980 -7.021477
v 7.021477 8.838980 -2.633054
v 2.633054 8.838980 7.021477
v -8.000000 8.838980 2.633057
v 2.633051 8.838980 8.000000
v 8.000000 8.838980 -2.633052
v -8.000000 8.838980 -2.633053
v -2.633056 8.838980 -8.000000
v -7.021477 8.838980 -2.633054
v -7.021477 8.838980 -7.021477
v 2.633054 8.838980 -7.021477
v 7.021477 8.838980 -7.021477
v 7.021477 8.838980 2.633054
v 7.021477 8.838980 7.021477
v -2.633054 8.838980 7.021477
v -7.021477 8.838980 7.021477
v -7.021477 8.838980 2.633054
v -2.633054 8.838980 -7.021477
v 7.021477 8.838980 -2.633054
v 2.633054 8.838980 7.021477
vt 0.625000 0.070145
vt 0.625000 0.000000
vt 0.625000 0.000000
vt 0.625000 0.070145
vt 0.375000 0.250000
vt 0.625000 0.250000
vt 0.625000 0.320145
vt 0.625000 0.429855
vt 0.625000 0.500000
vt 0.375000 0.500000
vt 0.625000 0.570145
vt 0.625000 0.679855
vt 0.625000 0.750000
vt 0.375000 0.750000
vt 0.625000 0.820145
vt 0.625000 0.929855
vt 0.625000 1.000000
vt 0.375000 1.000000
vt 0.125000 0.500000
vt 0.125000 0.750000
vt 0.859711 0.570145
vt 0.859711 0.515289
vt 0.859711 0.515289
vt 0.859711 0.570145
vt 0.640289 0.679855
vt 0.640289 0.679855
vt 0.625000 0.679855
vt 0.625000 0.929855
vt 0.625000 1.000000
vt 0.625000 0.179855
vt 0.625000 0.179855
vt 0.625000 0.250000
vt 0.804855 0.515289
vt 0.804855 0.500000
vt 0.804855 0.500000
vt 0.804855 0.515289
vt 0.695145 0.750000
vt 0.695145 0.734711
vt 0.804855 0.734711
vt 0.804855 0.750000
vt 0.804855 0.734711
vt 0.804855 0.750000
vt 0.875000 0.679855
vt 0.859711 0.679855
vt 0.875000 0.570145
vt 0.875000 0.679855
vt 0.859711 0.679855
vt 0.640289 0.570145
vt 0.625000 0.320145
vt 0.695145 0.515289
vt 0.695145 0.500000
vt 0.625000 0.570145
vt 0.625000 0.500000
vt 0.625000 0.500000
vt 0.625000 0.570145
vt 0.625000 0.429855
vt 0.640289 0.515289
vt 0.640289 0.515289
vt 0.695145 0.515289
vt 0.859711 0.734711
vt 0.859711 0.734711
vt 0.695145 0.500000
vt 0.625000 0.750000
vt 0.625000 0.820145
vt 0.640289 0.570145
vt 0.640289 0.734711
vt 0.640289 0.734711
vt 0.695145 0.750000
vt 0.695145 0.734711
vt 0.875000 0.570145
vt 0.375000 0.000000
vt 0.695145 0.734711
vt 0.804855 0.734711
vt 0.640289 0.570145
vt 0.640289 0.679855
vt 0.804855 0.515289
vt 0.695145 0.515289
vt 0.859711 0.679855
vt 0.859711 0.570145
vt 0.799823 0.720830
vt 0.700177 0.720830
vt 0.653027 0.721973
vt 0.654170 0.674823
vt 0.654170 0.575177
vt 0.653027 0.528027
vt 0.700177 0.529170
vt 0.799823 0.529170
vt 0.846973 0.528027
vt 0.845830 0.575177
vt 0.845830 0.674823
vt 0.846973 0.721973
vt 0.640289 0.734711
vt 0.859711 0.734711
vt 0.848496 0.574359
vt 0.849525 0.525474
vt 0.859711 0.515289
vt 0.699359 0.526504
vt 0.650474 0.525474
vt 0.640289 0.515289
vt 0.651504 0.675641
vt 0.650474 0.724526
vt 0.800641 0.723496
vt 0.849525 0.724525
vt 0.848496 0.675641
vt 0.800641 0.526504
vt 0.651504 0.574359
vt 0.699359 0.723496
vt 0.859711 0.570145
vt 0.859711 0.515289
vt 0.875000 0.500000
vt 0.875000 0.570145
vt 0.804855 0.515289
vt 0.804855 0.500000
vt 0.640289 0.515289
vt 0.640289 0.570145
vt 0.640289 0.734711
vt 0.695145 0.734711
vt 0.695145 0.750000
vt 0.625000 0.750000
vt 0.625000 0.679855
vt 0.640289 0.679855
vt 0.804855 0.750000
vt 0.804855 0.734711
vt 0.859711 0.734711
vt 0.875000 0.750000
vt 0.695145 0.500000
vt 0.695145 0.515289
vt 0.859711 0.679855
vt 0.875000 0.679855
vt 0.625000 0.429855
vt 0.625000 0.000000
vt 0.625000 0.070145
vt 0.625000 0.250000
vt 0.625000 0.320145
vt 0.625000 0.929855
vt 0.625000 1.000000
vt 0.625000 0.179855
vt 0.625000 0.820145
vt 0.859711 0.570145
vt 0.859711 0.679855
vt 0.859711 0.734711
vt 0.804855 0.734711
vt 0.695145 0.734711
vt 0.640289 0.734711
vt 0.640289 0.679855
vt 0.640289 0.570145
vt 0.640289 0.515289
vt 0.695145 0.515289
vt 0.804855 0.515289
vt 0.859711 0.515289
vt 0.000000 0.000000
vt 0.000000 0.000000
vt 0.000000 0.000000
vt 0.000000 0.000000
vt 0.000000 0.000000
vt 0.000000 0.000000
vt 0.000000 0.000000
vt 0.000000 0.000000
vt 0.000000 0.000000
vt 0.000000 0.000000
vt 0.000000 0.000000
vt 0.000000 0.000000
vn -1.0000 0.0000 0.0000
vn 0.0000 0.0000 -1.0000
vn 1.0000 0.0000 0.0000
vn 0.0000 0.0000 1.0000
vn 0.0000 -1.0000 0.0000
vn 0.0000 1.0000 0.0000
vn 0.0000 0.8143 -0.5805
vn -0.5805 0.8143 0.0000
vn 0.0000 0.8143 0.5805
vn 0.5805 0.8143 0.0000
vn -0.7071 0.7071 0.0000
vn 0.0000 0.7071 -0.7071
vn 0.7071 0.7071 -0.0000
vn 0.0000 0.7071 0.7071
usemtl None
s off
f 9/1/1 5/2/1 24/3/1 37/4/1
f 2/5/2 6/6/2 16/7/2 12/8/2 7/9/2 4/10/2
f 4/10/3 7/9/3 14/11/3 10/12/3 8/13/3 3/14/3
f 3/14/4 8/13/4 13/15/4 11/16/4 5/17/4 1/18/4
f 2/19/5 4/10/5 3/14/5 1/20/5
f 41/21/3 42/22/3 26/23/3 25/24/3
f 10/12/2 45/25/2 29/26/2 21/27/2
f 5/17/4 11/16/4 23/28/4 24/29/4
f 6/6/1 15/30/1 17/31/1 18/32/1
f 50/33/3 16/34/3 40/35/3 34/36/3
f 13/37/6 52/38/6 47/39/6 11/40/6
f 11/40/3 47/39/3 31/41/3 23/42/3
f 9/43/6 49/44/6 41/21/6 15/45/6
f 49/44/2 9/43/2 37/46/2 33/47/2
f 14/11/6 51/48/6 45/25/6 10/12/6
f 16/7/2 6/6/2 18/32/2 40/49/2
f 16/34/6 50/33/6 43/50/6 12/51/6
f 39/52/3 20/53/3 90/54/3 110/55/3
f 7/9/2 12/8/2 19/56/2 20/53/2
f 14/11/3 7/9/3 20/53/3 39/52/3
f 43/50/4 44/57/4 28/58/4 27/59/4
f 48/60/3 49/44/3 33/47/3 32/61/3
f 12/51/1 43/50/1 27/59/1 19/62/1
f 13/15/4 8/13/4 22/63/4 38/64/4
f 51/48/4 14/11/4 39/52/4 35/65/4
f 45/25/1 46/66/1 30/67/1 29/26/1
f 42/22/4 50/33/4 34/36/4 26/23/4
f 47/39/2 48/60/2 32/61/2 31/41/2
f 44/57/1 51/48/1 35/65/1 28/58/1
f 52/38/1 13/37/1 38/68/1 36/69/1
f 8/13/3 10/12/3 21/27/3 22/63/3
f 15/45/4 41/21/4 25/24/4 17/70/4
f 46/66/2 52/38/2 36/69/2 30/67/2
f 9/1/1 15/30/1 6/6/1 2/5/1 1/71/1 5/2/1
f 47/39/7 52/38/7 64/72/7 59/73/7
f 45/25/8 51/48/8 63/74/8 57/75/8
f 43/50/9 50/33/9 62/76/9 55/77/9
f 41/21/10 49/44/10 61/78/10 53/79/10
f 83/80/6 88/81/6 73/82/6 81/83/6 87/84/6 74/85/6 79/86/6 86/87/6 72/88/6 77/89/6 84/90/6 70/91/6
f 52/38/7 46/66/7 58/92/7 64/72/7
f 48/60/7 47/39/7 59/73/7 60/93/7
f 76/94/6 65/95/6 54/96/6 53/79/6
f 78/97/6 75/98/6 56/99/6 55/77/6
f 80/100/6 66/101/6 58/92/6 57/75/6
f 82/102/6 71/103/6 60/93/6 59/73/6
f 67/104/6 76/94/6 53/79/6 61/78/6
f 85/105/6 78/97/6 55/77/6 62/76/6
f 68/106/6 80/100/6 57/75/6 63/74/6
f 69/107/6 82/102/6 59/73/6 64/72/6
f 71/103/6 67/104/6 61/78/6 60/93/6
f 65/95/6 85/105/6 62/76/6 54/96/6
f 75/98/6 68/106/6 63/74/6 56/99/6
f 66/101/6 69/107/6 64/72/6 58/92/6
f 42/22/10 41/21/10 53/79/10 54/96/10
f 49/44/10 48/60/10 60/93/10 61/78/10
f 44/57/9 43/50/9 55/77/9 56/99/9
f 50/33/9 42/22/9 54/96/9 62/76/9
f 46/66/8 45/25/8 57/75/8 58/92/8
f 51/48/8 44/57/8 56/99/8 63/74/8
f 77/89/11 72/88/11 65/95/11 76/94/11
f 79/86/12 74/85/12 75/98/12 78/97/12
f 81/83/13 73/82/13 66/101/13 80/100/13
f 83/80/14 70/91/14 71/103/14 82/102/14
f 84/90/11 77/89/11 76/94/11 67/104/11
f 86/87/12 79/86/12 78/97/12 85/105/12
f 87/84/13 81/83/13 80/100/13 68/106/13
f 88/81/14 83/80/14 82/102/14 69/107/14
f 70/91/11 84/90/11 67/104/11 71/103/11
f 72/88/12 86/87/12 85/105/12 65/95/12
f 74/85/13 87/84/13 68/106/13 75/98/13
f 73/82/14 88/81/14 69/107/14 66/101/14
f 95/108/6 96/109/6 103/110/6 111/111/6
f 96/109/6 105/112/6 112/113/6 103/110/6
f 98/114/6 106/115/6 110/55/6 90/54/6
f 100/116/6 107/117/6 109/118/6 92/119/6
f 91/120/6 99/121/6 100/116/6 92/119/6
f 93/122/6 101/123/6 102/124/6 94/125/6
f 89/126/6 97/127/6 98/114/6 90/54/6
f 104/128/6 108/129/6 94/125/6 102/124/6
f 20/53/2 19/56/2 89/130/2 90/54/2
f 22/63/3 21/27/3 91/120/3 92/119/3
f 37/4/1 24/3/1 94/131/1 108/132/1
f 40/49/2 18/32/2 103/133/2 112/134/2
f 24/29/4 23/28/4 93/135/4 94/136/4
f 18/32/1 17/31/1 111/137/1 103/133/1
f 38/64/4 22/63/4 92/119/4 109/138/4
f 113/139/6 121/140/6 120/141/6 119/142/6 124/143/6 118/144/6 117/145/6 123/146/6 116/147/6 115/148/6 122/149/6 114/150/6
f 25/151/5 26/152/5 34/153/5 27/154/5 28/155/5 35/156/5 29/157/5 30/158/5 36/159/5 31/160/5 32/161/5 33/162/5
f 38/68/5 23/42/5 31/41/5 36/159/5
f 21/27/5 29/157/5 35/65/5 39/52/5
f 19/62/5 27/154/5 34/36/5 40/35/5
f 37/46/5 17/70/5 25/24/5 33/162/5
f 108/129/6 104/128/6 95/108/6 111/111/6
f 109/118/6 107/117/6 101/123/6 93/122/6
f 91/120/6 110/55/6 106/115/6 99/121/6
f 89/126/6 112/113/6 105/112/6 97/127/6
f 19/62/2 40/35/2 112/134/2 89/126/2
f 110/55/3 91/120/3 21/27/3 39/52/3
f 23/42/4 38/68/4 109/138/4 93/122/4
f 111/111/1 17/70/1 37/4/1 108/129/1
l 36 107
l 31 101
l 27 97
l 34 105
l 29 99
l 35 123
