# Blender v3.0.0 OBJ File: 'level3.blend'
# www.blender.org
mtllib level3_hallway.mtl
o Hallway_Cube.001
v -8.000000 0.500000 2.633057
v -8.000000 0.500000 -2.633053
v -8.000000 7.838979 -2.633053
v -8.000000 7.838979 2.633057
v -8.000000 7.838979 3.611581
v -8.000000 7.838979 -3.611581
v -8.000000 -0.500000 3.611581
v -8.000000 0.500000 3.611581
v -8.000000 -0.500000 -3.611581
v -8.000000 0.500000 -3.611581
v -16.000000 0.500000 2.633057
v -16.000000 7.838979 2.633057
v -16.000000 0.500000 3.611581
v -16.000000 0.500000 -2.633053
v -16.000000 7.838979 3.611581
v -16.000000 7.838979 -2.633053
v -16.000000 7.838979 -3.611581
v -16.000000 -0.500000 -3.611581
v -16.000000 -0.500000 3.611581
v -16.000000 0.500000 -3.611581
vt 0.625000 0.070145
vt 0.625000 0.070145
vt 0.625000 0.057356
vt 0.625000 0.057356
vt 0.375000 0.068569
vt 0.375000 0.181431
vt 0.625000 0.192644
vt 0.625000 0.179855
vt 0.625000 0.192644
vt 0.625000 0.179855
vt 0.625000 0.070145
vt 0.625000 0.057356
vt 0.625000 0.057356
vt 0.625000 0.070145
vt 0.375000 0.068569
vt 0.625000 0.179855
vt 0.625000 0.192644
vt 0.375000 0.181431
vt 0.625000 0.192644
vt 0.625000 0.179855
vn 1.0000 0.0000 0.0000
vn -1.0000 0.0000 0.0000
vn 0.0000 0.0000 -1.0000
vn 0.0000 0.0000 1.0000
vn 0.0000 1.0000 0.0000
vn 0.0000 -1.0000 0.0000
usemtl None
s off
f 1/1/1 4/2/1 5/3/1 8/4/1
f 7/5/1 9/6/1 10/7/1 2/8/1 1/1/1 8/4/1
f 6/9/1 3/10/1 2/8/1 10/7/1
f 11/11/2 13/12/2 15/13/2 12/14/2
f 19/15/2 13/12/2 11/11/2 14/16/2 20/17/2 18/18/2
f 17/19/2 20/17/2 14/16/2 16/20/2
f 4/2/3 1/1/3 11/11/3 12/14/3
f 7/5/4 8/4/4 13/12/4 19/15/4
f 2/8/4 3/10/4 16/20/4 14/16/4
f 10/7/3 9/6/3 18/18/3 20/17/3
f 8/4/4 5/3/4 15/13/4 13/12/4
f 3/10/5 6/9/5 17/19/5 16/20/5
f 1/1/5 2/8/5 14/16/5 11/11/5
f 9/6/6 7/5/6 19/15/6 18/18/6
f 5/3/5 4/2/5 12/14/5 15/13/5
f 6/9/3 10/7/3 20/17/3 17/19/3
