# Blender v3.0.0 OBJ File: 'level3.blend'
# www.blender.org
mtllib level3_room_long.mtl
o Room_Long_Cube.002
v -32.000000 -0.500000 8.000000
v -16.000000 -0.500000 8.000000
v -27.656610 0.315508 1.578012
v -16.000000 -0.500000 -8.000000
v -27.656610 0.315508 -1.578010
v -32.000000 0.500000 -8.000000
v -16.000000 0.500000 -8.000000
v -16.000000 0.500000 8.000000
v -16.000000 0.500000 2.633054
v -26.633057 0.500000 8.000000
v -26.636950 -0.500000 8.000000
v -21.366949 0.500000 -8.000000
v -21.366949 0.500000 8.000000
v -16.000000 0.500000 -2.633052
v -26.633057 0.500000 -8.000000
v -32.000000 7.838979 -8.000000
v -21.366949 7.838979 -8.000000
v -16.000000 7.838979 -8.000000
v -16.000000 7.838979 2.633054
v -16.000000 7.838979 8.000000
v -26.633057 7.838979 8.000000
v -32.000000 7.838979 8.000000
v -26.642200 -0.500000 -8.000000
v -21.366947 7.838979 -7.021477
v -16.978523 7.838979 -7.021477
v -16.978523 7.838979 2.633054
v -16.978523 7.838979 7.021477
v -26.633055 7.838979 7.021477
v -26.633055 7.838979 -7.021477
v -16.978523 7.838979 -2.633054
v -21.366947 7.838979 7.021477
v -21.366949 7.838979 8.000000
v -16.000000 7.838979 -2.633052
v -26.633057 7.838979 -8.000000
v -32.000000 7.838979 -7.021474
v -32.000000 7.838979 7.023715
v -21.372009 -0.500000 8.000000
v -21.366901 -0.500000 -8.000000
v -42.633057 -0.500000 -7.999996
v -30.976444 0.315508 -1.578009
v -42.633057 -0.500000 8.000004
v -30.976444 0.315508 1.578014
v -42.633057 0.500000 8.000004
v -42.633057 0.500000 -7.999996
v -42.633057 0.500000 -2.633050
v -31.996105 -0.500000 -7.999996
v -37.266106 0.500000 8.000004
v -37.266106 0.500000 -7.999996
v -42.633057 0.500000 2.633056
v -32.000000 0.500000 8.000002
v -37.266106 7.838979 8.000004
v -42.633057 7.838979 8.000004
v -42.633057 7.838979 -2.633050
v -42.633057 7.838979 -7.999996
v -37.266109 7.838979 7.021481
v -41.654533 7.838979 7.021481
v -41.654533 7.838979 -2.633050
v -41.654533 7.838979 -7.021474
v -41.654533 7.838979 2.633057
v -37.266109 7.838979 -7.021474
v -37.266106 7.838979 -7.999996
v -42.633057 7.838979 2.633056
v -37.261047 -0.500000 -7.999996
v -37.266151 -0.500000 8.000004
v -21.366949 8.838980 -8.000000
v -16.000000 8.838980 -8.000000
v -16.000000 8.838980 2.633054
v -16.000000 8.838980 8.000000
v -26.633057 8.838980 8.000000
v -32.000000 8.838980 8.000000
v -21.366949 8.838980 8.000000
v -16.000000 8.838980 -2.633052
v -32.000000 8.838980 -8.000000
v -26.633057 8.838980 -8.000000
v -37.266106 8.838980 8.000004
v -42.633057 8.838980 8.000004
v -42.633057 8.838980 -2.633050
v -42.633057 8.838980 -7.999996
v -37.266106 8.838980 -7.999996
v -42.633057 8.838980 2.633056
v -21.366947 0.500000 -7.021477
v -16.978523 0.500000 -7.021477
v -16.978523 0.500000 2.633054
v -16.978523 0.500000 7.021477
v -26.633055 0.500000 -7.021477
v -16.978523 0.500000 -2.633054
v -21.366947 0.500000 7.021477
v -26.633055 0.500000 7.021477
v -32.000000 0.500000 7.023794
v -37.266109 0.500000 7.021481
v -41.654533 0.500000 7.021481
v -41.654533 0.500000 -2.633050
v -41.654533 0.500000 -7.021474
v -41.654533 0.500000 2.633057
v -37.266109 0.500000 -7.021474
v -32.000000 0.500000 -7.021474
v -21.366947 0.315508 -6.372249
v -17.627750 0.315508 -6.372249
v -17.627750 0.315508 2.633054
v -17.627750 0.315508 6.372249
v -26.633055 0.315508 -6.372249
v -17.627750 0.315508 -2.633054
v -21.366947 0.315508 6.372249
v -26.633194 0.315508 6.372249
v -31.999998 0.315508 6.374566
v -37.265968 0.315508 6.372252
v -41.005302 0.315508 6.372252
v -41.005302 0.315508 -2.633050
v -41.005302 0.315508 -6.372246
v -41.005302 0.315508 2.633057
v -37.266109 0.315508 -6.372246
v -32.000000 0.315508 -6.372246
v -30.365705 3.025873 -0.967270
v -30.976444 2.415133 -1.578009
v -30.365705 3.025873 0.967274
v -30.976444 2.415133 1.578014
v -28.267349 3.025873 0.967273
v -27.656610 2.415133 1.578012
v -28.267349 3.025873 -0.967271
v -27.656610 2.415133 -1.578010
vt 0.375000 0.250000
vt 0.625000 0.250000
vt 0.625000 0.320029
vt 0.375000 0.333716
vt 0.375000 0.500000
vt 0.625000 0.500000
vt 0.625000 0.570145
vt 0.625000 0.679855
vt 0.625000 0.750000
vt 0.375000 0.750000
vt 0.625000 0.820145
vt 0.375000 0.833938
vt 0.125000 0.500000
vt 0.208716 0.500000
vt 0.208798 0.750000
vt 0.125000 0.750000
vt 0.625000 0.237169
vt 0.804855 0.515289
vt 0.804855 0.515289
vt 0.625000 0.237211
vt 0.640289 0.679855
vt 0.640289 0.679855
vt 0.625000 0.679855
vt 0.625000 1.000000
vt 0.625000 0.929901
vt 0.625000 0.929855
vt 0.625000 1.000000
vt 0.625000 0.250000
vt 0.804855 0.500000
vt 0.804855 0.500000
vt 0.695145 0.750000
vt 0.695145 0.734711
vt 0.804855 0.734711
vt 0.804855 0.750000
vt 0.804855 0.734711
vt 0.804855 0.750000
vt 0.375000 0.916202
vt 0.375000 1.000000
vt 0.640289 0.570145
vt 0.625000 0.320145
vt 0.695145 0.515289
vt 0.695145 0.500000
vt 0.625000 0.500000
vt 0.625000 0.429855
vt 0.625000 0.429855
vt 0.625000 0.500000
vt 0.625000 0.250000
vt 0.625000 0.320145
vt 0.695145 0.500000
vt 0.695145 0.515289
vt 0.625000 0.429855
vt 0.625000 0.429855
vt 0.625000 0.500000
vt 0.625000 0.570145
vt 0.640289 0.515289
vt 0.640289 0.515289
vt 0.625000 0.750000
vt 0.625000 0.820145
vt 0.640289 0.570145
vt 0.640289 0.734711
vt 0.640289 0.734711
vt 0.625000 0.012759
vt 0.625000 0.012760
vt 0.695145 0.750000
vt 0.695145 0.734711
vt 0.625000 0.320145
vt 0.375000 0.416142
vt 0.625000 0.570145
vt 0.625000 0.570145
vt 0.625000 0.000000
vt 0.625000 0.000000
vt 0.291142 0.500000
vt 0.291062 0.750000
vt 0.375000 0.500000
vt 0.625000 0.500000
vt 0.625000 0.570145
vt 0.625000 0.679855
vt 0.625000 0.750000
vt 0.375000 0.750000
vt 0.625000 0.820145
vt 0.375000 0.833938
vt 0.640289 0.679855
vt 0.640289 0.679855
vt 0.625000 0.679855
vt 0.695145 0.750000
vt 0.695145 0.734711
vt 0.804855 0.734711
vt 0.804855 0.750000
vt 0.666460 0.642637
vt 0.664068 0.576736
vt 0.668135 0.647318
vt 0.668182 0.588229
vt 0.640289 0.570145
vt 0.804855 0.500000
vt 0.804855 0.515289
vt 0.695145 0.515289
vt 0.695145 0.500000
vt 0.625000 0.500000
vt 0.625000 0.570145
vt 0.625000 0.929855
vt 0.625000 1.000000
vt 0.625000 0.429855
vt 0.640289 0.515289
vt 0.640289 0.515289
vt 0.695145 0.515289
vt 0.695145 0.500000
vt 0.625000 0.750000
vt 0.625000 0.820145
vt 0.640289 0.570145
vt 0.640289 0.734711
vt 0.640289 0.734711
vt 0.695145 0.750000
vt 0.695145 0.734711
vt 0.375000 0.333716
vt 0.625000 0.320145
vt 0.375000 0.416142
vt 0.208798 0.750000
vt 0.208716 0.500000
vt 0.291142 0.500000
vt 0.291062 0.750000
vt 0.625000 0.929855
vt 0.375000 0.916202
vt 0.625000 0.750000
vt 0.625000 0.679855
vt 0.695145 0.500000
vt 0.875000 0.750000
vt 0.804855 0.750000
vt 0.695145 0.750000
vt 0.625000 0.750000
vt 0.625000 0.679855
vt 0.695145 0.500000
vt 0.804855 0.500000
vt 0.875000 0.500000
vt 0.695145 0.750000
vt 0.625000 0.429855
vt 0.625000 0.820145
vt 0.625000 0.820145
vt 0.693448 0.521861
vt 0.646686 0.522669
vt 0.645834 0.675330
vt 0.646967 0.726291
vt 0.788970 0.531035
vt 0.645691 0.571998
vt 0.694011 0.725436
vt 0.781043 0.689693
vt 0.642195 0.120909
vt 0.685162 0.498710
vt 0.646776 0.522922
vt 0.645024 0.673066
vt 0.646438 0.724811
vt 0.644742 0.569348
vt 0.692978 0.722549
vt 0.788695 0.711074
vt 0.662086 0.533116
vt 0.669347 0.688787
vt 0.669347 0.688787
vt 0.662086 0.533116
vt 0.666756 0.681549
vt 0.666756 0.681549
vt 0.668655 0.551466
vt 0.668655 0.551466
vn -0.0000 -0.0000 -1.0000
vn 1.0000 -0.0000 0.0000
vn 0.0000 0.0000 1.0000
vn 0.0000 -1.0000 0.0000
vn -1.0000 0.0000 0.0000
vn 0.0000 1.0000 0.0000
vn -0.0004 -0.0000 -1.0000
vn 0.0000 0.9619 0.2733
vn -0.2733 0.9619 0.0000
vn 0.0000 0.9619 -0.2733
vn -0.0001 0.9619 -0.2733
vn 0.2733 0.9619 0.0000
vn 0.0001 0.9619 -0.2733
vn 0.0000 0.7071 0.7071
vn -0.7071 0.7071 0.0000
vn -0.0000 0.7071 -0.7071
vn 0.7071 0.7071 0.0000
usemtl None
s off
f 46/1/1 6/2/1 15/3/1 23/4/1
f 4/5/2 7/6/2 14/7/2 9/8/2 8/9/2 2/10/2
f 2/10/3 8/9/3 13/11/3 37/12/3
f 46/13/4 23/14/4 11/15/4 1/16/4
f 96/17/3 85/18/3 29/19/3 35/20/3
f 9/8/1 83/21/1 26/22/1 19/23/1
f 50/24/3 10/25/3 21/26/3 22/27/3
f 6/2/5 96/17/5 35/20/5 16/28/5
f 85/18/2 15/29/2 34/30/2 29/19/2
f 13/31/6 87/32/6 88/33/6 10/34/6
f 10/34/2 88/33/2 28/35/2 21/36/2
f 11/37/3 10/25/3 50/24/3 1/38/3
f 14/7/6 86/39/6 83/21/6 9/8/6
f 15/3/1 6/2/1 16/28/1 34/40/1
f 15/29/6 85/18/6 81/41/6 12/42/6
f 52/43/3 51/44/3 75/45/3 76/46/3
f 34/40/1 16/28/1 73/47/1 74/48/1
f 29/19/4 34/30/4 17/49/4 24/50/4
f 7/6/1 12/51/1 17/52/1 18/53/1
f 14/7/2 7/6/2 18/53/2 33/54/2
f 81/41/3 82/55/3 25/56/3 24/50/3
f 12/42/5 81/41/5 24/50/5 17/49/5
f 13/11/3 8/9/3 20/57/3 32/58/3
f 86/39/3 14/7/3 33/54/3 30/59/3
f 83/21/5 84/60/5 27/61/5 26/22/5
f 88/33/7 89/62/7 36/63/7 28/35/7
f 82/55/5 86/39/5 30/59/5 25/56/5
f 87/32/5 13/31/5 32/64/5 31/65/5
f 8/9/2 9/8/2 19/23/2 20/57/2
f 84/60/1 87/32/1 31/65/1 27/61/1
f 23/4/1 15/66/1 12/51/1 38/67/1
f 62/68/5 52/43/5 76/46/5 80/69/5
f 36/63/5 89/62/5 50/70/5 22/71/5
f 11/15/4 23/14/4 38/72/4 37/73/4
f 37/12/3 13/11/3 10/25/3 11/37/3
f 38/67/1 12/51/1 7/6/1 4/5/1
f 37/73/4 38/72/4 4/5/4 2/10/4
f 41/74/5 43/75/5 49/76/5 45/77/5 44/78/5 39/79/5
f 39/79/1 44/78/1 48/80/1 63/81/1
f 45/77/3 92/82/3 57/83/3 53/84/3
f 48/85/6 95/86/6 96/87/6 6/88/6
f 113/89/6 115/90/6 117/91/6 119/92/6
f 49/76/6 94/93/6 92/82/6 45/77/6
f 50/94/6 89/95/6 90/96/6 47/97/6
f 33/54/2 18/53/2 66/98/2 72/99/2
f 22/27/3 21/26/3 69/100/3 70/101/3
f 43/75/3 47/102/3 51/44/3 52/43/3
f 49/76/5 43/75/5 52/43/5 62/68/5
f 90/96/1 91/103/1 56/104/1 55/105/1
f 47/97/2 90/96/2 55/105/2 51/106/2
f 48/80/1 44/78/1 54/107/1 61/108/1
f 94/93/1 49/76/1 62/68/1 59/109/1
f 92/82/2 93/110/2 58/111/2 57/83/2
f 91/103/2 94/93/2 59/109/2 56/104/2
f 95/86/2 48/85/2 61/112/2 60/113/2
f 44/78/5 45/77/5 53/84/5 54/107/5
f 93/110/3 95/86/3 60/113/3 58/111/3
f 1/114/3 50/115/3 47/102/3 64/116/3
f 46/117/4 1/118/4 64/119/4 63/120/4
f 63/81/1 48/80/1 6/121/1 46/122/1
f 64/116/3 47/102/3 43/75/3 41/74/3
f 63/120/4 64/119/4 41/74/4 39/79/4
f 78/123/6 77/124/6 80/69/6 76/46/6 75/125/6 70/126/6 69/127/6 71/128/6 68/129/6 67/130/6 72/99/6 66/98/6 65/131/6 74/132/6 73/133/6 79/134/6
f 34/40/1 74/48/1 65/135/1 17/52/1
f 54/107/5 53/84/5 77/124/5 78/123/5
f 16/28/4 35/20/4 60/113/4 61/112/4
f 73/47/1 16/28/1 61/108/1 79/136/1
f 24/50/4 25/56/4 30/59/4 26/22/4 27/61/4 31/65/4 28/35/4 36/63/4 55/105/4 56/104/4 59/109/4 57/83/4 58/111/4 60/113/4 35/20/4 29/19/4
f 59/109/4 62/68/4 53/84/4 57/83/4
f 32/58/3 20/57/3 68/129/3 71/137/3
f 18/53/1 17/52/1 65/135/1 66/98/1
f 20/57/2 19/23/2 67/130/2 68/129/2
f 61/108/1 54/107/1 78/123/1 79/136/1
f 62/68/5 80/69/5 77/124/5 53/84/5
f 75/45/3 51/44/3 22/27/3 70/101/3
f 51/106/4 55/105/4 36/63/4 22/71/4
f 33/54/2 72/99/2 67/130/2 19/23/2
f 30/59/4 33/54/4 19/23/4 26/22/4
f 69/100/3 21/26/3 32/58/3 71/137/3
f 21/36/4 28/35/4 31/65/4 32/64/4
f 97/138/8 98/139/8 82/55/8 81/41/8
f 99/140/9 100/141/9 84/60/9 83/21/9
f 101/142/8 97/138/8 81/41/8 85/18/8
f 102/143/9 99/140/9 83/21/9 86/39/9
f 103/144/10 104/145/10 88/33/10 87/32/10
f 98/139/9 102/143/9 86/39/9 82/55/9
f 100/141/10 103/144/10 87/32/10 84/60/10
f 104/145/11 105/146/11 89/62/11 88/33/11
f 106/147/10 107/148/10 91/103/10 90/96/10
f 108/149/12 109/150/12 93/110/12 92/82/12
f 110/151/12 108/149/12 92/82/12 94/93/12
f 111/152/8 112/153/8 96/87/8 95/86/8
f 107/148/12 110/151/12 94/93/12 91/103/12
f 109/150/8 111/152/8 95/86/8 93/110/8
f 112/153/8 101/142/8 85/18/8 96/87/8
f 105/146/13 106/147/13 90/96/13 89/62/13
f 42/154/3 3/155/3 118/156/3 116/157/3
f 40/158/5 42/154/5 116/157/5 114/159/5
f 40/158/6 109/150/6 108/149/6 110/151/6 107/148/6 42/154/6
f 40/158/6 5/160/6 98/139/6 97/138/6 101/142/6 112/153/6 111/152/6 109/150/6
f 3/155/2 5/160/2 120/161/2 118/156/2
f 3/155/6 100/141/6 99/140/6 102/143/6 98/139/6 5/160/6
f 3/155/6 42/154/6 107/148/6 106/147/6 105/146/6 104/145/6 103/144/6 100/141/6
f 117/91/14 115/90/14 116/157/14 118/156/14
f 115/90/15 113/89/15 114/159/15 116/157/15
f 120/161/16 114/159/16 113/89/16 119/92/16
f 119/92/17 117/91/17 118/156/17 120/161/17
f 5/160/1 40/158/1 114/159/1 120/161/1
