# Blender v3.0.0 OBJ File: 'level3.blend'
# www.blender.org
mtllib level3_hallway.mtl
o Hallway_Cube.001
v -8.000000 0.500000 2.633053
v -8.000000 0.500000 -2.633053
v -8.000000 7.838979 -2.633053
v -8.000000 7.838979 2.633053
v -8.000000 7.838979 3.611581
v -8.000000 7.838979 -3.611581
v -8.000000 -0.500000 3.611581
v -8.000000 0.500000 3.611581
v -8.000000 -0.500000 -3.611581
v -8.000000 0.500000 -3.611581
v -16.000000 0.500000 2.633053
v -16.000000 7.838979 2.633053
v -16.000000 7.838979 3.611581
v -16.000000 0.500000 -2.633053
v -16.000000 -0.500000 3.611581
v -16.000000 7.838979 -2.633053
v -16.000000 7.838979 -3.611581
v -16.000000 -0.500000 -3.611581
v -16.000000 0.500000 3.611581
v -16.000000 0.500000 -3.611581
v -8.000000 8.838980 2.633053
v -8.000000 8.838980 3.611581
v -8.000000 8.838980 -2.633053
v -8.000000 8.838980 -3.611581
v -16.000000 8.838980 2.633053
v -16.000000 8.838980 3.611581
v -16.000000 8.838980 -2.633053
v -16.000000 8.838980 -3.611581
v -9.041033 7.608459 2.362359
v -10.387539 7.608459 2.362359
v -11.326747 7.608459 2.362359
v -12.673253 7.608459 2.362359
v -13.612461 7.608459 2.362359
v -14.958967 7.608459 2.362359
v -14.958967 0.730520 2.362359
v -13.612461 0.730520 2.362359
v -12.673253 0.730520 2.362359
v -11.326747 0.730520 2.362359
v -10.387539 0.730520 2.362359
v -9.041033 0.730520 2.362359
v -9.041033 7.608459 -2.362359
v -10.387539 7.608459 -2.362359
v -11.326747 7.608459 -2.362359
v -12.673253 7.608459 -2.362359
v -13.612461 7.608459 -2.362359
v -14.958967 7.608459 -2.362359
v -14.958967 0.730520 -2.362359
v -13.612461 0.730520 -2.362359
v -12.673253 0.730520 -2.362359
v -11.326747 0.730520 -2.362359
v -10.387539 0.730520 -2.362359
v -9.041033 0.730520 -2.362359
v -8.810513 7.838979 -2.633053
v -10.618058 7.838979 -2.633053
v -11.096228 7.838979 -2.633053
v -12.903772 7.838979 -2.633053
v -13.381942 7.838979 -2.633053
v -15.189487 7.838979 -2.633053
v -15.189487 0.500000 -2.633053
v -13.381942 0.500000 -2.633053
v -12.903772 0.500000 -2.633053
v -11.096228 0.500000 -2.633053
v -10.618058 0.500000 -2.633053
v -8.810513 0.500000 -2.633053
v -8.000000 0.500000 -0.000000
v -8.000000 -0.500000 0.000000
v -16.000000 0.500000 -0.000000
v -16.000000 -0.500000 0.000000
v -8.000000 7.838979 -0.000000
v -8.000000 8.838980 -0.000000
v -16.000000 8.838980 -0.000000
v -16.000000 7.838979 -0.000000
v -8.810513 7.838979 2.633053
v -10.618058 7.838979 2.633053
v -11.096228 7.838979 2.633053
v -12.903772 7.838979 2.633053
v -13.381942 7.838979 2.633053
v -15.189487 7.838979 2.633053
v -15.189487 0.500000 2.633053
v -13.381942 0.500000 2.633053
v -12.903772 0.500000 2.633053
v -11.096228 0.500000 2.633053
v -10.618058 0.500000 2.633053
v -8.810513 0.500000 2.633053
vt 0.375000 0.125000
vt 0.625000 0.125000
vt 0.625000 0.179855
vt 0.625000 0.192644
vt 0.375000 0.181431
vt 0.375000 0.181431
vt 0.625000 0.192644
vt 0.625000 0.179855
vt 0.625000 0.192644
vt 0.625000 0.179855
vt 0.625000 0.192644
vt 0.625000 0.179855
vt 0.625000 0.179855
vt 0.625000 0.192644
vt 0.375000 0.125000
vt 0.625000 0.125000
vt 0.625000 0.179855
vt 0.625000 0.192644
vt 0.375000 0.181431
vt 0.625000 0.192644
vt 0.625000 0.179855
vt 0.625000 0.179855
vt 0.625000 0.179855
vt 0.625000 0.179855
vt 0.625000 0.179855
vt 0.625000 0.179855
vt 0.625000 0.179855
vt 0.625000 0.179855
vt 0.625000 0.179855
vt 0.375000 0.181431
vt 0.625000 0.192644
vt 0.625000 0.179855
vt 0.625000 0.179855
vt 0.625000 0.192644
vt 0.625000 0.192644
vt 0.625000 0.179855
vt 0.625000 0.179855
vt 0.625000 0.179855
vt 0.625000 0.179855
vt 0.625000 0.192644
vt 0.625000 0.192644
vt 0.625000 0.179855
vt 0.625000 0.179855
vt 0.625000 0.179855
vt 0.625000 0.179855
vt 0.625000 0.179855
vt 0.625000 0.179855
vt 0.625000 0.179855
vt 0.625000 0.179855
vt 0.625000 0.179855
vt 0.625000 0.179855
vt 0.625000 0.179855
vt 0.625000 0.179855
vt 0.625000 0.179855
vt 0.625000 0.179855
vt 0.625000 0.179855
vt 0.625000 0.179855
vt 0.625000 0.179855
vt 0.625000 0.179855
vt 0.625000 0.179855
vt 0.625000 0.179855
vt 0.625000 0.179855
vt 0.625000 0.179855
vt 0.625000 0.179855
vt 0.625000 0.179855
vt 0.625000 0.179855
vt 0.625000 0.179855
vt 0.625000 0.179855
vt 0.625000 0.179855
vt 0.625000 0.179855
vt 0.625000 0.179855
vt 0.625000 0.179855
vt 0.625000 0.179855
vt 0.625000 0.179855
vt 0.625000 0.179855
vt 0.625000 0.179855
vt 0.625000 0.179855
vt 0.625000 0.179855
vt 0.625000 0.179855
vt 0.625000 0.179855
vt 0.625000 0.125000
vt 0.625000 0.125000
vt 0.625000 0.125000
vt 0.625000 0.125000
vn 1.0000 0.0000 0.0000
vn -1.0000 0.0000 0.0000
vn 0.0000 0.0000 -1.0000
vn 0.0000 0.0000 1.0000
vn 0.0000 1.0000 0.0000
vn 0.0000 -0.7613 -0.6484
vn 0.0000 -0.7613 -0.6483
vn 0.0000 0.7613 -0.6484
vn 0.0000 0.7613 0.6484
vn 0.0000 -0.7613 0.6484
vn 0.0000 -0.7613 0.6483
vn 0.7613 0.0000 0.6484
vn -0.7613 0.0000 0.6483
vn 0.7613 0.0000 0.6483
vn -0.7613 0.0000 0.6484
vn 0.0000 -1.0000 0.0000
vn 0.7613 0.0000 -0.6484
vn -0.7613 0.0000 -0.6483
vn 0.7613 0.0000 -0.6483
vn -0.7613 0.0000 -0.6484
usemtl None
s off
f 66/1/1 65/2/1 1/3/1 8/4/1 7/5/1
f 66/1/1 9/6/1 10/7/1 2/8/1 65/2/1
f 6/9/1 3/10/1 2/8/1 10/7/1
f 13/11/2 12/12/2 11/13/2 19/14/2
f 68/15/2 67/16/2 14/17/2 20/18/2 18/19/2
f 17/20/2 20/18/2 14/17/2 16/21/2
f 38/22/3 37/23/3 32/24/3 31/25/3
f 79/26/3 11/13/3 12/12/3 78/27/3
f 59/28/4 58/29/4 16/21/4 14/17/4
f 10/7/3 9/6/3 18/19/3 20/18/3
f 68/15/2 15/30/2 19/14/2 11/13/2 67/16/2
f 13/11/2 26/31/2 25/32/2 12/12/2
f 8/4/4 19/14/4 15/30/4 7/5/4
f 6/9/3 10/7/3 20/18/3 17/20/3
f 23/33/5 24/34/5 28/35/5 27/36/5
f 1/3/3 84/37/3 73/38/3 4/39/3
f 5/40/4 22/41/4 26/31/4 13/11/4
f 17/20/2 16/21/2 27/36/2 28/35/2
f 40/42/3 39/43/3 30/44/3 29/45/3
f 6/9/3 17/20/3 28/35/3 24/34/3
f 3/10/1 6/9/1 24/34/1 23/33/1
f 21/46/5 25/32/5 26/31/5 22/41/5
f 65/2/5 67/16/5 11/13/5 79/26/5 80/47/5 81/48/5 82/49/5 83/50/5 84/37/5 1/3/5
f 4/39/1 21/46/1 22/41/1 5/40/1
f 36/51/6 80/47/6 79/26/6 35/52/6
f 65/2/5 2/8/5 64/53/5 63/54/5 62/55/5 61/56/5 60/57/5 59/28/5 14/17/5 67/16/5
f 2/8/4 3/10/4 53/58/4 64/53/4
f 52/59/4 41/60/4 42/61/4 51/62/4
f 63/54/4 54/63/4 55/64/4 62/55/4
f 50/65/4 43/66/4 44/67/4 49/68/4
f 61/56/4 56/69/4 57/70/4 60/57/4
f 48/71/4 45/72/4 46/73/4 47/74/4
f 38/22/7 82/49/7 81/48/7 37/23/7
f 34/75/8 78/27/8 77/76/8 33/77/8
f 32/24/8 76/78/8 75/79/8 31/25/8
f 30/44/8 74/80/8 73/38/8 29/45/8
f 36/51/3 35/52/3 34/75/3 33/77/3
f 81/48/3 80/47/3 77/76/3 76/78/3
f 42/61/9 41/60/9 53/58/9 54/63/9
f 44/67/9 43/66/9 55/64/9 56/69/9
f 46/73/9 45/72/9 57/70/9 58/29/9
f 48/71/10 47/74/10 59/28/10 60/57/10
f 50/65/11 49/68/11 61/56/11 62/55/11
f 52/59/10 51/62/10 63/54/10 64/53/10
f 41/60/12 52/59/12 64/53/12 53/58/12
f 51/62/13 42/61/13 54/63/13 63/54/13
f 43/66/14 50/65/14 62/55/14 55/64/14
f 49/68/13 44/67/13 56/69/13 61/56/13
f 45/72/14 48/71/14 60/57/14 57/70/14
f 47/74/15 46/73/15 58/29/15 59/28/15
f 27/36/2 16/21/2 72/81/2 71/82/2
f 23/33/5 27/36/5 71/82/5 70/83/5
f 3/10/1 23/33/1 70/83/1 69/84/1
f 16/21/16 58/29/16 57/70/16 56/69/16 55/64/16 54/63/16 53/58/16 3/10/16 69/84/16 72/81/16
f 5/40/4 13/11/4 19/14/4 8/4/4
f 9/6/16 66/1/16 68/15/16 18/19/16
f 5/40/1 8/4/1 1/3/1 4/39/1
f 83/50/3 82/49/3 75/79/3 74/80/3
f 40/42/6 84/37/6 83/50/6 39/43/6
f 29/45/17 73/38/17 84/37/17 40/42/17
f 39/43/18 83/50/18 74/80/18 30/44/18
f 31/25/19 75/79/19 82/49/19 38/22/19
f 37/23/18 81/48/18 76/78/18 32/24/18
f 33/77/19 77/76/19 80/47/19 36/51/19
f 35/52/20 79/26/20 78/27/20 34/75/20
f 25/32/2 71/82/2 72/81/2 12/12/2
f 21/46/5 70/83/5 71/82/5 25/32/5
f 4/39/1 69/84/1 70/83/1 21/46/1
f 12/12/16 72/81/16 69/84/16 4/39/16 73/38/16 74/80/16 75/79/16 76/78/16 77/76/16 78/27/16
f 7/5/16 15/30/16 68/15/16 66/1/16
