# Blender v3.0.1 OBJ File: 'lost coast.blend'
# www.blender.org
mtllib path.mtl
o Path_Plane.001
v -1.000000 0.000000 1.000000
v 1.000000 0.000000 1.000000
v -1.000000 0.000000 -1.000000
v 1.000000 0.000000 -1.000000
v -1.000000 1.000000 -6.000000
v 1.000000 1.000000 -6.000000
v -1.185133 2.381228 -10.325695
v 0.814867 2.381228 -10.325695
v -1.258555 2.746032 -14.979702
v 0.741445 2.746032 -14.979702
v -1.190865 1.834010 -19.936245
v 0.809135 1.834010 -19.936245
v -1.020957 0.049059 -24.277262
v 0.979043 0.049059 -24.277262
v -1.000000 0.138668 -0.999592
v -1.000000 0.138668 1.000408
v 1.000000 0.138668 1.000408
v 1.000000 0.138668 -0.999592
v 1.000000 1.138668 -5.999592
v -1.000000 1.138668 -5.999592
v 0.814867 2.519896 -10.325287
v -1.185133 2.519896 -10.325287
v 0.741445 2.884699 -14.979294
v -1.258555 2.884699 -14.979294
v 0.809135 1.972678 -19.935837
v -1.190865 1.972678 -19.935837
v 0.979043 0.187727 -24.276854
v -1.020957 0.187727 -24.276854
vt 0.300499 0.954398
vt 0.300580 0.881100
vt 0.373878 0.881181
vt 0.373797 0.954479
vt 0.300787 0.694226
vt 0.374085 0.694307
vt 0.294186 0.527801
vt 0.367484 0.527882
vt 0.291685 0.356710
vt 0.364983 0.356791
vt 0.294370 0.172011
vt 0.367668 0.172092
vt 0.300787 0.000000
vt 0.374085 0.000081
vt 0.218099 0.000081
vt 0.291397 0.000000
vt 0.291478 0.073298
vt 0.218180 0.073379
vt 0.291685 0.260172
vt 0.218387 0.260253
vt 0.285084 0.426598
vt 0.211786 0.426679
vt 0.282582 0.597688
vt 0.209284 0.597769
vt 0.285267 0.782387
vt 0.211969 0.782468
vt 0.291685 0.954398
vt 0.218387 0.954479
vt 0.038891 0.159080
vt 0.005082 0.340683
vt 0.000000 0.340687
vt 0.033809 0.159084
vt 0.104644 0.853406
vt 0.104489 0.926701
vt 0.099407 0.926705
vt 0.099562 0.853410
vt 0.109725 0.586041
vt 0.143532 0.767626
vt 0.138451 0.767622
vt 0.104644 0.586037
vt 0.018092 0.511292
vt 0.068382 0.670085
vt 0.063300 0.670089
vt 0.013010 0.511296
vt 0.104551 0.999996
vt 0.099469 1.000000
vt 0.209284 0.926701
vt 0.209224 0.999993
vt 0.204142 0.999989
vt 0.204203 0.926697
vt 0.173017 0.256661
vt 0.122733 0.415441
vt 0.117651 0.415437
vt 0.167934 0.256656
vt 0.209129 0.000004
vt 0.209284 0.073311
vt 0.204202 0.073307
vt 0.204047 0.000000
vt 0.104644 0.000000
vt 0.099562 0.000004
vn 0.0000 -1.0000 0.0000
vn 0.0000 -0.9806 -0.1961
vn 0.0000 -0.9526 -0.3042
vn 0.0000 -0.9969 -0.0781
vn 0.0000 -0.9835 0.1810
vn 0.0000 -0.9249 0.3803
vn 0.0000 1.0000 0.0000
vn 0.0000 0.9806 0.1961
vn 0.0000 0.9526 0.3042
vn 0.0000 0.9969 0.0781
vn 0.0000 0.9835 -0.1810
vn 0.0000 0.9249 -0.3803
vn -0.9999 0.0000 -0.0137
vn -1.0000 0.0000 0.0000
vn 0.9999 -0.0000 0.0137
vn -0.9991 -0.0001 0.0427
vn 0.0000 -0.0029 1.0000
vn 0.0000 0.0029 -1.0000
vn 0.9991 0.0001 -0.0427
vn 1.0000 0.0000 0.0000
vn -0.9992 0.0001 -0.0392
vn 0.9992 -0.0001 0.0392
vn -0.9999 -0.0000 0.0158
vn 0.9999 0.0000 -0.0158
usemtl None
s off
f 1/1/1 3/2/1 4/3/1 2/4/1
f 3/2/2 5/5/2 6/6/2 4/3/2
f 5/5/3 7/7/3 8/8/3 6/6/3
f 7/7/4 9/9/4 10/10/4 8/8/4
f 9/9/5 11/11/5 12/12/5 10/10/5
f 11/11/6 13/13/6 14/14/6 12/12/6
f 16/15/7 17/16/7 18/17/7 15/18/7
f 15/18/8 18/17/8 19/19/8 20/20/8
f 20/20/9 19/19/9 21/21/9 22/22/9
f 22/22/10 21/21/10 23/23/10 24/24/10
f 24/24/11 23/23/11 25/25/11 26/26/11
f 26/26/12 25/25/12 27/27/12 28/28/12
f 11/29/13 9/30/13 24/31/13 26/32/13
f 3/33/14 1/34/14 16/35/14 15/36/14
f 10/37/15 12/38/15 25/39/15 23/40/15
f 7/41/16 5/42/16 20/43/16 22/44/16
f 1/34/17 2/45/17 17/46/17 16/35/17
f 14/47/18 13/48/18 28/49/18 27/50/18
f 6/51/19 8/52/19 21/53/19 19/54/19
f 2/55/20 4/56/20 18/57/20 17/58/20
f 13/59/21 11/29/21 26/32/21 28/60/21
f 12/38/22 14/47/22 27/50/22 25/39/22
f 9/30/23 7/41/23 22/44/23 24/31/23
f 8/52/24 10/37/24 23/40/24 21/53/24
f 5/42/14 3/33/14 15/36/14 20/43/14
f 4/56/20 6/51/20 19/54/20 18/57/20
