# Blender v3.0.1 OBJ File: 'lost coast.blend'
# www.blender.org
mtllib thing.mtl
o Cube
v -105.088699 2.285852 195.834564
v -66.626205 57.714149 177.532959
v -105.088699 2.285852 103.120628
v -66.626205 57.714149 121.422241
v 289.642517 1.502707 195.270233
v 253.013458 36.558823 177.841003
v 289.642517 1.502707 103.684967
v 253.013458 36.558823 121.114189
v 159.820084 -2.657780 78.601746
v 25.650467 -2.657780 78.601746
v 40.758270 73.388916 116.819824
v 144.712280 66.076096 116.819824
v 25.650467 -2.657780 220.353455
v 159.820084 -2.657780 220.353455
v 144.712280 66.076096 182.135376
v 40.758266 73.388916 182.135376
v -108.519150 -2.657780 95.253578
v -108.519150 -2.657780 203.701630
v -63.195755 62.657780 182.135376
v -63.195755 62.657780 116.819824
v 248.666306 40.719307 116.819824
v 293.989685 -2.657780 95.253578
v 293.989685 -2.657780 203.701630
v 248.666306 40.719307 182.135376
v -102.085175 0.201662 103.120628
v -102.085175 0.201662 195.834564
v -63.622665 55.629959 177.532959
v -63.622665 55.629959 121.422241
v 250.485733 33.917683 121.114189
v 287.114807 -1.138435 103.684967
v 287.114807 -1.138435 195.270233
v 250.485733 33.917679 177.841003
v -63.195755 62.657780 160.363525
v -63.195755 62.657780 138.591675
v 248.666306 40.719307 138.591675
v 248.666306 40.719307 160.363525
v 144.712280 66.076096 138.591675
v 144.712280 66.076096 160.363525
v 40.758266 73.388916 138.591675
v 40.758266 73.388916 160.363525
v 249.693039 52.112225 149.477600
v 40.687572 84.904663 149.477600
v 248.666306 40.719307 149.477600
v -63.195755 62.657780 149.477600
v -63.640656 74.151207 149.477600
v 145.380051 77.540649 149.477600
v 40.687572 77.721039 160.363525
v 40.687572 77.721039 138.591675
v 145.380051 70.357018 160.363525
v 145.380051 70.357018 138.591675
v 249.693039 44.928593 160.363525
v 249.693039 44.928593 138.591675
v -63.640656 66.967575 138.591675
v -63.640656 66.967575 160.363525
vt 0.606078 0.229113
vt 0.393922 0.234485
vt 0.393922 0.234485
vt 0.606078 0.229113
vt 0.375000 0.416667
vt 0.625000 0.416667
vt 0.375000 0.500000
vt 0.708333 0.625000
vt 0.791667 0.625000
vt 0.791667 0.666667
vt 0.708333 0.666667
vt 0.375000 0.916667
vt 0.625000 0.916667
vt 0.375000 1.000000
vt 0.625000 0.625000
vt 0.625000 0.666667
vt 0.791667 0.666667
vt 0.875000 0.666667
vt 0.875000 0.750000
vt 0.791667 0.750000
vt 0.625000 0.666667
vt 0.708333 0.666667
vt 0.708333 0.750000
vt 0.625000 0.750000
vt 0.625000 0.625000
vt 0.625000 0.583333
vt 0.625000 0.583333
vt 0.625000 0.125000
vt 0.625000 0.083333
vt 0.625000 0.083333
vt 0.625000 0.125000
vt 0.375000 0.750000
vt 0.625000 0.833333
vt 0.375000 0.833333
vt 0.375000 0.250000
vt 0.625000 0.333333
vt 0.375000 0.333333
vt 0.625000 1.000000
vt 0.625000 0.500000
vt 0.625000 0.250000
vt 0.708333 0.583333
vt 0.791667 0.583333
vt 0.791667 0.583333
vt 0.708333 0.583333
vt 0.606078 0.020887
vt 0.393922 0.015515
vt 0.375000 0.000000
vt 0.625000 0.000000
vt 0.625000 0.166667
vt 0.625000 0.166667
vt 0.601021 0.520780
vt 0.398979 0.515882
vt 0.398979 0.734118
vt 0.601021 0.729220
vt 0.606078 0.020887
vt 0.393922 0.015515
vt 0.601021 0.520780
vt 0.398979 0.515882
vt 0.398979 0.734118
vt 0.601021 0.729220
vt 0.291667 0.500000
vt 0.291667 0.750000
vt 0.208333 0.750000
vt 0.208333 0.500000
vt 0.875000 0.583333
vt 0.875000 0.625000
vt 0.125000 0.750000
vt 0.125000 0.500000
vt 0.708333 0.500000
vt 0.791667 0.500000
vt 0.875000 0.500000
vt 0.875000 0.583333
vt 0.875000 0.666667
vn -0.1493 -0.2151 0.9651
vn 0.1066 0.5010 -0.8589
vn 0.0586 0.8332 0.5498
vn -0.1091 0.4636 0.8793
vn 0.1994 0.8179 0.5397
vn -0.1027 0.9947 0.0000
vn 0.2370 0.9715 0.0000
vn 0.0702 0.9975 0.0000
vn 0.9905 -0.1304 0.0430
vn -0.9982 -0.0562 -0.0185
vn 0.1066 0.5010 0.8589
vn 0.0143 0.4668 0.8842
vn -0.1091 0.4636 -0.8793
vn 0.0143 0.4668 -0.8842
vn 0.1342 0.5500 0.8243
vn -0.0346 0.3349 0.9416
vn 0.1342 0.5500 -0.8243
vn -0.0346 0.3349 -0.9416
vn 0.0000 0.0000 -1.0000
vn -0.8216 0.5701 -0.0000
vn -0.9982 -0.0562 0.0185
vn 0.6914 0.7224 0.0000
vn 0.1994 0.8179 -0.5397
vn -0.1493 -0.2151 -0.9651
vn 0.2349 -0.2248 0.9457
vn 0.2349 -0.2248 -0.9457
vn 0.5701 0.8216 0.0000
vn -0.5701 -0.8216 0.0000
vn 0.7224 -0.6914 0.0000
vn 0.0586 0.8332 -0.5498
vn 0.9905 -0.1304 -0.0430
vn 0.0000 -1.0000 0.0000
vn -0.0857 0.8316 -0.5488
vn 0.0000 0.0000 1.0000
vn -0.7225 0.6914 0.0000
vn -0.0857 0.8316 0.5488
usemtl None
s off
f 4/1/1 3/2/1 25/3/1 28/4/1
f 9/5/2 12/6/2 22/7/2
f 46/8/3 42/9/3 47/10/3 49/11/3
f 13/12/4 16/13/4 18/14/4
f 41/15/5 46/8/5 49/11/5 51/16/5
f 40/17/6 33/18/6 19/19/6 16/20/6
f 36/21/7 38/22/7 15/23/7 24/24/7
f 38/22/8 40/17/8 16/20/8 15/23/8
f 43/25/9 35/26/9 52/27/9 41/15/9
f 44/28/10 33/29/10 54/30/10 45/31/10
f 23/32/11 15/33/11 14/34/11
f 14/34/12 15/33/12 16/13/12 13/12/12
f 17/35/13 11/36/13 10/37/13
f 10/37/14 11/36/14 12/6/14 9/5/14
f 15/33/15 23/32/15 24/24/15
f 18/14/16 16/13/16 19/38/16
f 22/7/17 12/6/17 21/39/17
f 11/36/18 17/35/18 20/40/18
f 37/41/19 39/42/19 48/43/19 50/44/19
f 2/45/20 1/46/20 18/47/20 19/48/20
f 34/49/21 44/28/21 45/31/21 53/50/21
f 3/2/20 4/1/20 20/40/20 17/35/20
f 8/51/22 7/52/22 22/7/22 21/39/22
f 52/27/23 50/44/23 46/8/23 41/15/23
f 5/53/22 6/54/22 24/24/22 23/32/22
f 1/46/24 2/45/24 27/55/24 26/56/24
f 7/52/25 8/51/25 29/57/25 30/58/25
f 6/54/26 5/53/26 31/59/26 32/60/26
f 3/2/27 1/46/27 26/56/27 25/3/27
f 2/45/28 4/1/28 28/4/28 27/55/28
f 8/51/29 6/54/29 32/60/29 29/57/29
f 29/57/22 32/60/22 31/59/22 30/58/22
f 27/55/20 28/4/20 25/3/20 26/56/20
f 6/54/22 8/51/22 21/39/22 35/26/22 43/25/22 36/21/22 24/24/22
f 7/52/22 5/53/22 23/32/22 22/7/22
f 4/1/20 2/45/20 19/48/20 33/29/20 44/28/20 34/49/20 20/40/20
f 50/44/30 48/43/30 42/9/30 46/8/30
f 1/46/20 3/2/20 17/35/20 18/47/20
f 36/21/31 43/25/31 41/15/31 51/16/31
f 9/61/32 14/62/32 13/63/32 10/64/32
f 48/43/33 53/65/33 45/66/33 42/9/33
f 10/64/32 13/63/32 18/67/32 17/68/32
f 35/26/19 37/41/19 50/44/19 52/27/19
f 12/69/8 11/70/8 39/42/8 37/41/8
f 40/17/34 38/22/34 49/11/34 47/10/34
f 21/39/7 12/69/7 37/41/7 35/26/7
f 38/22/34 36/21/34 51/16/34 49/11/34
f 11/70/6 20/71/6 34/72/6 39/42/6
f 33/18/34 40/17/34 47/10/34 54/73/34
f 22/7/32 23/32/32 14/62/32 9/61/32
f 39/42/19 34/72/19 53/65/19 48/43/19
f 5/53/35 7/52/35 30/58/35 31/59/35
f 42/9/36 45/66/36 54/73/36 47/10/36
