# Blender v2.93.4 OBJ File: 'weapons.blend'
# www.blender.org
mtllib gun.mtl
o Gun_Cube
v -0.970257 0.317462 0.307986
v -0.970257 0.317462 -0.307986
v 3.519399 1.126428 0.414655
v 3.519399 1.955737 0.414655
v 3.519399 1.126428 -0.414655
v 3.519399 1.955737 -0.414655
v -0.064943 0.317462 -0.307986
v -0.064943 0.317462 0.307986
v 3.519399 1.912420 -0.453856
v 3.519399 1.855912 -0.494732
v 3.519399 1.783741 -0.533848
v 3.519399 1.695377 -0.565747
v 3.519399 1.594174 -0.584002
v 3.519399 1.487991 -0.584002
v 3.519399 1.386788 -0.565747
v 3.519399 1.298424 -0.533848
v 3.519399 1.226253 -0.494732
v 3.519399 1.169745 -0.453856
v 3.519399 1.087226 0.371337
v 3.519399 1.046351 0.314829
v 3.519399 1.007234 0.242658
v 3.519399 0.975335 0.154295
v 3.519399 0.957081 0.053091
v 3.519399 0.957081 -0.053091
v 3.519399 0.975335 -0.154295
v 3.519399 1.007234 -0.242658
v 3.519399 1.046351 -0.314829
v 3.519399 1.087226 -0.371337
v 3.519399 1.994939 -0.371337
v 3.519399 2.035814 -0.314829
v 3.519399 2.074931 -0.242658
v 3.519399 2.106830 -0.154295
v 3.519399 2.125084 -0.053091
v 3.519399 2.125084 0.053091
v 3.519399 2.106830 0.154295
v 3.519399 2.074931 0.242658
v 3.519399 2.035814 0.314829
v 3.519399 1.994939 0.371337
v 3.519399 1.912420 0.453856
v 3.519399 1.855912 0.494732
v 3.519399 1.783741 0.533848
v 3.519399 1.695377 0.565747
v 3.519399 1.594174 0.584002
v 3.519399 1.487991 0.584002
v 3.519399 1.386788 0.565747
v 3.519399 1.298424 0.533848
v 3.519399 1.226253 0.494732
v 3.519399 1.169745 0.453856
v 3.858675 1.126428 -0.414655
v 3.858675 1.087226 -0.371337
v 3.858675 1.994939 0.371337
v 3.858675 1.955737 0.414655
v 3.858675 1.169745 0.453856
v 3.858675 1.126428 0.414655
v 3.858675 1.955737 -0.414655
v 3.858675 1.912420 -0.453856
v 3.858675 1.855912 -0.494732
v 3.858675 1.169745 -0.453856
v 3.858675 1.695377 -0.565747
v 3.858675 1.594174 -0.584002
v 3.858675 1.487991 -0.584002
v 3.858675 1.386788 -0.565747
v 3.858675 1.298424 -0.533848
v 3.858675 1.226253 -0.494732
v 3.858675 1.087226 0.371337
v 3.858675 1.046351 0.314829
v 3.858675 1.007234 0.242658
v 3.858675 1.783741 -0.533848
v 3.858675 0.957081 0.053091
v 3.858675 0.957081 -0.053091
v 3.858675 0.975335 -0.154295
v 3.858675 1.007234 -0.242658
v 3.858675 1.046351 -0.314829
v 3.858675 1.994939 -0.371337
v 3.858675 2.035814 -0.314829
v 3.858675 2.074931 -0.242658
v 3.858675 2.106830 -0.154295
v 3.858675 0.975335 0.154295
v 3.858675 2.125084 0.053091
v 3.858675 2.106830 0.154295
v 3.858675 2.074931 0.242658
v 3.858675 2.035814 0.314829
v 3.858675 1.912420 0.453856
v 3.858675 1.855912 0.494732
v 3.858675 1.783741 0.533848
v 3.858675 1.695377 0.565747
v 3.858675 1.594174 0.584002
v 3.858675 2.125084 -0.053091
v 3.858675 1.386788 0.565747
v 3.858675 1.298424 0.533848
v 3.858675 1.226253 0.494732
v 3.382003 0.878903 -0.800000
v 3.382003 0.878903 0.800000
v 3.858675 1.487991 0.584002
v 3.382003 2.057566 -0.800000
v 3.382003 2.263680 -0.593886
v 3.382003 2.263680 0.593886
v 3.382003 2.057566 0.800000
v 2.926130 0.317462 -0.589973
v 2.926130 0.317462 0.589973
v -1.334596 -0.770104 -0.307986
v -1.334596 -0.770104 0.307986
v -0.429282 -0.770104 -0.307986
v -0.429282 -0.770104 0.307986
v -2.653779 0.973940 -0.509508
v -2.653779 0.973940 0.509508
v -2.311594 1.995373 -0.509508
v -2.298027 2.035868 -0.469013
v -2.298027 2.035868 0.469013
v -2.311594 1.995373 0.509508
v -3.721279 -2.263680 -0.682267
v -1.702956 -2.263680 -0.682267
v -1.702956 -2.263680 0.682267
v -3.721279 -2.263680 0.682267
v -1.636119 -2.091156 -0.682267
v -1.636119 -2.091156 0.682267
v -3.654442 -2.091156 0.682267
v -3.654442 -2.091156 -0.682267
v 3.519399 2.125084 -0.584002
v 3.519399 2.125085 0.584002
v 3.519399 0.957080 0.584002
v 3.519399 0.957080 -0.584002
v -2.527467 0.878903 -0.800000
v -2.527467 0.878903 0.800000
v -2.132609 2.057566 -0.800000
v -2.063560 2.263680 -0.593886
v -2.063560 2.263680 0.593886
v -2.132609 2.057566 0.800000
v -0.970257 0.317462 -0.407254
v -1.162957 0.317462 -0.589973
v -0.787537 0.317462 -0.589973
v -1.162957 0.317462 0.589973
v -0.970257 0.317462 0.407254
v -0.787537 0.317462 0.589973
v -1.879642 -1.821873 -0.589973
v -1.686942 -1.821873 -0.407254
v -1.654827 -1.992032 -0.648293
v -1.686942 -1.821873 0.407254
v -1.879642 -1.821873 0.589973
v -1.654827 -1.992032 0.648293
v -3.432238 -1.821873 -0.285415
v -3.111044 -1.821873 -0.589973
v -3.619640 -2.048980 -0.667812
v -3.111044 -1.821873 0.589973
v -3.432238 -1.821873 0.285415
v -3.619640 -2.048980 0.667812
v -2.394357 0.317462 -0.589973
v -2.715552 0.317462 -0.285415
v -2.765457 0.640510 -0.384803
v -2.624374 0.589631 -0.691788
v -2.715552 0.317462 0.285415
v -2.394357 0.317462 0.589973
v -2.624374 0.589631 0.691788
v -2.765457 0.640510 0.384803
v -2.797190 0.545782 -0.455372
v -2.797190 0.545782 0.455372
v -2.298941 2.033144 -0.609410
v -2.266294 2.130596 -0.511958
v -2.266294 2.130596 0.511958
v -2.298941 2.033144 0.609410
v -2.659239 0.957640 0.609410
v -2.659239 0.957640 -0.609410
v -2.696173 0.698501 -0.344536
v -2.696173 0.698501 0.344536
v -2.289804 1.911586 -0.456191
v -2.277657 1.947844 -0.419933
v -2.277657 1.947844 0.419933
v -2.289804 1.911586 0.456191
v -2.596183 0.997040 0.456191
v -2.596183 0.997040 -0.456191
v -1.936520 0.878903 -0.800000
v 2.791056 0.878903 -0.800000
v 2.830542 2.057566 -0.800000
v -1.581148 2.057566 -0.800000
v -1.519004 2.263680 -0.593886
v 2.837447 2.263680 -0.593886
v 2.830542 2.057566 0.800000
v -1.581148 2.057566 0.800000
v -1.936520 0.878903 0.800000
v 2.791056 0.878903 0.800000
v 2.837447 2.263680 0.593886
v -1.519004 2.263680 0.593886
vt 0.432059 0.275000
vt 0.432059 0.250000
vt 0.596282 0.250000
vt 0.596282 0.275000
vt 0.625000 0.975000
vt 0.625000 1.000000
vt 0.596282 1.000000
vt 0.596282 0.975000
vt 0.360168 0.690254
vt 0.139832 0.690254
vt 0.139832 0.690254
vt 0.360168 0.690254
vt 0.407666 0.532666
vt 0.407666 0.549454
vt 0.407666 0.566242
vt 0.407666 0.583030
vt 0.407666 0.599818
vt 0.407666 0.616606
vt 0.407666 0.633394
vt 0.407666 0.650182
vt 0.407666 0.666970
vt 0.407666 0.683758
vt 0.407666 0.700546
vt 0.407666 0.717334
vt 0.424454 0.717334
vt 0.441242 0.717334
vt 0.458030 0.717334
vt 0.474818 0.717334
vt 0.491606 0.717334
vt 0.410934 0.729847
vt 0.409947 0.518310
vt 0.491606 0.532666
vt 0.474818 0.532666
vt 0.458030 0.532666
vt 0.441242 0.532666
vt 0.424454 0.532666
vt 0.508394 0.717334
vt 0.491606 0.717334
vt 0.508394 0.717334
vt 0.458030 0.532666
vt 0.441242 0.532666
vt 0.508394 0.532666
vt 0.525182 0.532666
vt 0.525182 0.532666
vt 0.508394 0.532666
vt 0.458030 0.717334
vt 0.474818 0.717334
vt 0.541970 0.717334
vt 0.525182 0.717334
vt 0.525182 0.717334
vt 0.541970 0.717334
vt 0.407666 0.566242
vt 0.407666 0.583030
vt 0.424454 0.532666
vt 0.407666 0.532666
vt 0.407666 0.549454
vt 0.592334 0.633394
vt 0.592334 0.650182
vt 0.592334 0.650182
vt 0.592334 0.633394
vt 0.424454 0.717334
vt 0.441242 0.717334
vt 0.592334 0.549454
vt 0.592334 0.566242
vt 0.592334 0.566242
vt 0.592334 0.549454
vt 0.575546 0.532666
vt 0.592334 0.532666
vt 0.592334 0.532666
vt 0.575546 0.532666
vt 0.491606 0.532666
vt 0.558758 0.717334
vt 0.558758 0.717334
vt 0.592334 0.666970
vt 0.592334 0.666970
vt 0.407666 0.717334
vt 0.575546 0.717334
vt 0.575546 0.717334
vt 0.592334 0.599818
vt 0.592334 0.616606
vt 0.592334 0.616606
vt 0.592334 0.599818
vt 0.592334 0.583030
vt 0.592334 0.583030
vt 0.407666 0.700546
vt 0.407666 0.683758
vt 0.407666 0.666970
vt 0.407666 0.650182
vt 0.407666 0.633394
vt 0.407666 0.616606
vt 0.407666 0.599818
vt 0.474818 0.532666
vt 0.541970 0.532666
vt 0.558758 0.532666
vt 0.592334 0.683758
vt 0.592334 0.700546
vt 0.592334 0.717334
vt 0.625000 0.275000
vt 0.625000 0.250000
vt 0.151311 0.473689
vt 0.193252 0.534635
vt 0.306748 0.879781
vt 0.348689 0.973689
vt 0.358290 0.983290
vt 0.141710 0.483290
vt 0.592334 0.717334
vt 0.541970 0.532666
vt 0.558758 0.532666
vt 0.592334 0.700546
vt 0.592334 0.683758
vt 0.432059 0.500000
vt 0.432059 0.750000
vt 0.375000 0.750000
vt 0.375000 0.500000
vt 0.610298 0.521353
vt 0.596282 0.500000
vt 0.625000 0.532205
vt 0.608965 0.727734
vt 0.633127 0.733329
vt 0.596282 0.750000
vt 0.432059 1.000000
vt 0.432059 0.975000
vt 0.850000 0.532205
vt 0.875000 0.532205
vt 0.875000 0.717795
vt 0.850000 0.717795
vt 0.139832 0.559746
vt 0.360168 0.559746
vt 0.136724 0.750000
vt 0.134611 0.711286
vt 0.360168 0.559746
vt 0.375000 1.000000
vt 0.375000 1.000000
vt 0.375000 1.000000
vt 0.375000 1.000000
vt 0.375000 1.000000
vt 0.375000 1.000000
vt 0.139832 0.559746
vt 0.125000 0.500000
vt 0.125000 0.750000
vt 0.125000 0.750000
vt 0.125000 0.500000
vt 0.375000 0.250000
vt 0.375000 0.250000
vt 0.375000 0.250000
vt 0.375000 0.250000
vt 0.576075 0.229865
vt 0.392541 0.326543
vt 0.392541 0.326543
vt 0.576075 0.229865
vt 0.375000 1.000000
vt 0.375000 1.000000
vt 0.125000 0.500000
vt 0.375000 0.250000
vt 0.375000 0.250000
vt 0.375000 0.250000
vt 0.375000 0.250000
vt 0.310472 0.870944
vt 0.189528 0.629056
vt 0.125000 0.500000
vt 0.134611 0.538714
vt 0.136724 0.500000
vt 0.310472 0.870944
vt 0.189528 0.629056
vt 0.375000 1.000000
vt 0.375000 1.000000
vt 0.375000 0.261724
vt 0.375000 0.250000
vt 0.375000 0.250000
vt 0.402660 0.250000
vt 0.432059 0.475000
vt 0.625000 0.717795
vt 0.222618 0.450706
vt 0.430369 0.193399
vt 0.371641 0.736594
vt 0.402660 0.515230
vt 0.432059 0.000000
vt 0.432059 0.775000
vt 0.402660 1.000000
vt 0.375000 0.988276
vt 0.583587 0.235399
vt 0.597351 0.219316
vt 0.625000 0.217795
vt 0.597474 0.059667
vt 0.583771 0.045460
vt 0.596282 0.000000
vt 0.625000 0.032205
vt 0.401280 0.304210
vt 0.225849 0.479753
vt 0.273853 0.378808
vt 0.369378 0.255622
vt 0.375000 0.250000
vt 0.130622 0.755622
vt 0.125000 0.750000
vt 0.375000 0.250000
vt 0.375000 1.000000
vt 0.375000 0.250000
vt 0.375000 1.000000
vt 0.125000 0.500000
vt 0.375000 1.000000
vt 0.097663 0.547922
vt 0.178744 0.489210
vt 0.373210 0.859606
vt 0.125000 0.500000
vt 0.374835 0.630312
vt 0.269580 0.462427
vt 0.582263 0.222137
vt 0.582808 0.077062
vt 0.577050 0.073314
vt 0.428101 0.264667
vt 0.269580 0.462427
vt 0.374835 0.630312
vt 0.428101 0.264667
vt 0.577050 0.073314
vt 0.582808 0.077062
vt 0.582263 0.222137
vt 0.650000 0.532205
vt 0.650000 0.717795
vt 0.596282 0.775000
vt 0.625000 0.500000
vt 0.596282 0.475000
vt 0.625000 0.475000
vt 0.625000 0.750000
vt 0.625000 0.775000
vn 0.0000 0.0000 -1.0000
vn 0.0000 0.7071 0.7071
vn 0.0000 0.0000 1.0000
vn 1.0000 -0.0000 0.0000
vn 0.0000 -0.4765 -0.8792
vn 0.0000 0.1775 -0.9841
vn 0.0000 -0.3396 0.9406
vn 0.0000 0.3396 0.9406
vn 0.0000 -0.8792 -0.4765
vn 0.0000 -0.6710 -0.7415
vn 0.0000 -0.8102 -0.5861
vn 0.0000 0.9841 0.1775
vn 0.0000 -0.5861 0.8102
vn 0.0000 0.8102 -0.5861
vn 0.0000 -0.7415 -0.6710
vn 0.0000 0.6710 -0.7415
vn 0.0000 0.4765 0.8792
vn 0.0000 0.9406 0.3396
vn 0.0000 -0.6710 0.7415
vn 0.0000 0.5861 0.8102
vn -0.0000 0.9841 -0.1775
vn 0.0000 0.8792 -0.4765
vn 0.0000 -0.7415 0.6710
vn -0.0000 0.9406 -0.3396
vn 0.0000 -0.5861 -0.8102
vn 0.0000 -0.1775 -0.9841
vn 0.0000 -0.4765 0.8792
vn 0.0000 0.7071 -0.7071
vn 0.0000 -0.9406 -0.3396
vn 0.0000 -0.8102 0.5861
vn 0.9827 0.1855 0.0000
vn 0.0000 0.6710 0.7415
vn 0.0000 -0.9841 0.1775
vn 0.0000 0.1775 0.9841
vn 0.0000 0.3396 -0.9406
vn 0.0000 0.7415 -0.6710
vn 0.0000 0.5861 -0.8102
vn 0.0000 -0.9406 0.3396
vn 0.0000 0.7415 0.6710
vn 0.0000 -0.3396 -0.9406
vn -0.0000 -0.9841 -0.1775
vn 0.0000 0.8102 0.5861
vn 0.0000 0.4765 -0.8792
vn 0.0000 -1.0000 0.0000
vn 0.0000 0.8792 0.4765
vn 0.0000 1.0000 0.0000
vn 0.0000 -0.8792 0.4765
vn 0.7763 -0.6303 0.0000
vn 0.0000 -0.1775 0.9841
vn 0.6072 0.5618 -0.5618
vn 0.6072 0.5618 0.5618
vn 0.0000 0.3242 0.9460
vn 0.9482 -0.3177 0.0000
vn -0.7095 0.2377 0.6634
vn 0.9325 -0.3612 0.0000
vn -0.9325 0.3612 0.0000
vn 0.0000 0.3242 -0.9460
vn -0.7713 0.6365 -0.0000
vn -0.9482 0.3177 0.0000
vn 0.0000 -0.3504 -0.9366
vn 0.4945 -0.8692 0.0000
vn 0.8438 0.0000 0.5367
vn 0.8438 0.0000 -0.5367
vn 0.7102 0.7040 -0.0000
vn -0.8109 0.0536 0.5828
vn -0.0000 -0.3504 0.9366
vn -0.6100 0.6531 -0.4487
vn -0.6100 0.6531 0.4487
vn -0.7452 0.2496 0.6184
vn -0.5488 0.8360 0.0000
vn -0.7452 0.2496 -0.6184
vn -0.8109 0.0536 -0.5828
vn 0.4498 0.7568 -0.4743
vn 0.4498 0.7568 0.4743
vn 0.6705 -0.2246 -0.7071
vn 0.6705 -0.2246 0.7071
vn -0.9416 -0.3367 0.0000
vn -0.3356 0.8730 -0.3540
vn -0.3356 0.8730 0.3540
vn -0.5435 -0.6359 -0.5479
vn -0.5435 -0.6359 0.5479
vn -0.6705 0.2246 -0.7071
vn -0.6705 0.2246 0.7071
vn -0.9482 0.3176 0.0000
vn -0.7095 0.2377 -0.6634
vn -0.9394 -0.0269 0.3416
vn -0.6981 0.4439 -0.5618
vn -0.9743 -0.2255 0.0000
vn -0.9394 -0.0269 -0.3416
vn -0.6418 0.7668 0.0000
vn -0.6981 0.4439 0.5618
usemtl None
s off
f 171/1/1 123/2/1 125/3/1 174/4/1
f 182/5/2 127/6/2 128/7/2 178/8/2
f 8/9/3 1/10/3 102/11/3 104/12/3
f 5/13/4 28/14/4 27/15/4 26/16/4 25/17/4 24/18/4 23/19/4 22/20/4 21/21/4 20/22/4 19/23/4 3/24/4 48/25/4 47/26/4 46/27/4 45/28/4 44/29/4 121/30/4 122/31/4 14/32/4 15/33/4 16/34/4 17/35/4 18/36/4
f 43/37/3 44/29/3 94/38/3 87/39/3
f 17/35/5 16/34/5 63/40/5 64/41/5
f 13/42/6 12/43/6 59/44/6 60/45/6
f 45/28/7 46/27/7 90/46/7 89/47/7
f 41/48/8 42/49/8 86/50/8 85/51/8
f 26/16/9 27/15/9 73/52/9 72/53/9
f 5/13/10 18/36/10 58/54/10 49/55/10
f 27/15/11 28/14/11 50/56/11 73/52/11
f 34/57/12 35/58/12 80/59/12 79/60/12
f 47/26/13 48/25/13 53/61/13 91/62/13
f 29/63/14 30/64/14 75/65/14 74/66/14
f 28/14/15 5/13/15 49/55/15 50/56/15
f 9/67/16 6/68/16 55/69/16 56/70/16
f 14/32/1 13/42/1 60/45/1 61/71/1
f 40/72/17 41/48/17 85/51/17 84/73/17
f 35/58/18 36/74/18 81/75/18 80/59/18
f 48/25/19 3/24/19 54/76/19 53/61/19
f 39/77/20 40/72/20 84/73/20 83/78/20
f 32/79/21 33/80/21 88/81/21 77/82/21
f 30/64/22 31/83/22 76/84/22 75/65/22
f 3/24/23 19/23/23 65/85/23 54/76/23
f 31/83/24 32/79/24 77/82/24 76/84/24
f 18/36/25 17/35/25 64/41/25 58/54/25
f 91/62/4 53/61/4 54/76/4 65/85/4 66/86/4 67/87/4 78/88/4 69/89/4 70/90/4 71/91/4 72/53/4 73/52/4 50/56/4 49/55/4 58/54/4 64/41/4 63/40/4 62/92/4 61/71/4 60/45/4 59/44/4 68/93/4 57/94/4 56/70/4 55/69/4 74/66/4 75/65/4 76/84/4 77/82/4 88/81/4 79/60/4 80/59/4 81/75/4 82/95/4 51/96/4 52/97/4 83/78/4 84/73/4 85/51/4 86/50/4 87/39/4 94/38/4 89/47/4 90/46/4
f 15/33/26 14/32/26 61/71/26 62/92/26
f 46/27/27 47/26/27 91/62/27 90/46/27
f 175/98/28 174/4/28 125/3/28 126/99/28
f 25/17/29 26/16/29 72/53/29 71/91/29
f 19/23/30 20/22/30 66/86/30 65/85/30
f 137/100/31 136/101/31 138/102/31 140/103/31 116/104/31 115/105/31
f 4/106/32 39/77/32 83/78/32 52/97/32
f 22/20/33 23/19/33 69/89/33 78/88/33
f 42/49/34 43/37/34 87/39/34 86/50/34
f 12/43/35 11/107/35 68/93/35 59/44/35
f 6/68/36 29/63/36 74/66/36 55/69/36
f 10/108/37 9/67/37 56/70/37 57/94/37
f 21/21/38 22/20/38 78/88/38 67/87/38
f 38/109/39 4/106/39 52/97/39 51/96/39
f 16/34/40 15/33/40 62/92/40 63/40/40
f 24/18/41 25/17/41 71/91/41 70/90/41
f 37/110/42 38/109/42 51/96/42 82/95/42
f 11/107/43 10/108/43 57/94/43 68/93/43
f 23/19/44 24/18/44 70/90/44 69/89/44
f 36/74/45 37/110/45 82/95/45 81/75/45
f 33/80/46 34/57/46 79/60/46 88/81/46
f 20/22/47 21/21/47 67/87/47 66/86/47
f 92/111/48 93/112/48 100/113/48 99/114/48
f 44/29/49 45/28/49 89/47/49 94/38/49
f 119/115/50 95/116/50 96/117/50
f 120/118/51 97/119/51 98/120/51
f 178/8/3 128/7/3 124/121/3 179/122/3
f 175/123/46 126/124/46 127/125/46 182/126/46
f 101/127/44 103/128/44 104/12/44 102/11/44
f 1/10/44 8/9/44 100/113/44 134/129/44 133/130/44
f 8/9/44 7/131/44 99/114/44 100/113/44
f 140/132/52 139/133/52 144/134/52 146/135/52 117/136/52 116/137/52
f 2/138/1 7/131/1 103/128/1 101/127/1
f 7/131/53 8/9/53 104/12/53 103/128/53
f 112/139/44 113/140/44 114/141/44 111/142/44
f 118/143/1 115/144/1 112/145/1 111/146/1
f 107/147/54 105/148/54 170/149/54 165/150/54
f 115/105/55 116/104/55 113/151/55 112/139/55
f 116/137/3 117/136/3 114/152/3 113/151/3
f 117/136/56 118/153/56 111/142/56 114/152/56
f 143/154/57 142/155/57 135/156/57 137/157/57 115/144/57 118/143/57
f 146/135/58 145/158/58 141/159/58 143/160/58 118/153/58 117/136/58
f 7/131/44 2/138/44 129/161/44 131/162/44 99/114/44
f 151/163/59 148/164/59 141/159/59 145/158/59
f 132/165/3 152/166/3 144/134/3 139/133/3
f 131/167/60 130/168/60 147/169/60 150/170/60 123/2/60 171/1/60 172/171/60 92/111/60 99/114/60
f 122/31/61 121/30/61 93/112/61 92/111/61
f 119/115/4 33/80/4 32/79/4 31/83/4 30/64/4 29/63/4 6/68/4 9/67/4 10/108/4 11/107/4 12/43/4 13/42/4
f 43/37/4 42/49/4 41/48/4 40/72/4 39/77/4 4/106/4 38/109/4 37/110/4 36/74/4 35/58/4 34/57/4 120/118/4
f 93/112/62 121/30/62 44/29/62 43/37/62 120/118/62 98/120/62
f 122/31/63 92/111/63 95/116/63 119/115/63 13/42/63 14/32/63
f 97/172/64 120/118/64 34/57/64 33/80/64 119/115/64 96/117/64
f 102/11/53 1/10/53 133/130/53 138/102/53 136/101/53 129/173/53 2/138/53 101/127/53
f 161/174/65 156/175/65 153/176/65 124/177/65
f 93/112/66 180/178/66 179/122/66 124/121/66 153/179/66 152/166/66 132/165/66 134/180/66 100/113/66
f 157/181/67 158/182/67 126/183/67 125/3/67
f 159/184/68 160/185/68 128/186/68 127/187/68
f 160/185/69 161/174/69 124/177/69 128/186/69
f 158/182/70 159/184/70 127/187/70 126/183/70
f 162/188/71 157/181/71 125/3/71 123/2/71
f 155/189/72 162/188/72 123/2/72 150/190/72
f 129/173/44 130/191/44 131/192/44
f 132/193/44 133/130/44 134/194/44
f 135/156/73 136/195/73 137/157/73
f 138/196/74 139/133/74 140/132/74
f 129/197/75 136/195/75 135/156/75 130/168/75
f 132/165/76 139/133/76 138/196/76 133/198/76
f 156/175/77 155/189/77 148/164/77 151/163/77
f 141/159/78 142/199/78 143/160/78
f 144/134/79 145/200/79 146/135/79
f 147/201/80 148/164/80 155/189/80 150/202/80
f 151/163/81 152/166/81 153/203/81 156/175/81
f 141/159/82 148/164/82 147/204/82 142/199/82
f 151/163/83 145/158/83 144/134/83 152/166/83
f 147/169/1 130/168/1 135/156/1 142/155/1
f 154/205/84 149/206/84 155/189/84 156/175/84
f 107/147/84 108/207/84 158/182/84 157/181/84
f 109/208/84 110/209/84 160/185/84 159/184/84
f 110/209/59 106/210/59 161/174/59 160/185/59
f 108/207/84 109/208/84 159/184/84 158/182/84
f 105/148/59 107/147/59 157/181/59 162/188/59
f 106/210/84 154/205/84 156/175/84 161/174/84
f 149/206/84 105/148/84 162/188/84 155/189/84
f 170/149/84 163/211/84 164/212/84 169/213/84 168/214/84 167/215/84 166/216/84 165/150/84
f 106/210/85 110/209/85 168/214/85 169/213/85
f 108/207/86 107/147/86 165/150/86 166/216/86
f 154/205/87 106/210/87 169/213/87 164/212/87
f 109/208/88 108/207/88 166/216/88 167/215/88
f 110/209/89 109/208/89 167/215/89 168/214/89
f 149/206/90 154/205/90 164/212/90 163/211/90
f 105/148/91 149/206/91 163/211/91 170/149/91
f 96/117/46 176/217/46 181/218/46 97/172/46
f 98/120/3 177/219/3 180/178/3 93/112/3
f 96/220/28 95/116/28 173/221/28 176/222/28
f 97/223/2 181/224/2 177/219/2 98/120/2
f 92/111/1 172/171/1 173/221/1 95/116/1
l 2 1
o Gun_cover_Cube.001
v -1.936520 0.878903 -0.800000
v 2.791056 0.878903 -0.800000
v 2.830542 2.057566 -0.800000
v -1.581148 2.057566 -0.800000
v -1.519004 2.263680 -0.593886
v 2.837447 2.263680 -0.593886
v 2.830542 2.057566 0.800000
v -1.581148 2.057566 0.800000
v -1.936520 0.878903 0.800000
v -1.519004 2.404939 0.656740
v 2.837447 2.406708 0.652604
v 2.791056 0.878903 0.954611
v -1.936520 0.878903 0.954611
v -1.581148 2.107402 0.946359
v 2.791056 0.878903 0.800000
v 2.837447 2.263680 0.593886
v 2.830542 2.117812 0.942391
v 2.837447 2.406708 -0.652604
v -1.519004 2.404939 -0.656740
v -1.581148 2.107402 -0.946359
v 2.830542 2.117812 -0.942391
v 2.791056 0.878903 -0.954611
v -1.936520 0.878903 -0.954611
v -1.519004 2.263680 0.593886
vt 0.650000 0.717795
vt 0.650000 0.532205
vt 0.650000 0.532205
vt 0.650000 0.717795
vt 0.596282 0.775000
vt 0.625000 0.775000
vt 0.625000 0.775000
vt 0.596282 0.775000
vt 0.432059 0.275000
vt 0.596282 0.275000
vt 0.596282 0.275000
vt 0.432059 0.275000
vt 0.596282 0.475000
vt 0.432059 0.475000
vt 0.432059 0.475000
vt 0.596282 0.475000
vt 0.850000 0.532205
vt 0.850000 0.717795
vt 0.850000 0.717795
vt 0.850000 0.532205
vt 0.625000 0.475000
vt 0.625000 0.475000
vt 0.625000 0.275000
vt 0.625000 0.275000
vt 0.432059 0.975000
vt 0.432059 0.775000
vt 0.432059 0.775000
vt 0.432059 0.975000
vt 0.625000 0.975000
vt 0.596282 0.975000
vt 0.596282 0.975000
vt 0.625000 0.975000
vn 1.0000 0.0000 0.0000
vn 0.9998 -0.0139 0.0140
vn -0.9581 0.2827 0.0468
vn 0.9994 -0.0326 -0.0066
vn 0.0000 -1.0000 0.0000
vn -1.0000 0.0000 -0.0000
vn 0.9998 -0.0139 -0.0140
vn -0.9849 0.1280 0.1169
vn -0.9849 0.1280 -0.1169
vn -0.9581 0.2827 -0.0468
vn 0.0004 0.0082 -1.0000
vn -0.0003 0.7029 0.7113
vn -0.0003 0.7029 -0.7113
vn 0.0004 0.0082 1.0000
vn 0.9994 -0.0326 0.0066
vn -0.0004 1.0000 -0.0000
usemtl None
s off
f 198/225/92 188/226/92 200/227/92 193/228/92
f 189/229/93 198/230/93 193/231/93 199/232/93
f 183/233/94 186/234/94 202/235/94 205/236/94
f 185/237/95 184/238/95 204/239/95 203/240/95
f 184/238/96 183/233/96 205/236/96 204/239/96
f 187/241/97 206/242/97 192/243/97 201/244/97
f 188/245/98 185/237/98 203/240/98 200/246/98
f 186/234/99 187/247/99 201/248/99 202/235/99
f 191/249/96 197/250/96 194/251/96 195/252/96
f 206/253/100 190/254/100 196/255/100 192/256/100
f 190/254/101 191/249/101 195/252/101 196/255/101
f 204/239/102 205/236/102 202/235/102 203/240/102
f 193/231/103 192/256/103 196/255/103 199/232/103
f 200/246/104 203/240/104 202/235/104 201/248/104
f 199/232/105 196/255/105 195/252/105 194/251/105
f 197/250/106 189/229/106 199/232/106 194/251/106
f 200/227/107 201/244/107 192/243/107 193/228/107
