# Blender v3.0.1 OBJ File: 'dome.blend'
# www.blender.org
mtllib hud_cilinder.mtl
o Cylinder
v -0.980785 -0.814921 -0.195090
v -0.980785 0.814921 -0.195090
v -0.923880 -0.814921 -0.382683
v -0.923880 0.814921 -0.382683
v -0.831470 -0.814921 -0.555570
v -0.831470 0.814921 -0.555570
v -0.707107 -0.814921 -0.707107
v -0.707107 0.814921 -0.707107
v -0.555570 -0.814921 -0.831469
v -0.555570 0.814921 -0.831469
v -0.382684 -0.814921 -0.923879
v -0.382684 0.814921 -0.923879
v -0.195091 -0.814921 -0.980785
v -0.195091 0.814921 -0.980785
v -0.000000 -0.814921 -1.000000
v -0.000000 0.814921 -1.000000
v 0.195090 -0.814921 -0.980785
v 0.195090 0.814921 -0.980785
v 0.382683 -0.814921 -0.923880
v 0.382683 0.814921 -0.923880
v 0.555570 -0.814921 -0.831470
v 0.555570 0.814921 -0.831470
v 0.707106 -0.814921 -0.707107
v 0.707106 0.814921 -0.707107
v 0.831469 -0.814921 -0.555571
v 0.831469 0.814921 -0.555571
v 0.923879 -0.814921 -0.382684
v 0.923879 0.814921 -0.382684
v 0.980785 -0.814921 -0.195091
v 0.980785 0.814921 -0.195091
vt 1.000500 0.000000
vt 0.929000 0.000000
vt 0.929000 1.000000
vt 1.000500 1.000000
vt 0.857500 0.000000
vt 0.857500 1.000000
vt 0.786000 0.000000
vt 0.786000 1.000000
vt 0.714500 0.000000
vt 0.714500 1.000000
vt 0.643000 0.000000
vt 0.643000 1.000000
vt 0.571500 0.000000
vt 0.571500 1.000000
vt 0.500000 0.000000
vt 0.500000 1.000000
vt 0.428500 0.000000
vt 0.428500 1.000000
vt 0.357000 0.000000
vt 0.357000 1.000000
vt 0.285500 0.000000
vt 0.285500 1.000000
vt 0.214000 0.000000
vt 0.214000 1.000000
vt 0.142500 0.000000
vt 0.142500 1.000000
vt 0.071000 0.000000
vt 0.071000 1.000000
vt -0.000500 0.000000
vt -0.000500 1.000000
vn 0.9569 0.0000 0.2903
vn 0.9239 0.0000 0.3827
vn 0.8314 0.0000 0.5556
vn 0.7071 0.0000 0.7071
vn 0.5556 0.0000 0.8314
vn 0.3827 0.0000 0.9239
vn 0.1951 0.0000 0.9808
vn 0.0000 0.0000 1.0000
vn -0.1951 0.0000 0.9808
vn -0.3827 0.0000 0.9239
vn -0.5556 0.0000 0.8314
vn -0.7071 0.0000 0.7071
vn -0.8314 0.0000 0.5556
vn -0.9239 0.0000 0.3827
vn -0.9569 0.0000 0.2903
usemtl None
s 1
f 1/1/1 3/2/2 4/3/2 2/4/1
f 3/2/2 5/5/3 6/6/3 4/3/2
f 5/5/3 7/7/4 8/8/4 6/6/3
f 7/7/4 9/9/5 10/10/5 8/8/4
f 9/9/5 11/11/6 12/12/6 10/10/5
f 11/11/6 13/13/7 14/14/7 12/12/6
f 13/13/7 15/15/8 16/16/8 14/14/7
f 15/15/8 17/17/9 18/18/9 16/16/8
f 17/17/9 19/19/10 20/20/10 18/18/9
f 19/19/10 21/21/11 22/22/11 20/20/10
f 21/21/11 23/23/12 24/24/12 22/22/11
f 23/23/12 25/25/13 26/26/13 24/24/12
f 25/25/13 27/27/14 28/28/14 26/26/13
f 27/27/14 29/29/15 30/30/15 28/28/14
