# Blender v3.0.1 OBJ File: 'simple_slot.blend'
# www.blender.org
mtllib simple_slot.mtl
o Slot_Cylinder
v 0.000000 -1.329069 -0.954728
v 0.000000 1.329069 -0.954728
v 0.186258 -1.329069 -0.936384
v 0.186258 1.329069 -0.936384
v 0.365359 -1.329069 -0.882055
v 0.365359 1.329069 -0.882055
v 0.530418 -1.329069 -0.793828
v 0.530418 1.329069 -0.793828
v 0.675093 -1.329069 -0.675093
v 0.675093 1.329069 -0.675093
v 0.793828 -1.329069 -0.530418
v 0.793828 1.329069 -0.530418
v 0.882055 -1.329069 -0.365359
v 0.882055 1.329069 -0.365359
v 0.936384 -1.329069 -0.186258
v 0.936384 1.329069 -0.186258
v 0.954728 -1.329069 0.000000
v 0.954728 1.329069 0.000000
v 0.936384 -1.329069 0.186258
v 0.936384 1.329069 0.186258
v 0.882055 -1.329069 0.365359
v 0.882055 1.329069 0.365359
v 0.793828 -1.329069 0.530418
v 0.793828 1.329069 0.530418
v 0.675093 -1.329069 0.675093
v 0.675093 1.329069 0.675093
v 0.530418 -1.329069 0.793828
v 0.530418 1.329069 0.793828
v 0.365359 -1.329069 0.882055
v 0.365359 1.329069 0.882055
v 0.186258 -1.329069 0.936384
v 0.186258 1.329069 0.936384
v -0.000000 -1.329069 0.954728
v -0.000000 1.329069 0.954728
v -0.186258 -1.329069 0.936384
v -0.186258 1.329069 0.936384
v -0.365359 -1.329069 0.882055
v -0.365359 1.329069 0.882055
v -0.530418 -1.329069 0.793828
v -0.530418 1.329069 0.793828
v -0.675093 -1.329069 0.675093
v -0.675093 1.329069 0.675093
v -0.793828 -1.329069 0.530418
v -0.793828 1.329069 0.530418
v -0.882055 -1.329069 0.365359
v -0.882055 1.329069 0.365359
v -0.936384 -1.329069 0.186258
v -0.936384 1.329069 0.186258
v -0.954728 -1.329069 -0.000000
v -0.954728 1.329069 -0.000000
v -0.936384 -1.329069 -0.186258
v -0.936384 1.329069 -0.186258
v -0.882055 -1.329069 -0.365359
v -0.882055 1.329069 -0.365359
v -0.793828 -1.329069 -0.530418
v -0.793828 1.329069 -0.530418
v -0.675094 -1.329069 -0.675093
v -0.675094 1.329069 -0.675093
v -0.530418 -1.329069 -0.793828
v -0.530418 1.329069 -0.793828
v -0.365359 -1.329069 -0.882055
v -0.365359 1.329069 -0.882055
v -0.186258 -1.329069 -0.936384
v -0.186258 1.329069 -0.936384
v 0.000000 -0.621948 -0.974369
v 0.000000 0.621948 -0.974369
v 0.190089 0.621948 -0.955646
v 0.190089 -0.621948 -0.955646
v 0.372874 0.621948 -0.900198
v 0.372874 -0.621948 -0.900198
v 0.541330 0.621948 -0.810157
v 0.541330 -0.621948 -0.810157
v 0.688981 0.621948 -0.688981
v 0.688981 -0.621948 -0.688981
v 0.810157 0.621948 -0.541330
v 0.810157 -0.621948 -0.541330
v 0.900198 0.621948 -0.372874
v 0.900198 -0.621948 -0.372874
v 0.955646 0.621948 -0.190089
v 0.955646 -0.621948 -0.190089
v 0.974330 0.621948 0.002368
v 0.974330 -0.621948 0.002368
v -0.974330 0.621948 0.002368
v -0.974330 -0.621948 0.002368
v -0.955646 0.621948 -0.190089
v -0.955646 -0.621948 -0.190089
v -0.900198 0.621948 -0.372874
v -0.900198 -0.621948 -0.372874
v -0.810157 0.621948 -0.541330
v -0.810157 -0.621948 -0.541330
v -0.688982 0.621948 -0.688981
v -0.688982 -0.621948 -0.688981
v -0.541330 0.621948 -0.810157
v -0.541330 -0.621948 -0.810157
v -0.372874 0.621948 -0.900198
v -0.372874 -0.621948 -0.900198
v -0.190089 0.621948 -0.955646
v -0.190089 -0.621948 -0.955646
v 0.000000 -1.259954 -0.902194
v 0.000000 1.259954 -0.902194
v 0.176009 -1.259954 -0.884858
v 0.176009 1.259954 -0.884858
v 0.345255 -1.259954 -0.833518
v 0.345255 1.259954 -0.833518
v 0.501232 -1.259954 -0.750147
v 0.501232 1.259954 -0.750147
v 0.637947 -1.259954 -0.637947
v 0.637947 1.259954 -0.637947
v 0.750147 -1.259954 -0.501232
v 0.750147 1.259954 -0.501232
v 0.833518 -1.259954 -0.345255
v 0.833518 1.259954 -0.345255
v 0.884858 -1.259954 -0.176009
v 0.884858 1.259954 -0.176009
v 0.902194 -1.259954 0.000000
v 0.902194 1.259954 0.000000
v 0.884858 -1.259954 0.176009
v 0.884858 1.259954 0.176009
v 0.833518 -1.259954 0.345255
v 0.833518 1.259954 0.345255
v 0.750147 -1.259954 0.501232
v 0.750147 1.259954 0.501232
v 0.637947 -1.259954 0.637947
v 0.637947 1.259954 0.637947
v 0.501232 -1.259954 0.750147
v 0.501232 1.259954 0.750147
v 0.345255 -1.259954 0.833518
v 0.345255 1.259954 0.833518
v 0.176009 -1.259954 0.884858
v 0.176009 1.259954 0.884858
v -0.000000 -1.259954 0.902194
v -0.000000 1.259954 0.902194
v -0.176009 -1.259954 0.884858
v -0.176009 1.259954 0.884858
v -0.345255 -1.259954 0.833518
v -0.345255 1.259954 0.833518
v -0.501232 -1.259954 0.750147
v -0.501232 1.259954 0.750147
v -0.637947 -1.259954 0.637947
v -0.637947 1.259954 0.637947
v -0.750147 -1.259954 0.501232
v -0.750147 1.259954 0.501232
v -0.833518 -1.259954 0.345255
v -0.833518 1.259954 0.345255
v -0.884858 -1.259954 0.176009
v -0.884858 1.259954 0.176009
v -0.902194 -1.259954 -0.000000
v -0.902194 1.259954 -0.000000
v -0.884858 -1.259954 -0.176009
v -0.884858 1.259954 -0.176009
v -0.833518 -1.259954 -0.345255
v -0.833518 1.259954 -0.345255
v -0.750147 -1.259954 -0.501232
v -0.750147 1.259954 -0.501232
v -0.637947 -1.259954 -0.637947
v -0.637947 1.259954 -0.637947
v -0.501232 -1.259954 -0.750147
v -0.501232 1.259954 -0.750147
v -0.345255 -1.259954 -0.833518
v -0.345255 1.259954 -0.833518
v -0.176009 -1.259954 -0.884858
v -0.176009 1.259954 -0.884858
v 0.000000 -0.621948 -0.902194
v 0.000000 0.621948 -0.902194
v 0.176009 0.621948 -0.884858
v 0.176009 -0.621948 -0.884858
v 0.345255 0.621948 -0.833518
v 0.345255 -0.621948 -0.833518
v 0.501232 0.621948 -0.750147
v 0.501232 -0.621948 -0.750147
v 0.637947 0.621948 -0.637947
v 0.637947 -0.621948 -0.637947
v 0.750147 0.621948 -0.501232
v 0.750147 -0.621948 -0.501232
v 0.833518 0.621948 -0.345255
v 0.833518 -0.621948 -0.345255
v 0.884858 0.621948 -0.176009
v 0.884858 -0.621948 -0.176009
v 0.902194 0.621948 0.000000
v 0.902194 -0.621948 0.000000
v -0.902194 0.621948 -0.000000
v -0.902194 -0.621948 -0.000000
v -0.884858 0.621948 -0.176009
v -0.884858 -0.621948 -0.176009
v -0.833518 0.621948 -0.345255
v -0.833518 -0.621948 -0.345255
v -0.750147 0.621948 -0.501232
v -0.750147 -0.621948 -0.501232
v -0.637947 0.621948 -0.637947
v -0.637947 -0.621948 -0.637947
v -0.501232 0.621948 -0.750147
v -0.501232 -0.621948 -0.750147
v -0.345255 0.621948 -0.833518
v -0.345255 -0.621948 -0.833518
v -0.176009 0.621948 -0.884858
v -0.176009 -0.621948 -0.884858
vt 1.000000 0.873407
vt 1.000000 1.000000
vt 0.968750 1.000000
vt 0.968750 0.873407
vt 0.937500 1.000000
vt 0.937500 0.873407
vt 0.906250 1.000000
vt 0.906250 0.873407
vt 0.875000 1.000000
vt 0.875000 0.873407
vt 0.843750 1.000000
vt 0.843750 0.873407
vt 0.812500 1.000000
vt 0.812500 0.873407
vt 0.781250 1.000000
vt 0.781250 0.873407
vt 0.750000 1.000000
vt 0.750000 0.873407
vt 0.250000 0.873407
vt 0.250000 1.000000
vt 0.218750 1.000000
vt 0.218750 0.873407
vt 0.187500 1.000000
vt 0.187500 0.873407
vt 0.156250 1.000000
vt 0.156250 0.873407
vt 0.125000 1.000000
vt 0.125000 0.873407
vt 0.093750 1.000000
vt 0.093750 0.873407
vt 0.062500 1.000000
vt 0.062500 0.873407
vt 0.031250 1.000000
vt 0.031250 0.873407
vt 0.000000 1.000000
vt 0.000000 0.873407
vt 0.031250 0.500000
vt 0.031250 0.626593
vt 0.000000 0.626593
vt 0.000000 0.500000
vt 0.062500 0.500000
vt 0.062500 0.626593
vt 0.093750 0.500000
vt 0.093750 0.626593
vt 0.125000 0.500000
vt 0.125000 0.626593
vt 0.156250 0.500000
vt 0.156250 0.626593
vt 0.187500 0.500000
vt 0.187500 0.626593
vt 0.218750 0.500000
vt 0.218750 0.626593
vt 0.250000 0.500000
vt 0.250000 0.626593
vt 0.281250 0.500000
vt 0.281250 1.000000
vt 0.312500 0.500000
vt 0.312500 1.000000
vt 0.343750 0.500000
vt 0.343750 1.000000
vt 0.375000 0.500000
vt 0.375000 1.000000
vt 0.406250 0.500000
vt 0.406250 1.000000
vt 0.437500 0.500000
vt 0.437500 1.000000
vt 0.468750 0.500000
vt 0.468750 1.000000
vt 0.500000 0.500000
vt 0.500000 1.000000
vt 0.531250 0.500000
vt 0.531250 1.000000
vt 0.562500 0.500000
vt 0.562500 1.000000
vt 0.593750 0.500000
vt 0.593750 1.000000
vt 0.625000 0.500000
vt 0.625000 1.000000
vt 0.656250 0.500000
vt 0.656250 1.000000
vt 0.687500 0.500000
vt 0.687500 1.000000
vt 0.718750 0.500000
vt 0.718750 1.000000
vt 0.750000 0.500000
vt 0.750000 0.626593
vt 0.781250 0.500000
vt 0.781250 0.626593
vt 0.812500 0.500000
vt 0.812500 0.626593
vt 0.843750 0.500000
vt 0.843750 0.626593
vt 0.875000 0.500000
vt 0.875000 0.626593
vt 0.906250 0.500000
vt 0.906250 0.626593
vt 0.937500 0.500000
vt 0.937500 0.626593
vt 0.968750 0.500000
vt 0.968750 0.626593
vt 1.000000 0.500000
vt 1.000000 0.626593
vt 1.000000 0.873407
vt 0.968750 0.873407
vt 0.968750 1.000000
vt 1.000000 1.000000
vt 0.937500 0.873407
vt 0.937500 1.000000
vt 0.906250 0.873407
vt 0.906250 1.000000
vt 0.875000 0.873407
vt 0.875000 1.000000
vt 0.843750 0.873407
vt 0.843750 1.000000
vt 0.812500 0.873407
vt 0.812500 1.000000
vt 0.781250 0.873407
vt 0.781250 1.000000
vt 0.750000 0.873407
vt 0.750000 1.000000
vt 0.250000 0.873407
vt 0.218750 0.873407
vt 0.218750 1.000000
vt 0.250000 1.000000
vt 0.187500 0.873407
vt 0.187500 1.000000
vt 0.156250 0.873407
vt 0.156250 1.000000
vt 0.125000 0.873407
vt 0.125000 1.000000
vt 0.093750 0.873407
vt 0.093750 1.000000
vt 0.062500 0.873407
vt 0.062500 1.000000
vt 0.031250 0.873407
vt 0.031250 1.000000
vt 0.000000 0.873407
vt 0.000000 1.000000
vt 0.031250 0.500000
vt 0.000000 0.500000
vt 0.000000 0.626593
vt 0.031250 0.626593
vt 0.062500 0.500000
vt 0.062500 0.626593
vt 0.093750 0.500000
vt 0.093750 0.626593
vt 0.125000 0.500000
vt 0.125000 0.626593
vt 0.156250 0.500000
vt 0.156250 0.626593
vt 0.187500 0.500000
vt 0.187500 0.626593
vt 0.218750 0.500000
vt 0.218750 0.626593
vt 0.250000 0.500000
vt 0.250000 0.626593
vt 0.281250 0.500000
vt 0.281250 1.000000
vt 0.312500 0.500000
vt 0.312500 1.000000
vt 0.343750 0.500000
vt 0.343750 1.000000
vt 0.375000 0.500000
vt 0.375000 1.000000
vt 0.406250 0.500000
vt 0.406250 1.000000
vt 0.437500 0.500000
vt 0.437500 1.000000
vt 0.468750 0.500000
vt 0.468750 1.000000
vt 0.500000 0.500000
vt 0.500000 1.000000
vt 0.531250 0.500000
vt 0.531250 1.000000
vt 0.562500 0.500000
vt 0.562500 1.000000
vt 0.593750 0.500000
vt 0.593750 1.000000
vt 0.625000 0.500000
vt 0.625000 1.000000
vt 0.656250 0.500000
vt 0.656250 1.000000
vt 0.687500 0.500000
vt 0.687500 1.000000
vt 0.718750 0.500000
vt 0.718750 1.000000
vt 0.750000 0.500000
vt 0.750000 0.626593
vt 0.781250 0.500000
vt 0.781250 0.626593
vt 0.812500 0.500000
vt 0.812500 0.626593
vt 0.843750 0.500000
vt 0.843750 0.626593
vt 0.875000 0.500000
vt 0.875000 0.626593
vt 0.906250 0.500000
vt 0.906250 0.626593
vt 0.937500 0.500000
vt 0.937500 0.626593
vt 0.968750 0.500000
vt 0.968750 0.626593
vt 1.000000 0.500000
vt 1.000000 0.626593
vn -0.0000 0.0278 -0.9996
vn 0.1950 0.0278 -0.9804
vn 0.3825 0.0278 -0.9235
vn 0.5554 0.0278 -0.8311
vn 0.7068 0.0278 -0.7068
vn 0.8311 0.0278 -0.5554
vn 0.9235 0.0278 -0.3825
vn 0.9805 0.0277 -0.1947
vn 0.9992 0.0139 0.0388
vn 0.9964 0.0093 0.0844
vn -0.9964 0.0093 0.0844
vn -0.9992 0.0139 0.0388
vn -0.9805 0.0277 -0.1947
vn -0.9235 0.0278 -0.3825
vn -0.8311 0.0278 -0.5554
vn -0.7068 0.0278 -0.7068
vn -0.5554 0.0278 -0.8311
vn -0.3825 0.0278 -0.9235
vn -0.1950 0.0278 -0.9804
vn -0.1950 -0.0278 -0.9804
vn -0.0000 -0.0278 -0.9996
vn -0.3825 -0.0278 -0.9235
vn -0.5554 -0.0278 -0.8311
vn -0.7068 -0.0278 -0.7068
vn -0.8311 -0.0278 -0.5554
vn -0.9235 -0.0278 -0.3825
vn -0.9805 -0.0277 -0.1947
vn -0.9992 -0.0139 0.0388
vn -0.9964 -0.0093 0.0844
vn -0.9725 0.0000 0.2329
vn -0.9239 0.0000 0.3827
vn -0.8315 0.0000 0.5556
vn -0.7071 0.0000 0.7071
vn -0.5556 0.0000 0.8315
vn -0.3827 0.0000 0.9239
vn -0.1951 0.0000 0.9808
vn -0.0000 0.0000 1.0000
vn 0.1951 0.0000 0.9808
vn 0.3827 0.0000 0.9239
vn 0.5556 0.0000 0.8315
vn 0.7071 0.0000 0.7071
vn 0.8315 0.0000 0.5556
vn 0.9239 0.0000 0.3827
vn 0.9725 0.0000 0.2329
vn 0.9992 -0.0139 0.0388
vn 0.9964 -0.0093 0.0844
vn 0.9805 -0.0277 -0.1947
vn 0.9235 -0.0278 -0.3825
vn 0.8311 -0.0278 -0.5554
vn 0.7068 -0.0278 -0.7068
vn 0.5554 -0.0278 -0.8311
vn 0.3825 -0.0278 -0.9235
vn 0.1950 -0.0278 -0.9804
vn 0.0000 -1.0000 0.0000
vn 0.0000 1.0000 0.0000
vn -0.9808 0.0000 0.1951
vn -0.9995 0.0000 -0.0328
vn -1.0000 0.0000 -0.0000
vn 0.9995 0.0000 -0.0328
vn 0.9808 0.0000 0.1951
vn 1.0000 0.0000 -0.0000
vn 0.9808 0.0000 -0.1951
vn 0.9239 0.0000 -0.3827
vn 0.8315 0.0000 -0.5556
vn 0.7071 0.0000 -0.7071
vn 0.5556 0.0000 -0.8315
vn 0.3827 0.0000 -0.9239
vn 0.1951 0.0000 -0.9808
vn 0.0000 0.0000 -1.0000
vn -0.1951 0.0000 -0.9808
vn -0.3827 0.0000 -0.9239
vn -0.5556 0.0000 -0.8315
vn -0.7071 0.0000 -0.7071
vn -0.8315 0.0000 -0.5556
vn -0.9239 0.0000 -0.3827
vn -0.9808 0.0000 -0.1951
vn 0.0328 0.0000 -0.9995
vn -0.0328 0.0000 -0.9995
usemtl None
s 1
f 66/1/1 2/2/1 4/3/2 67/4/2
f 67/4/2 4/3/2 6/5/3 69/6/3
f 69/6/3 6/5/3 8/7/4 71/8/4
f 71/8/4 8/7/4 10/9/5 73/10/5
f 73/10/5 10/9/5 12/11/6 75/12/6
f 75/12/6 12/11/6 14/13/7 77/14/7
f 77/14/7 14/13/7 16/15/8 79/16/8
f 79/16/8 16/15/8 18/17/9 81/18/10
f 83/19/11 50/20/12 52/21/13 85/22/13
f 85/22/13 52/21/13 54/23/14 87/24/14
f 87/24/14 54/23/14 56/25/15 89/26/15
f 89/26/15 56/25/15 58/27/16 91/28/16
f 91/28/16 58/27/16 60/29/17 93/30/17
f 93/30/17 60/29/17 62/31/18 95/32/18
f 95/32/18 62/31/18 64/33/19 97/34/19
f 97/34/19 64/33/19 2/35/1 66/36/1
f 63/37/20 98/38/20 65/39/21 1/40/21
f 61/41/22 96/42/22 98/38/20 63/37/20
f 59/43/23 94/44/23 96/42/22 61/41/22
f 57/45/24 92/46/24 94/44/23 59/43/23
f 55/47/25 90/48/25 92/46/24 57/45/24
f 53/49/26 88/50/26 90/48/25 55/47/25
f 51/51/27 86/52/27 88/50/26 53/49/26
f 49/53/28 84/54/29 86/52/27 51/51/27
f 47/55/30 48/56/30 50/20/12 83/19/11 84/54/29 49/53/28
f 45/57/31 46/58/31 48/56/30 47/55/30
f 43/59/32 44/60/32 46/58/31 45/57/31
f 41/61/33 42/62/33 44/60/32 43/59/32
f 39/63/34 40/64/34 42/62/33 41/61/33
f 37/65/35 38/66/35 40/64/34 39/63/34
f 35/67/36 36/68/36 38/66/35 37/65/35
f 33/69/37 34/70/37 36/68/36 35/67/36
f 31/71/38 32/72/38 34/70/37 33/69/37
f 29/73/39 30/74/39 32/72/38 31/71/38
f 27/75/40 28/76/40 30/74/39 29/73/39
f 25/77/41 26/78/41 28/76/40 27/75/40
f 23/79/42 24/80/42 26/78/41 25/77/41
f 21/81/43 22/82/43 24/80/42 23/79/42
f 19/83/44 20/84/44 22/82/43 21/81/43
f 17/85/45 82/86/46 81/18/10 18/17/9 20/84/44 19/83/44
f 15/87/47 80/88/47 82/86/46 17/85/45
f 13/89/48 78/90/48 80/88/47 15/87/47
f 11/91/49 76/92/49 78/90/48 13/89/48
f 9/93/50 74/94/50 76/92/49 11/91/49
f 7/95/51 72/96/51 74/94/50 9/93/50
f 5/97/52 70/98/52 72/96/51 7/95/51
f 3/99/53 68/100/53 70/98/52 5/97/52
f 1/101/21 65/102/21 68/100/53 3/99/53
f 1/40/54 3/99/54 5/97/54 7/95/54 9/93/54 11/91/54 13/89/54 15/87/54 17/85/54 19/83/54 21/81/54 23/79/54 25/77/54 27/75/54 29/73/54 31/71/54 33/69/54 35/67/54 37/65/54 39/63/54 41/61/54 43/59/54 45/57/54 47/55/54 49/53/54 51/51/54 53/49/54 55/47/54 57/45/54 59/43/54 61/41/54 63/37/54
f 4/3/55 2/35/55 64/33/55 62/31/55 60/29/55 58/27/55 56/25/55 54/23/55 52/21/55 50/20/55 48/56/55 46/58/55 44/60/55 42/62/55 40/64/55 38/66/55 36/68/55 34/70/55 32/72/55 30/74/55 28/76/55 26/78/55 24/80/55 22/82/55 20/84/55 18/17/55 16/15/55 14/13/55 12/11/55 10/9/55 8/7/55 6/5/55
f 164/103/37 165/104/36 102/105/36 100/106/37
f 165/104/36 167/107/35 104/108/35 102/105/36
f 167/107/35 169/109/34 106/110/34 104/108/35
f 169/109/34 171/111/33 108/112/33 106/110/34
f 171/111/33 173/113/32 110/114/32 108/112/33
f 173/113/32 175/115/31 112/116/31 110/114/32
f 175/115/31 177/117/56 114/118/56 112/116/31
f 177/117/56 179/119/57 116/120/58 114/118/56
f 181/121/59 183/122/60 150/123/60 148/124/61
f 183/122/60 185/125/43 152/126/43 150/123/60
f 185/125/43 187/127/42 154/128/42 152/126/43
f 187/127/42 189/129/41 156/130/41 154/128/42
f 189/129/41 191/131/40 158/132/40 156/130/41
f 191/131/40 193/133/39 160/134/39 158/132/40
f 193/133/39 195/135/38 162/136/38 160/134/39
f 195/135/38 164/137/37 100/138/37 162/136/38
f 161/139/38 99/140/37 163/141/37 196/142/38
f 159/143/39 161/139/38 196/142/38 194/144/39
f 157/145/40 159/143/39 194/144/39 192/146/40
f 155/147/41 157/145/40 192/146/40 190/148/41
f 153/149/42 155/147/41 190/148/41 188/150/42
f 151/151/43 153/149/42 188/150/42 186/152/43
f 149/153/60 151/151/43 186/152/43 184/154/60
f 147/155/61 149/153/60 184/154/60 182/156/59
f 145/157/62 147/155/61 182/156/59 181/121/59 148/124/61 146/158/62
f 143/159/63 145/157/62 146/158/62 144/160/63
f 141/161/64 143/159/63 144/160/63 142/162/64
f 139/163/65 141/161/64 142/162/64 140/164/65
f 137/165/66 139/163/65 140/164/65 138/166/66
f 135/167/67 137/165/66 138/166/66 136/168/67
f 133/169/68 135/167/67 136/168/67 134/170/68
f 131/171/69 133/169/68 134/170/68 132/172/69
f 129/173/70 131/171/69 132/172/69 130/174/70
f 127/175/71 129/173/70 130/174/70 128/176/71
f 125/177/72 127/175/71 128/176/71 126/178/72
f 123/179/73 125/177/72 126/178/72 124/180/73
f 121/181/74 123/179/73 124/180/73 122/182/74
f 119/183/75 121/181/74 122/182/74 120/184/75
f 117/185/76 119/183/75 120/184/75 118/186/76
f 115/187/58 117/185/76 118/186/76 116/120/58 179/119/57 180/188/57
f 113/189/56 115/187/58 180/188/57 178/190/56
f 111/191/31 113/189/56 178/190/56 176/192/31
f 109/193/32 111/191/31 176/192/31 174/194/32
f 107/195/33 109/193/32 174/194/32 172/196/33
f 105/197/34 107/195/33 172/196/33 170/198/34
f 103/199/35 105/197/34 170/198/34 168/200/35
f 101/201/36 103/199/35 168/200/35 166/202/36
f 99/203/37 101/201/36 166/202/36 163/204/37
f 99/140/55 161/139/55 159/143/55 157/145/55 155/147/55 153/149/55 151/151/55 149/153/55 147/155/55 145/157/55 143/159/55 141/161/55 139/163/55 137/165/55 135/167/55 133/169/55 131/171/55 129/173/55 127/175/55 125/177/55 123/179/55 121/181/55 119/183/55 117/185/55 115/187/55 113/189/55 111/191/55 109/193/55 107/195/55 105/197/55 103/199/55 101/201/55
f 102/105/54 104/108/54 106/110/54 108/112/54 110/114/54 112/116/54 114/118/54 116/120/54 118/186/54 120/184/54 122/182/54 124/180/54 126/178/54 128/176/54 130/174/54 132/172/54 134/170/54 136/168/54 138/166/54 140/164/54 142/162/54 144/160/54 146/158/54 148/124/54 150/123/54 152/126/54 154/128/54 156/130/54 158/132/54 160/134/54 162/136/54 100/138/54
f 81/18/77 82/86/77 180/188/77 179/119/77
f 84/54/78 83/19/78 181/121/78 182/156/78
f 65/39/55 98/38/55 196/142/55 163/141/55
f 97/34/54 66/36/54 164/137/54 195/135/54
f 98/38/55 96/42/55 194/144/55 196/142/55
f 95/32/54 97/34/54 195/135/54 193/133/54
f 96/42/55 94/44/55 192/146/55 194/144/55
f 93/30/54 95/32/54 193/133/54 191/131/54
f 94/44/55 92/46/55 190/148/55 192/146/55
f 91/28/54 93/30/54 191/131/54 189/129/54
f 92/46/55 90/48/55 188/150/55 190/148/55
f 89/26/54 91/28/54 189/129/54 187/127/54
f 90/48/55 88/50/55 186/152/55 188/150/55
f 87/24/54 89/26/54 187/127/54 185/125/54
f 88/50/55 86/52/55 184/154/55 186/152/55
f 85/22/54 87/24/54 185/125/54 183/122/54
f 86/52/55 84/54/55 182/156/55 184/154/55
f 83/19/54 85/22/54 183/122/54 181/121/54
f 82/86/55 80/88/55 178/190/55 180/188/55
f 79/16/54 81/18/54 179/119/54 177/117/54
f 80/88/55 78/90/55 176/192/55 178/190/55
f 77/14/54 79/16/54 177/117/54 175/115/54
f 78/90/55 76/92/55 174/194/55 176/192/55
f 75/12/54 77/14/54 175/115/54 173/113/54
f 76/92/55 74/94/55 172/196/55 174/194/55
f 73/10/54 75/12/54 173/113/54 171/111/54
f 74/94/55 72/96/55 170/198/55 172/196/55
f 71/8/54 73/10/54 171/111/54 169/109/54
f 72/96/55 70/98/55 168/200/55 170/198/55
f 69/6/54 71/8/54 169/109/54 167/107/54
f 70/98/55 68/100/55 166/202/55 168/200/55
f 67/4/54 69/6/54 167/107/54 165/104/54
f 68/100/55 65/102/55 163/204/55 166/202/55
f 66/1/54 67/4/54 165/104/54 164/103/54
