# Blender v3.0.0 OBJ File: 'ammo_pickups.blend'
# www.blender.org
mtllib gun_ammo.mtl
o Gun_ammo_Cube
v -1.863453 -1.000000 0.863453
v -1.863453 -0.863453 1.000000
v -2.000000 -0.863453 0.863453
v -1.863453 0.863453 1.000000
v -1.863453 1.000000 0.863453
v -2.000000 0.863453 0.863453
v -1.863453 -1.000000 -0.863453
v -2.000000 -0.863453 -0.863453
v -1.863453 -0.863453 -1.000000
v -1.863453 1.000000 -0.863453
v -1.863453 0.863453 -1.000000
v -2.000000 0.863453 -0.863453
v 1.863453 -1.000000 0.863453
v 2.000000 -0.863453 0.863453
v 1.863453 -0.863453 1.000000
v 1.863453 1.000000 0.863453
v 1.863453 0.863453 1.000000
v 2.000000 0.863453 0.863453
v 1.863453 -1.000000 -0.863453
v 1.863453 -0.863453 -1.000000
v 2.000000 -0.863453 -0.863453
v 1.863453 1.000000 -0.863453
v 2.000000 0.863453 -0.863453
v 1.863453 0.863453 -1.000000
vt 0.523579 0.256448
vt 0.523579 0.487104
vt 0.025793 0.487104
vt 0.025793 0.256448
vt 0.025793 0.769345
vt 0.256448 0.769345
vt 0.256448 1.000000
vt 0.025793 1.000000
vt 0.523579 0.743552
vt 0.025793 0.743551
vt 0.025793 0.512896
vt 0.523579 0.512897
vt 0.575165 0.000000
vt 0.805821 0.000000
vt 0.805820 0.230655
vt 0.575165 0.230655
vt 0.575165 0.256448
vt 0.805820 0.256448
vt 0.805820 0.754235
vt 0.575165 0.754235
vt 0.025793 0.230655
vt 0.003455 0.243552
vt 0.003456 0.500000
vt 0.549373 0.256448
vt 0.562269 0.234111
vt 0.025792 0.769345
vt 0.003455 0.756448
vt 0.523579 0.230656
vt 0.545916 0.243552
vt 0.545917 0.500000
vt 0.549372 0.754235
vt 0.562268 0.776572
vt 0.545916 0.756448
vt 0.523579 0.769345
vt 0.549372 0.230655
vt 0.549373 0.000000
vt 0.000000 0.487104
vt 0.000000 0.256448
vt 0.000000 0.743551
vt 0.000000 0.512896
vt 0.805820 0.780027
vt 0.575165 0.780027
vt 0.000000 1.000000
vt 0.000000 0.769345
vt 0.549372 0.512897
vt 0.549372 0.743552
vt 0.549372 0.256448
vt 0.549372 0.487104
vt 0.025793 0.000000
vt 0.523580 0.000001
vn 0.0000 0.0000 1.0000
vn 1.0000 0.0000 0.0000
vn 0.0000 1.0000 0.0000
vn -1.0000 0.0000 0.0000
vn 0.0000 0.0000 -1.0000
vn -0.5774 -0.5774 0.5774
vn -0.5774 0.5774 0.5774
vn -0.5774 -0.5774 -0.5774
vn -0.5774 0.5774 -0.5774
vn 0.5774 -0.5774 0.5774
vn 0.5774 0.5774 0.5774
vn 0.5774 -0.5774 -0.5774
vn 0.5774 0.5774 -0.5774
vn -0.7071 -0.7071 0.0000
vn -0.7071 0.0000 0.7071
vn -0.7071 0.7071 0.0000
vn -0.7071 0.0000 -0.7071
vn 0.0000 -0.7071 -0.7071
vn 0.0000 0.7071 -0.7071
vn 0.7071 0.0000 -0.7071
vn 0.7071 -0.7071 0.0000
vn 0.7071 0.7071 0.0000
vn 0.7071 0.0000 0.7071
vn 0.0000 -0.7071 0.7071
vn 0.0000 0.7071 0.7071
vn 0.0000 -1.0000 0.0000
usemtl None
s off
f 15/1/1 17/2/1 4/3/1 2/4/1
f 21/5/2 23/6/2 18/7/2 14/8/2
f 22/9/3 10/10/3 5/11/3 16/12/3
f 3/13/4 6/14/4 12/15/4 8/16/4
f 9/17/5 11/18/5 24/19/5 20/20/5
f 1/21/6 2/4/6 3/22/6
f 4/3/7 5/11/7 6/23/7
f 7/24/8 8/25/8 9/17/8
f 10/10/9 11/26/9 12/27/9
f 13/28/10 14/29/10 15/1/10
f 16/12/11 17/2/11 18/30/11
f 19/31/12 20/20/12 21/32/12
f 22/9/13 23/33/13 24/34/13
f 7/35/14 1/36/14 3/13/14 8/16/14
f 2/4/15 4/3/15 6/37/15 3/38/15
f 5/11/16 10/10/16 12/39/16 6/40/16
f 11/18/17 9/17/17 8/16/17 12/15/17
f 19/31/18 7/24/18 9/17/18 20/20/18
f 10/10/19 22/9/19 24/34/19 11/26/19
f 23/41/20 21/42/20 20/20/20 24/19/20
f 13/43/21 19/44/21 21/5/21 14/8/21
f 22/9/22 16/12/22 18/45/22 23/46/22
f 17/2/23 15/1/23 14/47/23 18/48/23
f 1/21/24 13/28/24 15/1/24 2/4/24
f 16/12/25 5/11/25 4/3/25 17/2/25
f 7/49/26 19/50/26 13/28/26 1/21/26
