# Blender v3.0.0 OBJ File: 'level3.blend'
# www.blender.org
mtllib level3_rotunda_room.mtl
o Rotunda_Room_Cylinder.001
v 9.274658 -0.500000 -43.026188
v 9.270449 0.000000 -37.887753
v 9.270448 0.000000 -42.109459
v 9.274658 16.000000 -43.026184
v 9.274658 0.000000 -43.026184
v 9.270449 15.170937 -37.888557
v 9.270449 15.170937 -42.111454
v 9.278847 -0.500000 -36.974232
v 9.278847 16.000000 -36.974232
v -6.721135 -0.489863 -36.961433
v -6.721135 16.010136 -36.961433
v -6.729535 15.181074 -37.875763
v -6.725324 16.010136 -43.013390
v -6.729536 0.010137 -37.874954
v -6.729536 0.010137 -42.096664
v -6.725324 -0.489863 -43.013390
v -6.725324 0.010137 -43.013390
v -6.729533 15.181074 -42.098660
vt 0.500000 0.500000
vt 0.468750 0.500000
vt 0.468750 0.500000
vt 0.473166 0.500000
vt 0.495599 0.500000
vt 0.495595 0.974092
vt 0.473155 0.974092
vt 0.468750 1.000000
vt 0.500000 1.000000
vt 0.473166 0.500000
vt 0.468750 0.500000
vt 0.468750 0.500000
vt 0.500000 0.500000
vt 0.500000 1.000000
vt 0.468750 1.000000
vt 0.473155 0.974092
vt 0.495595 0.974092
vt 0.495599 0.500000
vn 1.0000 0.0000 -0.0063
vn 1.0000 0.0000 0.0046
vn -1.0000 -0.0000 0.0063
vn -1.0000 -0.0000 -0.0046
vn -0.0006 -1.0000 0.0000
vn 0.0008 0.0001 1.0000
vn -0.0008 -0.0001 -1.0000
vn 0.0008 0.0000 1.0000
vn 0.0006 1.0000 -0.0000
vn -0.0008 0.0000 -1.0000
usemtl None
s off
f 8/1/1 1/2/1 5/3/1 3/4/1 2/5/1 6/6/1 7/7/1 4/8/1 9/9/1
f 3/4/2 5/3/2 4/8/2 7/7/2
f 15/10/3 17/11/3 16/12/3 10/13/3 11/14/3 13/15/3 18/16/3 12/17/3 14/18/3
f 15/10/4 18/16/4 13/15/4 17/11/4
f 8/1/5 10/13/5 16/12/5 1/2/5
f 3/4/6 7/7/6 18/16/6 15/10/6
f 6/6/7 2/5/7 14/18/7 12/17/7
f 8/1/8 9/9/8 11/14/8 10/13/8
f 2/5/9 3/4/9 15/10/9 14/18/9
f 9/9/9 4/8/9 13/15/9 11/14/9
f 7/7/5 6/6/5 12/17/5 18/16/5
f 4/8/10 5/3/10 1/2/10 16/12/10 17/11/10 13/15/10
