<?xml version="1.0" encoding="UTF-8" standalone="no"?>
<!-- Created with Inkscape (http://www.inkscape.org/) -->

<svg
   width="750"
   height="500.00006"
   viewBox="0 0 198.4375 132.29168"
   version="1.1"
   id="svg5"
   inkscape:version="1.1.1 (3bf5ae0d25, 2021-09-20, custom)"
   sodipodi:docname="killZone.svg"
   xmlns:inkscape="http://www.inkscape.org/namespaces/inkscape"
   xmlns:sodipodi="http://sodipodi.sourceforge.net/DTD/sodipodi-0.dtd"
   xmlns="http://www.w3.org/2000/svg"
   xmlns:svg="http://www.w3.org/2000/svg">
  <sodipodi:namedview
     id="namedview7"
     pagecolor="#505050"
     bordercolor="#ffffff"
     borderopacity="1"
     inkscape:pageshadow="0"
     inkscape:pageopacity="0"
     inkscape:pagecheckerboard="1"
     inkscape:document-units="mm"
     showgrid="false"
     units="px"
     width="250px"
     inkscape:snap-page="true"
     inkscape:snap-bbox="true"
     inkscape:snap-bbox-edge-midpoints="false"
     inkscape:snap-bbox-midpoints="true"
     inkscape:snap-object-midpoints="false"
     inkscape:zoom="1.2953002"
     inkscape:cx="282.17396"
     inkscape:cy="397.97723"
     inkscape:window-width="1920"
     inkscape:window-height="1022"
     inkscape:window-x="0"
     inkscape:window-y="28"
     inkscape:window-maximized="1"
     inkscape:current-layer="layer1"
     inkscape:bbox-nodes="true"
     fit-margin-top="0"
     fit-margin-left="0"
     fit-margin-right="0"
     fit-margin-bottom="0" />
  <defs
     id="defs2" />
  <g
     inkscape:label="Layer 1"
     inkscape:groupmode="layer"
     id="layer1"
     transform="translate(66.145836,-132.29166)">
    <path
       id="rect7182"
       style="fill:#e30000;fill-opacity:0.438094;stroke-width:0.499999;stroke-linecap:round;stroke-linejoin:round"
       d="m 66.145836,132.29166 h 66.145834 v 66.14583 H 66.145836 Z" />
    <path
       id="rect7264"
       style="fill:#e30000;fill-opacity:0.438094;stroke-width:0.499999;stroke-linecap:round;stroke-linejoin:round"
       d="m 0,132.29166 h 66.145836 v 66.14583 H 0 Z" />
    <path
       id="rect7266"
       style="fill:#e30000;fill-opacity:0.438094;stroke-width:0.499999;stroke-linecap:round;stroke-linejoin:round"
       d="M -66.145836,198.4375 H 0 v 66.14584 h -66.145836 z" />
    <path
       id="rect7268"
       style="fill:#e30000;fill-opacity:0.438094;stroke-width:0.499999;stroke-linecap:round;stroke-linejoin:round"
       d="M -66.145836,132.29166 H 0 v 66.14583 h -66.145836 z" />
    <path
       id="rect7270"
       style="fill:#e30000;fill-opacity:0.438094;stroke-width:0.499999;stroke-linecap:round;stroke-linejoin:round"
       d="m 66.145836,198.4375 h 66.145834 v 66.14584 H 66.145836 Z" />
    <path
       id="rect7272"
       style="fill:#e30000;fill-opacity:0.438094;stroke-width:0.499999;stroke-linecap:round;stroke-linejoin:round"
       d="m 0,198.4375 h 66.145836 v 66.14584 H 0 Z" />
    <g
       id="use12280"
       inkscape:tile-x0="1.0069543"
       inkscape:tile-y0="7.6704891"
       transform="translate(1.372589)">
      <g
         aria-label="KILL
ZONE"
         id="g12749"
         style="font-size:21.5421px;line-height:1.25;stroke-width:0.538554"
         transform="matrix(0.49227071,0,0,0.43441249,-33.072917,136.63)">
        <path
           d="m 9.2745754,7.6704725 h 4.0496626 v 5.7326395 l 5.837825,-5.7326395 h 4.701816 l -7.562876,7.4366535 8.341253,8.267622 h -5.069967 l -6.248051,-6.184939 v 6.184939 H 9.2745754 Z"
           style="font-weight:bold;-inkscape-font-specification:'sans-serif Bold';text-align:center;text-anchor:middle"
           id="path12733" />
        <path
           d="m 25.967599,7.6704725 h 4.049663 V 23.374748 h -4.049663 z"
           style="font-weight:bold;-inkscape-font-specification:'sans-serif Bold';text-align:center;text-anchor:middle"
           id="path12735" />
        <path
           d="m 33.982774,7.6704725 h 4.049662 V 20.313834 h 7.110577 v 3.060914 H 33.982774 Z"
           style="font-weight:bold;-inkscape-font-specification:'sans-serif Bold';text-align:center;text-anchor:middle"
           id="path12737" />
        <path
           d="m 47.709554,7.6704725 h 4.049662 V 20.313834 h 7.110577 v 3.060914 H 47.709554 Z"
           style="font-weight:bold;-inkscape-font-specification:'sans-serif Bold';text-align:center;text-anchor:middle"
           id="path12739" />
        <path
           d="M 1.2488806,42.466014 H 14.449729 v 2.450835 L 6.0243268,55.109376 H 14.691656 V 58.17029 H 1.0069527 V 55.719455 L 9.4323545,45.526928 H 1.2488806 Z"
           style="font-weight:bold;-inkscape-font-specification:'sans-serif Bold';text-align:center;text-anchor:middle"
           id="path12741" />
        <path
           d="m 24.810553,45.116703 q -1.851274,0 -2.871579,1.367418 -1.020304,1.367419 -1.020304,3.849809 0,2.471872 1.020304,3.839291 1.020305,1.367418 2.871579,1.367418 1.861793,0 2.882098,-1.367418 1.020304,-1.367419 1.020304,-3.839291 0,-2.48239 -1.020304,-3.849809 -1.020305,-1.367418 -2.882098,-1.367418 z m 0,-2.934691 q 3.786698,0 5.932493,2.166833 2.145795,2.166832 2.145795,5.985085 0,3.807735 -2.145795,5.974567 -2.145795,2.166833 -5.932493,2.166833 -3.776179,0 -5.932492,-2.166833 -2.145796,-2.166832 -2.145796,-5.974567 0,-3.818253 2.145796,-5.985085 2.156313,-2.166833 5.932492,-2.166833 z"
           style="font-weight:bold;-inkscape-font-specification:'sans-serif Bold';text-align:center;text-anchor:middle"
           id="path12743" />
        <path
           d="m 35.949753,42.466014 h 4.522999 l 5.711602,10.771051 V 42.466014 h 3.839291 V 58.17029 h -4.523 L 39.789043,47.39924 v 10.77105 h -3.83929 z"
           style="font-weight:bold;-inkscape-font-specification:'sans-serif Bold';text-align:center;text-anchor:middle"
           id="path12745" />
        <path
           d="m 53.978641,42.466014 h 10.92883 v 3.060914 H 58.028304 V 48.4511 h 6.468941 v 3.060914 h -6.468941 v 3.597362 H 65.13888 V 58.17029 H 53.978641 Z"
           style="font-weight:bold;-inkscape-font-specification:'sans-serif Bold';text-align:center;text-anchor:middle"
           id="path12747" />
      </g>
      <g
         aria-label="KILL
ZONE"
         id="g12767"
         style="font-size:21.5421px;line-height:1.25;stroke-width:0.538554"
         transform="matrix(0.49227071,0,0,0.43441249,-33.072917,165.36458)">
        <path
           d="m 9.2745754,7.6704725 h 4.0496626 v 5.7326395 l 5.837825,-5.7326395 h 4.701816 l -7.562876,7.4366535 8.341253,8.267622 h -5.069967 l -6.248051,-6.184939 v 6.184939 H 9.2745754 Z"
           style="font-weight:bold;-inkscape-font-specification:'sans-serif Bold';text-align:center;text-anchor:middle"
           id="path12751" />
        <path
           d="m 25.967599,7.6704725 h 4.049663 V 23.374748 h -4.049663 z"
           style="font-weight:bold;-inkscape-font-specification:'sans-serif Bold';text-align:center;text-anchor:middle"
           id="path12753" />
        <path
           d="m 33.982774,7.6704725 h 4.049662 V 20.313834 h 7.110577 v 3.060914 H 33.982774 Z"
           style="font-weight:bold;-inkscape-font-specification:'sans-serif Bold';text-align:center;text-anchor:middle"
           id="path12755" />
        <path
           d="m 47.709554,7.6704725 h 4.049662 V 20.313834 h 7.110577 v 3.060914 H 47.709554 Z"
           style="font-weight:bold;-inkscape-font-specification:'sans-serif Bold';text-align:center;text-anchor:middle"
           id="path12757" />
        <path
           d="M 1.2488806,42.466014 H 14.449729 v 2.450835 L 6.0243268,55.109376 H 14.691656 V 58.17029 H 1.0069527 V 55.719455 L 9.4323545,45.526928 H 1.2488806 Z"
           style="font-weight:bold;-inkscape-font-specification:'sans-serif Bold';text-align:center;text-anchor:middle"
           id="path12759" />
        <path
           d="m 24.810553,45.116703 q -1.851274,0 -2.871579,1.367418 -1.020304,1.367419 -1.020304,3.849809 0,2.471872 1.020304,3.839291 1.020305,1.367418 2.871579,1.367418 1.861793,0 2.882098,-1.367418 1.020304,-1.367419 1.020304,-3.839291 0,-2.48239 -1.020304,-3.849809 -1.020305,-1.367418 -2.882098,-1.367418 z m 0,-2.934691 q 3.786698,0 5.932493,2.166833 2.145795,2.166832 2.145795,5.985085 0,3.807735 -2.145795,5.974567 -2.145795,2.166833 -5.932493,2.166833 -3.776179,0 -5.932492,-2.166833 -2.145796,-2.166832 -2.145796,-5.974567 0,-3.818253 2.145796,-5.985085 2.156313,-2.166833 5.932492,-2.166833 z"
           style="font-weight:bold;-inkscape-font-specification:'sans-serif Bold';text-align:center;text-anchor:middle"
           id="path12761" />
        <path
           d="m 35.949753,42.466014 h 4.522999 l 5.711602,10.771051 V 42.466014 h 3.839291 V 58.17029 h -4.523 L 39.789043,47.39924 v 10.77105 h -3.83929 z"
           style="font-weight:bold;-inkscape-font-specification:'sans-serif Bold';text-align:center;text-anchor:middle"
           id="path12763" />
        <path
           d="m 53.978641,42.466014 h 10.92883 v 3.060914 H 58.028304 V 48.4511 h 6.468941 v 3.060914 h -6.468941 v 3.597362 H 65.13888 V 58.17029 H 53.978641 Z"
           style="font-weight:bold;-inkscape-font-specification:'sans-serif Bold';text-align:center;text-anchor:middle"
           id="path12765" />
      </g>
      <g
         aria-label="KILL
ZONE"
         id="g12785"
         style="font-size:21.5421px;line-height:1.25;stroke-width:0.538554"
         transform="matrix(0.49227071,0,0,0.43441249,-65.634575,136.63)">
        <path
           d="m 9.2745754,7.6704725 h 4.0496626 v 5.7326395 l 5.837825,-5.7326395 h 4.701816 l -7.562876,7.4366535 8.341253,8.267622 h -5.069967 l -6.248051,-6.184939 v 6.184939 H 9.2745754 Z"
           style="font-weight:bold;-inkscape-font-specification:'sans-serif Bold';text-align:center;text-anchor:middle"
           id="path12769" />
        <path
           d="m 25.967599,7.6704725 h 4.049663 V 23.374748 h -4.049663 z"
           style="font-weight:bold;-inkscape-font-specification:'sans-serif Bold';text-align:center;text-anchor:middle"
           id="path12771" />
        <path
           d="m 33.982774,7.6704725 h 4.049662 V 20.313834 h 7.110577 v 3.060914 H 33.982774 Z"
           style="font-weight:bold;-inkscape-font-specification:'sans-serif Bold';text-align:center;text-anchor:middle"
           id="path12773" />
        <path
           d="m 47.709554,7.6704725 h 4.049662 V 20.313834 h 7.110577 v 3.060914 H 47.709554 Z"
           style="font-weight:bold;-inkscape-font-specification:'sans-serif Bold';text-align:center;text-anchor:middle"
           id="path12775" />
        <path
           d="M 1.2488806,42.466014 H 14.449729 v 2.450835 L 6.0243268,55.109376 H 14.691656 V 58.17029 H 1.0069527 V 55.719455 L 9.4323545,45.526928 H 1.2488806 Z"
           style="font-weight:bold;-inkscape-font-specification:'sans-serif Bold';text-align:center;text-anchor:middle"
           id="path12777" />
        <path
           d="m 24.810553,45.116703 q -1.851274,0 -2.871579,1.367418 -1.020304,1.367419 -1.020304,3.849809 0,2.471872 1.020304,3.839291 1.020305,1.367418 2.871579,1.367418 1.861793,0 2.882098,-1.367418 1.020304,-1.367419 1.020304,-3.839291 0,-2.48239 -1.020304,-3.849809 -1.020305,-1.367418 -2.882098,-1.367418 z m 0,-2.934691 q 3.786698,0 5.932493,2.166833 2.145795,2.166832 2.145795,5.985085 0,3.807735 -2.145795,5.974567 -2.145795,2.166833 -5.932493,2.166833 -3.776179,0 -5.932492,-2.166833 -2.145796,-2.166832 -2.145796,-5.974567 0,-3.818253 2.145796,-5.985085 2.156313,-2.166833 5.932492,-2.166833 z"
           style="font-weight:bold;-inkscape-font-specification:'sans-serif Bold';text-align:center;text-anchor:middle"
           id="path12779" />
        <path
           d="m 35.949753,42.466014 h 4.522999 l 5.711602,10.771051 V 42.466014 h 3.839291 V 58.17029 h -4.523 L 39.789043,47.39924 v 10.77105 h -3.83929 z"
           style="font-weight:bold;-inkscape-font-specification:'sans-serif Bold';text-align:center;text-anchor:middle"
           id="path12781" />
        <path
           d="m 53.978641,42.466014 h 10.92883 v 3.060914 H 58.028304 V 48.4511 h 6.468941 v 3.060914 h -6.468941 v 3.597362 H 65.13888 V 58.17029 H 53.978641 Z"
           style="font-weight:bold;-inkscape-font-specification:'sans-serif Bold';text-align:center;text-anchor:middle"
           id="path12783" />
      </g>
      <g
         aria-label="KILL
ZONE"
         id="g12803"
         style="font-size:21.5421px;line-height:1.25;stroke-width:0.538554"
         transform="matrix(0.49227071,0,0,0.43441249,-65.634575,165.36458)">
        <path
           d="m 9.2745754,7.6704725 h 4.0496626 v 5.7326395 l 5.837825,-5.7326395 h 4.701816 l -7.562876,7.4366535 8.341253,8.267622 h -5.069967 l -6.248051,-6.184939 v 6.184939 H 9.2745754 Z"
           style="font-weight:bold;-inkscape-font-specification:'sans-serif Bold';text-align:center;text-anchor:middle"
           id="path12787" />
        <path
           d="m 25.967599,7.6704725 h 4.049663 V 23.374748 h -4.049663 z"
           style="font-weight:bold;-inkscape-font-specification:'sans-serif Bold';text-align:center;text-anchor:middle"
           id="path12789" />
        <path
           d="m 33.982774,7.6704725 h 4.049662 V 20.313834 h 7.110577 v 3.060914 H 33.982774 Z"
           style="font-weight:bold;-inkscape-font-specification:'sans-serif Bold';text-align:center;text-anchor:middle"
           id="path12791" />
        <path
           d="m 47.709554,7.6704725 h 4.049662 V 20.313834 h 7.110577 v 3.060914 H 47.709554 Z"
           style="font-weight:bold;-inkscape-font-specification:'sans-serif Bold';text-align:center;text-anchor:middle"
           id="path12793" />
        <path
           d="M 1.2488806,42.466014 H 14.449729 v 2.450835 L 6.0243268,55.109376 H 14.691656 V 58.17029 H 1.0069527 V 55.719455 L 9.4323545,45.526928 H 1.2488806 Z"
           style="font-weight:bold;-inkscape-font-specification:'sans-serif Bold';text-align:center;text-anchor:middle"
           id="path12795" />
        <path
           d="m 24.810553,45.116703 q -1.851274,0 -2.871579,1.367418 -1.020304,1.367419 -1.020304,3.849809 0,2.471872 1.020304,3.839291 1.020305,1.367418 2.871579,1.367418 1.861793,0 2.882098,-1.367418 1.020304,-1.367419 1.020304,-3.839291 0,-2.48239 -1.020304,-3.849809 -1.020305,-1.367418 -2.882098,-1.367418 z m 0,-2.934691 q 3.786698,0 5.932493,2.166833 2.145795,2.166832 2.145795,5.985085 0,3.807735 -2.145795,5.974567 -2.145795,2.166833 -5.932493,2.166833 -3.776179,0 -5.932492,-2.166833 -2.145796,-2.166832 -2.145796,-5.974567 0,-3.818253 2.145796,-5.985085 2.156313,-2.166833 5.932492,-2.166833 z"
           style="font-weight:bold;-inkscape-font-specification:'sans-serif Bold';text-align:center;text-anchor:middle"
           id="path12797" />
        <path
           d="m 35.949753,42.466014 h 4.522999 l 5.711602,10.771051 V 42.466014 h 3.839291 V 58.17029 h -4.523 L 39.789043,47.39924 v 10.77105 h -3.83929 z"
           style="font-weight:bold;-inkscape-font-specification:'sans-serif Bold';text-align:center;text-anchor:middle"
           id="path12799" />
        <path
           d="m 53.978641,42.466014 h 10.92883 v 3.060914 H 58.028304 V 48.4511 h 6.468941 v 3.060914 h -6.468941 v 3.597362 H 65.13888 V 58.17029 H 53.978641 Z"
           style="font-weight:bold;-inkscape-font-specification:'sans-serif Bold';text-align:center;text-anchor:middle"
           id="path12801" />
      </g>
    </g>
    <g
       id="use12282"
       inkscape:tile-x0="1.0069543"
       inkscape:tile-y0="7.6704891"
       transform="translate(1.372589,66.145853)">
      <g
         aria-label="KILL
ZONE"
         id="g12675"
         style="font-size:21.5421px;line-height:1.25;stroke-width:0.538554"
         transform="matrix(0.49227071,0,0,0.43441249,-33.072917,136.63)">
        <path
           d="m 9.2745754,7.6704725 h 4.0496626 v 5.7326395 l 5.837825,-5.7326395 h 4.701816 l -7.562876,7.4366535 8.341253,8.267622 h -5.069967 l -6.248051,-6.184939 v 6.184939 H 9.2745754 Z"
           style="font-weight:bold;-inkscape-font-specification:'sans-serif Bold';text-align:center;text-anchor:middle"
           id="path12659" />
        <path
           d="m 25.967599,7.6704725 h 4.049663 V 23.374748 h -4.049663 z"
           style="font-weight:bold;-inkscape-font-specification:'sans-serif Bold';text-align:center;text-anchor:middle"
           id="path12661" />
        <path
           d="m 33.982774,7.6704725 h 4.049662 V 20.313834 h 7.110577 v 3.060914 H 33.982774 Z"
           style="font-weight:bold;-inkscape-font-specification:'sans-serif Bold';text-align:center;text-anchor:middle"
           id="path12663" />
        <path
           d="m 47.709554,7.6704725 h 4.049662 V 20.313834 h 7.110577 v 3.060914 H 47.709554 Z"
           style="font-weight:bold;-inkscape-font-specification:'sans-serif Bold';text-align:center;text-anchor:middle"
           id="path12665" />
        <path
           d="M 1.2488806,42.466014 H 14.449729 v 2.450835 L 6.0243268,55.109376 H 14.691656 V 58.17029 H 1.0069527 V 55.719455 L 9.4323545,45.526928 H 1.2488806 Z"
           style="font-weight:bold;-inkscape-font-specification:'sans-serif Bold';text-align:center;text-anchor:middle"
           id="path12667" />
        <path
           d="m 24.810553,45.116703 q -1.851274,0 -2.871579,1.367418 -1.020304,1.367419 -1.020304,3.849809 0,2.471872 1.020304,3.839291 1.020305,1.367418 2.871579,1.367418 1.861793,0 2.882098,-1.367418 1.020304,-1.367419 1.020304,-3.839291 0,-2.48239 -1.020304,-3.849809 -1.020305,-1.367418 -2.882098,-1.367418 z m 0,-2.934691 q 3.786698,0 5.932493,2.166833 2.145795,2.166832 2.145795,5.985085 0,3.807735 -2.145795,5.974567 -2.145795,2.166833 -5.932493,2.166833 -3.776179,0 -5.932492,-2.166833 -2.145796,-2.166832 -2.145796,-5.974567 0,-3.818253 2.145796,-5.985085 2.156313,-2.166833 5.932492,-2.166833 z"
           style="font-weight:bold;-inkscape-font-specification:'sans-serif Bold';text-align:center;text-anchor:middle"
           id="path12669" />
        <path
           d="m 35.949753,42.466014 h 4.522999 l 5.711602,10.771051 V 42.466014 h 3.839291 V 58.17029 h -4.523 L 39.789043,47.39924 v 10.77105 h -3.83929 z"
           style="font-weight:bold;-inkscape-font-specification:'sans-serif Bold';text-align:center;text-anchor:middle"
           id="path12671" />
        <path
           d="m 53.978641,42.466014 h 10.92883 v 3.060914 H 58.028304 V 48.4511 h 6.468941 v 3.060914 h -6.468941 v 3.597362 H 65.13888 V 58.17029 H 53.978641 Z"
           style="font-weight:bold;-inkscape-font-specification:'sans-serif Bold';text-align:center;text-anchor:middle"
           id="path12673" />
      </g>
      <g
         aria-label="KILL
ZONE"
         id="g12693"
         style="font-size:21.5421px;line-height:1.25;stroke-width:0.538554"
         transform="matrix(0.49227071,0,0,0.43441249,-33.072917,165.36458)">
        <path
           d="m 9.2745754,7.6704725 h 4.0496626 v 5.7326395 l 5.837825,-5.7326395 h 4.701816 l -7.562876,7.4366535 8.341253,8.267622 h -5.069967 l -6.248051,-6.184939 v 6.184939 H 9.2745754 Z"
           style="font-weight:bold;-inkscape-font-specification:'sans-serif Bold';text-align:center;text-anchor:middle"
           id="path12677" />
        <path
           d="m 25.967599,7.6704725 h 4.049663 V 23.374748 h -4.049663 z"
           style="font-weight:bold;-inkscape-font-specification:'sans-serif Bold';text-align:center;text-anchor:middle"
           id="path12679" />
        <path
           d="m 33.982774,7.6704725 h 4.049662 V 20.313834 h 7.110577 v 3.060914 H 33.982774 Z"
           style="font-weight:bold;-inkscape-font-specification:'sans-serif Bold';text-align:center;text-anchor:middle"
           id="path12681" />
        <path
           d="m 47.709554,7.6704725 h 4.049662 V 20.313834 h 7.110577 v 3.060914 H 47.709554 Z"
           style="font-weight:bold;-inkscape-font-specification:'sans-serif Bold';text-align:center;text-anchor:middle"
           id="path12683" />
        <path
           d="M 1.2488806,42.466014 H 14.449729 v 2.450835 L 6.0243268,55.109376 H 14.691656 V 58.17029 H 1.0069527 V 55.719455 L 9.4323545,45.526928 H 1.2488806 Z"
           style="font-weight:bold;-inkscape-font-specification:'sans-serif Bold';text-align:center;text-anchor:middle"
           id="path12685" />
        <path
           d="m 24.810553,45.116703 q -1.851274,0 -2.871579,1.367418 -1.020304,1.367419 -1.020304,3.849809 0,2.471872 1.020304,3.839291 1.020305,1.367418 2.871579,1.367418 1.861793,0 2.882098,-1.367418 1.020304,-1.367419 1.020304,-3.839291 0,-2.48239 -1.020304,-3.849809 -1.020305,-1.367418 -2.882098,-1.367418 z m 0,-2.934691 q 3.786698,0 5.932493,2.166833 2.145795,2.166832 2.145795,5.985085 0,3.807735 -2.145795,5.974567 -2.145795,2.166833 -5.932493,2.166833 -3.776179,0 -5.932492,-2.166833 -2.145796,-2.166832 -2.145796,-5.974567 0,-3.818253 2.145796,-5.985085 2.156313,-2.166833 5.932492,-2.166833 z"
           style="font-weight:bold;-inkscape-font-specification:'sans-serif Bold';text-align:center;text-anchor:middle"
           id="path12687" />
        <path
           d="m 35.949753,42.466014 h 4.522999 l 5.711602,10.771051 V 42.466014 h 3.839291 V 58.17029 h -4.523 L 39.789043,47.39924 v 10.77105 h -3.83929 z"
           style="font-weight:bold;-inkscape-font-specification:'sans-serif Bold';text-align:center;text-anchor:middle"
           id="path12689" />
        <path
           d="m 53.978641,42.466014 h 10.92883 v 3.060914 H 58.028304 V 48.4511 h 6.468941 v 3.060914 h -6.468941 v 3.597362 H 65.13888 V 58.17029 H 53.978641 Z"
           style="font-weight:bold;-inkscape-font-specification:'sans-serif Bold';text-align:center;text-anchor:middle"
           id="path12691" />
      </g>
      <g
         aria-label="KILL
ZONE"
         id="g12711"
         style="font-size:21.5421px;line-height:1.25;stroke-width:0.538554"
         transform="matrix(0.49227071,0,0,0.43441249,-65.634575,136.63)">
        <path
           d="m 9.2745754,7.6704725 h 4.0496626 v 5.7326395 l 5.837825,-5.7326395 h 4.701816 l -7.562876,7.4366535 8.341253,8.267622 h -5.069967 l -6.248051,-6.184939 v 6.184939 H 9.2745754 Z"
           style="font-weight:bold;-inkscape-font-specification:'sans-serif Bold';text-align:center;text-anchor:middle"
           id="path12695" />
        <path
           d="m 25.967599,7.6704725 h 4.049663 V 23.374748 h -4.049663 z"
           style="font-weight:bold;-inkscape-font-specification:'sans-serif Bold';text-align:center;text-anchor:middle"
           id="path12697" />
        <path
           d="m 33.982774,7.6704725 h 4.049662 V 20.313834 h 7.110577 v 3.060914 H 33.982774 Z"
           style="font-weight:bold;-inkscape-font-specification:'sans-serif Bold';text-align:center;text-anchor:middle"
           id="path12699" />
        <path
           d="m 47.709554,7.6704725 h 4.049662 V 20.313834 h 7.110577 v 3.060914 H 47.709554 Z"
           style="font-weight:bold;-inkscape-font-specification:'sans-serif Bold';text-align:center;text-anchor:middle"
           id="path12701" />
        <path
           d="M 1.2488806,42.466014 H 14.449729 v 2.450835 L 6.0243268,55.109376 H 14.691656 V 58.17029 H 1.0069527 V 55.719455 L 9.4323545,45.526928 H 1.2488806 Z"
           style="font-weight:bold;-inkscape-font-specification:'sans-serif Bold';text-align:center;text-anchor:middle"
           id="path12703" />
        <path
           d="m 24.810553,45.116703 q -1.851274,0 -2.871579,1.367418 -1.020304,1.367419 -1.020304,3.849809 0,2.471872 1.020304,3.839291 1.020305,1.367418 2.871579,1.367418 1.861793,0 2.882098,-1.367418 1.020304,-1.367419 1.020304,-3.839291 0,-2.48239 -1.020304,-3.849809 -1.020305,-1.367418 -2.882098,-1.367418 z m 0,-2.934691 q 3.786698,0 5.932493,2.166833 2.145795,2.166832 2.145795,5.985085 0,3.807735 -2.145795,5.974567 -2.145795,2.166833 -5.932493,2.166833 -3.776179,0 -5.932492,-2.166833 -2.145796,-2.166832 -2.145796,-5.974567 0,-3.818253 2.145796,-5.985085 2.156313,-2.166833 5.932492,-2.166833 z"
           style="font-weight:bold;-inkscape-font-specification:'sans-serif Bold';text-align:center;text-anchor:middle"
           id="path12705" />
        <path
           d="m 35.949753,42.466014 h 4.522999 l 5.711602,10.771051 V 42.466014 h 3.839291 V 58.17029 h -4.523 L 39.789043,47.39924 v 10.77105 h -3.83929 z"
           style="font-weight:bold;-inkscape-font-specification:'sans-serif Bold';text-align:center;text-anchor:middle"
           id="path12707" />
        <path
           d="m 53.978641,42.466014 h 10.92883 v 3.060914 H 58.028304 V 48.4511 h 6.468941 v 3.060914 h -6.468941 v 3.597362 H 65.13888 V 58.17029 H 53.978641 Z"
           style="font-weight:bold;-inkscape-font-specification:'sans-serif Bold';text-align:center;text-anchor:middle"
           id="path12709" />
      </g>
      <g
         aria-label="KILL
ZONE"
         id="g12729"
         style="font-size:21.5421px;line-height:1.25;stroke-width:0.538554"
         transform="matrix(0.49227071,0,0,0.43441249,-65.634575,165.36458)">
        <path
           d="m 9.2745754,7.6704725 h 4.0496626 v 5.7326395 l 5.837825,-5.7326395 h 4.701816 l -7.562876,7.4366535 8.341253,8.267622 h -5.069967 l -6.248051,-6.184939 v 6.184939 H 9.2745754 Z"
           style="font-weight:bold;-inkscape-font-specification:'sans-serif Bold';text-align:center;text-anchor:middle"
           id="path12713" />
        <path
           d="m 25.967599,7.6704725 h 4.049663 V 23.374748 h -4.049663 z"
           style="font-weight:bold;-inkscape-font-specification:'sans-serif Bold';text-align:center;text-anchor:middle"
           id="path12715" />
        <path
           d="m 33.982774,7.6704725 h 4.049662 V 20.313834 h 7.110577 v 3.060914 H 33.982774 Z"
           style="font-weight:bold;-inkscape-font-specification:'sans-serif Bold';text-align:center;text-anchor:middle"
           id="path12717" />
        <path
           d="m 47.709554,7.6704725 h 4.049662 V 20.313834 h 7.110577 v 3.060914 H 47.709554 Z"
           style="font-weight:bold;-inkscape-font-specification:'sans-serif Bold';text-align:center;text-anchor:middle"
           id="path12719" />
        <path
           d="M 1.2488806,42.466014 H 14.449729 v 2.450835 L 6.0243268,55.109376 H 14.691656 V 58.17029 H 1.0069527 V 55.719455 L 9.4323545,45.526928 H 1.2488806 Z"
           style="font-weight:bold;-inkscape-font-specification:'sans-serif Bold';text-align:center;text-anchor:middle"
           id="path12721" />
        <path
           d="m 24.810553,45.116703 q -1.851274,0 -2.871579,1.367418 -1.020304,1.367419 -1.020304,3.849809 0,2.471872 1.020304,3.839291 1.020305,1.367418 2.871579,1.367418 1.861793,0 2.882098,-1.367418 1.020304,-1.367419 1.020304,-3.839291 0,-2.48239 -1.020304,-3.849809 -1.020305,-1.367418 -2.882098,-1.367418 z m 0,-2.934691 q 3.786698,0 5.932493,2.166833 2.145795,2.166832 2.145795,5.985085 0,3.807735 -2.145795,5.974567 -2.145795,2.166833 -5.932493,2.166833 -3.776179,0 -5.932492,-2.166833 -2.145796,-2.166832 -2.145796,-5.974567 0,-3.818253 2.145796,-5.985085 2.156313,-2.166833 5.932492,-2.166833 z"
           style="font-weight:bold;-inkscape-font-specification:'sans-serif Bold';text-align:center;text-anchor:middle"
           id="path12723" />
        <path
           d="m 35.949753,42.466014 h 4.522999 l 5.711602,10.771051 V 42.466014 h 3.839291 V 58.17029 h -4.523 L 39.789043,47.39924 v 10.77105 h -3.83929 z"
           style="font-weight:bold;-inkscape-font-specification:'sans-serif Bold';text-align:center;text-anchor:middle"
           id="path12725" />
        <path
           d="m 53.978641,42.466014 h 10.92883 v 3.060914 H 58.028304 V 48.4511 h 6.468941 v 3.060914 h -6.468941 v 3.597362 H 65.13888 V 58.17029 H 53.978641 Z"
           style="font-weight:bold;-inkscape-font-specification:'sans-serif Bold';text-align:center;text-anchor:middle"
           id="path12727" />
      </g>
    </g>
    <g
       id="use12284"
       inkscape:tile-x0="1.0069543"
       inkscape:tile-y0="7.6704891"
       transform="translate(66.145836)">
      <g
         aria-label="KILL
ZONE"
         id="g12601"
         style="font-size:21.5421px;line-height:1.25;stroke-width:0.538554"
         transform="matrix(0.49227071,0,0,0.43441249,-33.072917,136.63)">
        <path
           d="m 9.2745754,7.6704725 h 4.0496626 v 5.7326395 l 5.837825,-5.7326395 h 4.701816 l -7.562876,7.4366535 8.341253,8.267622 h -5.069967 l -6.248051,-6.184939 v 6.184939 H 9.2745754 Z"
           style="font-weight:bold;-inkscape-font-specification:'sans-serif Bold';text-align:center;text-anchor:middle"
           id="path12585" />
        <path
           d="m 25.967599,7.6704725 h 4.049663 V 23.374748 h -4.049663 z"
           style="font-weight:bold;-inkscape-font-specification:'sans-serif Bold';text-align:center;text-anchor:middle"
           id="path12587" />
        <path
           d="m 33.982774,7.6704725 h 4.049662 V 20.313834 h 7.110577 v 3.060914 H 33.982774 Z"
           style="font-weight:bold;-inkscape-font-specification:'sans-serif Bold';text-align:center;text-anchor:middle"
           id="path12589" />
        <path
           d="m 47.709554,7.6704725 h 4.049662 V 20.313834 h 7.110577 v 3.060914 H 47.709554 Z"
           style="font-weight:bold;-inkscape-font-specification:'sans-serif Bold';text-align:center;text-anchor:middle"
           id="path12591" />
        <path
           d="M 1.2488806,42.466014 H 14.449729 v 2.450835 L 6.0243268,55.109376 H 14.691656 V 58.17029 H 1.0069527 V 55.719455 L 9.4323545,45.526928 H 1.2488806 Z"
           style="font-weight:bold;-inkscape-font-specification:'sans-serif Bold';text-align:center;text-anchor:middle"
           id="path12593" />
        <path
           d="m 24.810553,45.116703 q -1.851274,0 -2.871579,1.367418 -1.020304,1.367419 -1.020304,3.849809 0,2.471872 1.020304,3.839291 1.020305,1.367418 2.871579,1.367418 1.861793,0 2.882098,-1.367418 1.020304,-1.367419 1.020304,-3.839291 0,-2.48239 -1.020304,-3.849809 -1.020305,-1.367418 -2.882098,-1.367418 z m 0,-2.934691 q 3.786698,0 5.932493,2.166833 2.145795,2.166832 2.145795,5.985085 0,3.807735 -2.145795,5.974567 -2.145795,2.166833 -5.932493,2.166833 -3.776179,0 -5.932492,-2.166833 -2.145796,-2.166832 -2.145796,-5.974567 0,-3.818253 2.145796,-5.985085 2.156313,-2.166833 5.932492,-2.166833 z"
           style="font-weight:bold;-inkscape-font-specification:'sans-serif Bold';text-align:center;text-anchor:middle"
           id="path12595" />
        <path
           d="m 35.949753,42.466014 h 4.522999 l 5.711602,10.771051 V 42.466014 h 3.839291 V 58.17029 h -4.523 L 39.789043,47.39924 v 10.77105 h -3.83929 z"
           style="font-weight:bold;-inkscape-font-specification:'sans-serif Bold';text-align:center;text-anchor:middle"
           id="path12597" />
        <path
           d="m 53.978641,42.466014 h 10.92883 v 3.060914 H 58.028304 V 48.4511 h 6.468941 v 3.060914 h -6.468941 v 3.597362 H 65.13888 V 58.17029 H 53.978641 Z"
           style="font-weight:bold;-inkscape-font-specification:'sans-serif Bold';text-align:center;text-anchor:middle"
           id="path12599" />
      </g>
      <g
         aria-label="KILL
ZONE"
         id="g12619"
         style="font-size:21.5421px;line-height:1.25;stroke-width:0.538554"
         transform="matrix(0.49227071,0,0,0.43441249,-33.072917,165.36458)">
        <path
           d="m 9.2745754,7.6704725 h 4.0496626 v 5.7326395 l 5.837825,-5.7326395 h 4.701816 l -7.562876,7.4366535 8.341253,8.267622 h -5.069967 l -6.248051,-6.184939 v 6.184939 H 9.2745754 Z"
           style="font-weight:bold;-inkscape-font-specification:'sans-serif Bold';text-align:center;text-anchor:middle"
           id="path12603" />
        <path
           d="m 25.967599,7.6704725 h 4.049663 V 23.374748 h -4.049663 z"
           style="font-weight:bold;-inkscape-font-specification:'sans-serif Bold';text-align:center;text-anchor:middle"
           id="path12605" />
        <path
           d="m 33.982774,7.6704725 h 4.049662 V 20.313834 h 7.110577 v 3.060914 H 33.982774 Z"
           style="font-weight:bold;-inkscape-font-specification:'sans-serif Bold';text-align:center;text-anchor:middle"
           id="path12607" />
        <path
           d="m 47.709554,7.6704725 h 4.049662 V 20.313834 h 7.110577 v 3.060914 H 47.709554 Z"
           style="font-weight:bold;-inkscape-font-specification:'sans-serif Bold';text-align:center;text-anchor:middle"
           id="path12609" />
        <path
           d="M 1.2488806,42.466014 H 14.449729 v 2.450835 L 6.0243268,55.109376 H 14.691656 V 58.17029 H 1.0069527 V 55.719455 L 9.4323545,45.526928 H 1.2488806 Z"
           style="font-weight:bold;-inkscape-font-specification:'sans-serif Bold';text-align:center;text-anchor:middle"
           id="path12611" />
        <path
           d="m 24.810553,45.116703 q -1.851274,0 -2.871579,1.367418 -1.020304,1.367419 -1.020304,3.849809 0,2.471872 1.020304,3.839291 1.020305,1.367418 2.871579,1.367418 1.861793,0 2.882098,-1.367418 1.020304,-1.367419 1.020304,-3.839291 0,-2.48239 -1.020304,-3.849809 -1.020305,-1.367418 -2.882098,-1.367418 z m 0,-2.934691 q 3.786698,0 5.932493,2.166833 2.145795,2.166832 2.145795,5.985085 0,3.807735 -2.145795,5.974567 -2.145795,2.166833 -5.932493,2.166833 -3.776179,0 -5.932492,-2.166833 -2.145796,-2.166832 -2.145796,-5.974567 0,-3.818253 2.145796,-5.985085 2.156313,-2.166833 5.932492,-2.166833 z"
           style="font-weight:bold;-inkscape-font-specification:'sans-serif Bold';text-align:center;text-anchor:middle"
           id="path12613" />
        <path
           d="m 35.949753,42.466014 h 4.522999 l 5.711602,10.771051 V 42.466014 h 3.839291 V 58.17029 h -4.523 L 39.789043,47.39924 v 10.77105 h -3.83929 z"
           style="font-weight:bold;-inkscape-font-specification:'sans-serif Bold';text-align:center;text-anchor:middle"
           id="path12615" />
        <path
           d="m 53.978641,42.466014 h 10.92883 v 3.060914 H 58.028304 V 48.4511 h 6.468941 v 3.060914 h -6.468941 v 3.597362 H 65.13888 V 58.17029 H 53.978641 Z"
           style="font-weight:bold;-inkscape-font-specification:'sans-serif Bold';text-align:center;text-anchor:middle"
           id="path12617" />
      </g>
      <g
         aria-label="KILL
ZONE"
         id="g12637"
         style="font-size:21.5421px;line-height:1.25;stroke-width:0.538554"
         transform="matrix(0.49227071,0,0,0.43441249,-65.634575,136.63)">
        <path
           d="m 9.2745754,7.6704725 h 4.0496626 v 5.7326395 l 5.837825,-5.7326395 h 4.701816 l -7.562876,7.4366535 8.341253,8.267622 h -5.069967 l -6.248051,-6.184939 v 6.184939 H 9.2745754 Z"
           style="font-weight:bold;-inkscape-font-specification:'sans-serif Bold';text-align:center;text-anchor:middle"
           id="path12621" />
        <path
           d="m 25.967599,7.6704725 h 4.049663 V 23.374748 h -4.049663 z"
           style="font-weight:bold;-inkscape-font-specification:'sans-serif Bold';text-align:center;text-anchor:middle"
           id="path12623" />
        <path
           d="m 33.982774,7.6704725 h 4.049662 V 20.313834 h 7.110577 v 3.060914 H 33.982774 Z"
           style="font-weight:bold;-inkscape-font-specification:'sans-serif Bold';text-align:center;text-anchor:middle"
           id="path12625" />
        <path
           d="m 47.709554,7.6704725 h 4.049662 V 20.313834 h 7.110577 v 3.060914 H 47.709554 Z"
           style="font-weight:bold;-inkscape-font-specification:'sans-serif Bold';text-align:center;text-anchor:middle"
           id="path12627" />
        <path
           d="M 1.2488806,42.466014 H 14.449729 v 2.450835 L 6.0243268,55.109376 H 14.691656 V 58.17029 H 1.0069527 V 55.719455 L 9.4323545,45.526928 H 1.2488806 Z"
           style="font-weight:bold;-inkscape-font-specification:'sans-serif Bold';text-align:center;text-anchor:middle"
           id="path12629" />
        <path
           d="m 24.810553,45.116703 q -1.851274,0 -2.871579,1.367418 -1.020304,1.367419 -1.020304,3.849809 0,2.471872 1.020304,3.839291 1.020305,1.367418 2.871579,1.367418 1.861793,0 2.882098,-1.367418 1.020304,-1.367419 1.020304,-3.839291 0,-2.48239 -1.020304,-3.849809 -1.020305,-1.367418 -2.882098,-1.367418 z m 0,-2.934691 q 3.786698,0 5.932493,2.166833 2.145795,2.166832 2.145795,5.985085 0,3.807735 -2.145795,5.974567 -2.145795,2.166833 -5.932493,2.166833 -3.776179,0 -5.932492,-2.166833 -2.145796,-2.166832 -2.145796,-5.974567 0,-3.818253 2.145796,-5.985085 2.156313,-2.166833 5.932492,-2.166833 z"
           style="font-weight:bold;-inkscape-font-specification:'sans-serif Bold';text-align:center;text-anchor:middle"
           id="path12631" />
        <path
           d="m 35.949753,42.466014 h 4.522999 l 5.711602,10.771051 V 42.466014 h 3.839291 V 58.17029 h -4.523 L 39.789043,47.39924 v 10.77105 h -3.83929 z"
           style="font-weight:bold;-inkscape-font-specification:'sans-serif Bold';text-align:center;text-anchor:middle"
           id="path12633" />
        <path
           d="m 53.978641,42.466014 h 10.92883 v 3.060914 H 58.028304 V 48.4511 h 6.468941 v 3.060914 h -6.468941 v 3.597362 H 65.13888 V 58.17029 H 53.978641 Z"
           style="font-weight:bold;-inkscape-font-specification:'sans-serif Bold';text-align:center;text-anchor:middle"
           id="path12635" />
      </g>
      <g
         aria-label="KILL
ZONE"
         id="g12655"
         style="font-size:21.5421px;line-height:1.25;stroke-width:0.538554"
         transform="matrix(0.49227071,0,0,0.43441249,-65.634575,165.36458)">
        <path
           d="m 9.2745754,7.6704725 h 4.0496626 v 5.7326395 l 5.837825,-5.7326395 h 4.701816 l -7.562876,7.4366535 8.341253,8.267622 h -5.069967 l -6.248051,-6.184939 v 6.184939 H 9.2745754 Z"
           style="font-weight:bold;-inkscape-font-specification:'sans-serif Bold';text-align:center;text-anchor:middle"
           id="path12639" />
        <path
           d="m 25.967599,7.6704725 h 4.049663 V 23.374748 h -4.049663 z"
           style="font-weight:bold;-inkscape-font-specification:'sans-serif Bold';text-align:center;text-anchor:middle"
           id="path12641" />
        <path
           d="m 33.982774,7.6704725 h 4.049662 V 20.313834 h 7.110577 v 3.060914 H 33.982774 Z"
           style="font-weight:bold;-inkscape-font-specification:'sans-serif Bold';text-align:center;text-anchor:middle"
           id="path12643" />
        <path
           d="m 47.709554,7.6704725 h 4.049662 V 20.313834 h 7.110577 v 3.060914 H 47.709554 Z"
           style="font-weight:bold;-inkscape-font-specification:'sans-serif Bold';text-align:center;text-anchor:middle"
           id="path12645" />
        <path
           d="M 1.2488806,42.466014 H 14.449729 v 2.450835 L 6.0243268,55.109376 H 14.691656 V 58.17029 H 1.0069527 V 55.719455 L 9.4323545,45.526928 H 1.2488806 Z"
           style="font-weight:bold;-inkscape-font-specification:'sans-serif Bold';text-align:center;text-anchor:middle"
           id="path12647" />
        <path
           d="m 24.810553,45.116703 q -1.851274,0 -2.871579,1.367418 -1.020304,1.367419 -1.020304,3.849809 0,2.471872 1.020304,3.839291 1.020305,1.367418 2.871579,1.367418 1.861793,0 2.882098,-1.367418 1.020304,-1.367419 1.020304,-3.839291 0,-2.48239 -1.020304,-3.849809 -1.020305,-1.367418 -2.882098,-1.367418 z m 0,-2.934691 q 3.786698,0 5.932493,2.166833 2.145795,2.166832 2.145795,5.985085 0,3.807735 -2.145795,5.974567 -2.145795,2.166833 -5.932493,2.166833 -3.776179,0 -5.932492,-2.166833 -2.145796,-2.166832 -2.145796,-5.974567 0,-3.818253 2.145796,-5.985085 2.156313,-2.166833 5.932492,-2.166833 z"
           style="font-weight:bold;-inkscape-font-specification:'sans-serif Bold';text-align:center;text-anchor:middle"
           id="path12649" />
        <path
           d="m 35.949753,42.466014 h 4.522999 l 5.711602,10.771051 V 42.466014 h 3.839291 V 58.17029 h -4.523 L 39.789043,47.39924 v 10.77105 h -3.83929 z"
           style="font-weight:bold;-inkscape-font-specification:'sans-serif Bold';text-align:center;text-anchor:middle"
           id="path12651" />
        <path
           d="m 53.978641,42.466014 h 10.92883 v 3.060914 H 58.028304 V 48.4511 h 6.468941 v 3.060914 h -6.468941 v 3.597362 H 65.13888 V 58.17029 H 53.978641 Z"
           style="font-weight:bold;-inkscape-font-specification:'sans-serif Bold';text-align:center;text-anchor:middle"
           id="path12653" />
      </g>
    </g>
    <g
       id="use12286"
       inkscape:tile-x0="1.0069543"
       inkscape:tile-y0="7.6704891"
       transform="translate(66.145836,66.145853)">
      <g
         aria-label="KILL
ZONE"
         id="g12527"
         style="font-size:21.5421px;line-height:1.25;stroke-width:0.538554"
         transform="matrix(0.49227071,0,0,0.43441249,-33.072917,136.63)">
        <path
           d="m 9.2745754,7.6704725 h 4.0496626 v 5.7326395 l 5.837825,-5.7326395 h 4.701816 l -7.562876,7.4366535 8.341253,8.267622 h -5.069967 l -6.248051,-6.184939 v 6.184939 H 9.2745754 Z"
           style="font-weight:bold;-inkscape-font-specification:'sans-serif Bold';text-align:center;text-anchor:middle"
           id="path12511" />
        <path
           d="m 25.967599,7.6704725 h 4.049663 V 23.374748 h -4.049663 z"
           style="font-weight:bold;-inkscape-font-specification:'sans-serif Bold';text-align:center;text-anchor:middle"
           id="path12513" />
        <path
           d="m 33.982774,7.6704725 h 4.049662 V 20.313834 h 7.110577 v 3.060914 H 33.982774 Z"
           style="font-weight:bold;-inkscape-font-specification:'sans-serif Bold';text-align:center;text-anchor:middle"
           id="path12515" />
        <path
           d="m 47.709554,7.6704725 h 4.049662 V 20.313834 h 7.110577 v 3.060914 H 47.709554 Z"
           style="font-weight:bold;-inkscape-font-specification:'sans-serif Bold';text-align:center;text-anchor:middle"
           id="path12517" />
        <path
           d="M 1.2488806,42.466014 H 14.449729 v 2.450835 L 6.0243268,55.109376 H 14.691656 V 58.17029 H 1.0069527 V 55.719455 L 9.4323545,45.526928 H 1.2488806 Z"
           style="font-weight:bold;-inkscape-font-specification:'sans-serif Bold';text-align:center;text-anchor:middle"
           id="path12519" />
        <path
           d="m 24.810553,45.116703 q -1.851274,0 -2.871579,1.367418 -1.020304,1.367419 -1.020304,3.849809 0,2.471872 1.020304,3.839291 1.020305,1.367418 2.871579,1.367418 1.861793,0 2.882098,-1.367418 1.020304,-1.367419 1.020304,-3.839291 0,-2.48239 -1.020304,-3.849809 -1.020305,-1.367418 -2.882098,-1.367418 z m 0,-2.934691 q 3.786698,0 5.932493,2.166833 2.145795,2.166832 2.145795,5.985085 0,3.807735 -2.145795,5.974567 -2.145795,2.166833 -5.932493,2.166833 -3.776179,0 -5.932492,-2.166833 -2.145796,-2.166832 -2.145796,-5.974567 0,-3.818253 2.145796,-5.985085 2.156313,-2.166833 5.932492,-2.166833 z"
           style="font-weight:bold;-inkscape-font-specification:'sans-serif Bold';text-align:center;text-anchor:middle"
           id="path12521" />
        <path
           d="m 35.949753,42.466014 h 4.522999 l 5.711602,10.771051 V 42.466014 h 3.839291 V 58.17029 h -4.523 L 39.789043,47.39924 v 10.77105 h -3.83929 z"
           style="font-weight:bold;-inkscape-font-specification:'sans-serif Bold';text-align:center;text-anchor:middle"
           id="path12523" />
        <path
           d="m 53.978641,42.466014 h 10.92883 v 3.060914 H 58.028304 V 48.4511 h 6.468941 v 3.060914 h -6.468941 v 3.597362 H 65.13888 V 58.17029 H 53.978641 Z"
           style="font-weight:bold;-inkscape-font-specification:'sans-serif Bold';text-align:center;text-anchor:middle"
           id="path12525" />
      </g>
      <g
         aria-label="KILL
ZONE"
         id="g12545"
         style="font-size:21.5421px;line-height:1.25;stroke-width:0.538554"
         transform="matrix(0.49227071,0,0,0.43441249,-33.072917,165.36458)">
        <path
           d="m 9.2745754,7.6704725 h 4.0496626 v 5.7326395 l 5.837825,-5.7326395 h 4.701816 l -7.562876,7.4366535 8.341253,8.267622 h -5.069967 l -6.248051,-6.184939 v 6.184939 H 9.2745754 Z"
           style="font-weight:bold;-inkscape-font-specification:'sans-serif Bold';text-align:center;text-anchor:middle"
           id="path12529" />
        <path
           d="m 25.967599,7.6704725 h 4.049663 V 23.374748 h -4.049663 z"
           style="font-weight:bold;-inkscape-font-specification:'sans-serif Bold';text-align:center;text-anchor:middle"
           id="path12531" />
        <path
           d="m 33.982774,7.6704725 h 4.049662 V 20.313834 h 7.110577 v 3.060914 H 33.982774 Z"
           style="font-weight:bold;-inkscape-font-specification:'sans-serif Bold';text-align:center;text-anchor:middle"
           id="path12533" />
        <path
           d="m 47.709554,7.6704725 h 4.049662 V 20.313834 h 7.110577 v 3.060914 H 47.709554 Z"
           style="font-weight:bold;-inkscape-font-specification:'sans-serif Bold';text-align:center;text-anchor:middle"
           id="path12535" />
        <path
           d="M 1.2488806,42.466014 H 14.449729 v 2.450835 L 6.0243268,55.109376 H 14.691656 V 58.17029 H 1.0069527 V 55.719455 L 9.4323545,45.526928 H 1.2488806 Z"
           style="font-weight:bold;-inkscape-font-specification:'sans-serif Bold';text-align:center;text-anchor:middle"
           id="path12537" />
        <path
           d="m 24.810553,45.116703 q -1.851274,0 -2.871579,1.367418 -1.020304,1.367419 -1.020304,3.849809 0,2.471872 1.020304,3.839291 1.020305,1.367418 2.871579,1.367418 1.861793,0 2.882098,-1.367418 1.020304,-1.367419 1.020304,-3.839291 0,-2.48239 -1.020304,-3.849809 -1.020305,-1.367418 -2.882098,-1.367418 z m 0,-2.934691 q 3.786698,0 5.932493,2.166833 2.145795,2.166832 2.145795,5.985085 0,3.807735 -2.145795,5.974567 -2.145795,2.166833 -5.932493,2.166833 -3.776179,0 -5.932492,-2.166833 -2.145796,-2.166832 -2.145796,-5.974567 0,-3.818253 2.145796,-5.985085 2.156313,-2.166833 5.932492,-2.166833 z"
           style="font-weight:bold;-inkscape-font-specification:'sans-serif Bold';text-align:center;text-anchor:middle"
           id="path12539" />
        <path
           d="m 35.949753,42.466014 h 4.522999 l 5.711602,10.771051 V 42.466014 h 3.839291 V 58.17029 h -4.523 L 39.789043,47.39924 v 10.77105 h -3.83929 z"
           style="font-weight:bold;-inkscape-font-specification:'sans-serif Bold';text-align:center;text-anchor:middle"
           id="path12541" />
        <path
           d="m 53.978641,42.466014 h 10.92883 v 3.060914 H 58.028304 V 48.4511 h 6.468941 v 3.060914 h -6.468941 v 3.597362 H 65.13888 V 58.17029 H 53.978641 Z"
           style="font-weight:bold;-inkscape-font-specification:'sans-serif Bold';text-align:center;text-anchor:middle"
           id="path12543" />
      </g>
      <g
         aria-label="KILL
ZONE"
         id="g12563"
         style="font-size:21.5421px;line-height:1.25;stroke-width:0.538554"
         transform="matrix(0.49227071,0,0,0.43441249,-65.634575,136.63)">
        <path
           d="m 9.2745754,7.6704725 h 4.0496626 v 5.7326395 l 5.837825,-5.7326395 h 4.701816 l -7.562876,7.4366535 8.341253,8.267622 h -5.069967 l -6.248051,-6.184939 v 6.184939 H 9.2745754 Z"
           style="font-weight:bold;-inkscape-font-specification:'sans-serif Bold';text-align:center;text-anchor:middle"
           id="path12547" />
        <path
           d="m 25.967599,7.6704725 h 4.049663 V 23.374748 h -4.049663 z"
           style="font-weight:bold;-inkscape-font-specification:'sans-serif Bold';text-align:center;text-anchor:middle"
           id="path12549" />
        <path
           d="m 33.982774,7.6704725 h 4.049662 V 20.313834 h 7.110577 v 3.060914 H 33.982774 Z"
           style="font-weight:bold;-inkscape-font-specification:'sans-serif Bold';text-align:center;text-anchor:middle"
           id="path12551" />
        <path
           d="m 47.709554,7.6704725 h 4.049662 V 20.313834 h 7.110577 v 3.060914 H 47.709554 Z"
           style="font-weight:bold;-inkscape-font-specification:'sans-serif Bold';text-align:center;text-anchor:middle"
           id="path12553" />
        <path
           d="M 1.2488806,42.466014 H 14.449729 v 2.450835 L 6.0243268,55.109376 H 14.691656 V 58.17029 H 1.0069527 V 55.719455 L 9.4323545,45.526928 H 1.2488806 Z"
           style="font-weight:bold;-inkscape-font-specification:'sans-serif Bold';text-align:center;text-anchor:middle"
           id="path12555" />
        <path
           d="m 24.810553,45.116703 q -1.851274,0 -2.871579,1.367418 -1.020304,1.367419 -1.020304,3.849809 0,2.471872 1.020304,3.839291 1.020305,1.367418 2.871579,1.367418 1.861793,0 2.882098,-1.367418 1.020304,-1.367419 1.020304,-3.839291 0,-2.48239 -1.020304,-3.849809 -1.020305,-1.367418 -2.882098,-1.367418 z m 0,-2.934691 q 3.786698,0 5.932493,2.166833 2.145795,2.166832 2.145795,5.985085 0,3.807735 -2.145795,5.974567 -2.145795,2.166833 -5.932493,2.166833 -3.776179,0 -5.932492,-2.166833 -2.145796,-2.166832 -2.145796,-5.974567 0,-3.818253 2.145796,-5.985085 2.156313,-2.166833 5.932492,-2.166833 z"
           style="font-weight:bold;-inkscape-font-specification:'sans-serif Bold';text-align:center;text-anchor:middle"
           id="path12557" />
        <path
           d="m 35.949753,42.466014 h 4.522999 l 5.711602,10.771051 V 42.466014 h 3.839291 V 58.17029 h -4.523 L 39.789043,47.39924 v 10.77105 h -3.83929 z"
           style="font-weight:bold;-inkscape-font-specification:'sans-serif Bold';text-align:center;text-anchor:middle"
           id="path12559" />
        <path
           d="m 53.978641,42.466014 h 10.92883 v 3.060914 H 58.028304 V 48.4511 h 6.468941 v 3.060914 h -6.468941 v 3.597362 H 65.13888 V 58.17029 H 53.978641 Z"
           style="font-weight:bold;-inkscape-font-specification:'sans-serif Bold';text-align:center;text-anchor:middle"
           id="path12561" />
      </g>
      <g
         aria-label="KILL
ZONE"
         id="g12581"
         style="font-size:21.5421px;line-height:1.25;stroke-width:0.538554"
         transform="matrix(0.49227071,0,0,0.43441249,-65.634575,165.36458)">
        <path
           d="m 9.2745754,7.6704725 h 4.0496626 v 5.7326395 l 5.837825,-5.7326395 h 4.701816 l -7.562876,7.4366535 8.341253,8.267622 h -5.069967 l -6.248051,-6.184939 v 6.184939 H 9.2745754 Z"
           style="font-weight:bold;-inkscape-font-specification:'sans-serif Bold';text-align:center;text-anchor:middle"
           id="path12565" />
        <path
           d="m 25.967599,7.6704725 h 4.049663 V 23.374748 h -4.049663 z"
           style="font-weight:bold;-inkscape-font-specification:'sans-serif Bold';text-align:center;text-anchor:middle"
           id="path12567" />
        <path
           d="m 33.982774,7.6704725 h 4.049662 V 20.313834 h 7.110577 v 3.060914 H 33.982774 Z"
           style="font-weight:bold;-inkscape-font-specification:'sans-serif Bold';text-align:center;text-anchor:middle"
           id="path12569" />
        <path
           d="m 47.709554,7.6704725 h 4.049662 V 20.313834 h 7.110577 v 3.060914 H 47.709554 Z"
           style="font-weight:bold;-inkscape-font-specification:'sans-serif Bold';text-align:center;text-anchor:middle"
           id="path12571" />
        <path
           d="M 1.2488806,42.466014 H 14.449729 v 2.450835 L 6.0243268,55.109376 H 14.691656 V 58.17029 H 1.0069527 V 55.719455 L 9.4323545,45.526928 H 1.2488806 Z"
           style="font-weight:bold;-inkscape-font-specification:'sans-serif Bold';text-align:center;text-anchor:middle"
           id="path12573" />
        <path
           d="m 24.810553,45.116703 q -1.851274,0 -2.871579,1.367418 -1.020304,1.367419 -1.020304,3.849809 0,2.471872 1.020304,3.839291 1.020305,1.367418 2.871579,1.367418 1.861793,0 2.882098,-1.367418 1.020304,-1.367419 1.020304,-3.839291 0,-2.48239 -1.020304,-3.849809 -1.020305,-1.367418 -2.882098,-1.367418 z m 0,-2.934691 q 3.786698,0 5.932493,2.166833 2.145795,2.166832 2.145795,5.985085 0,3.807735 -2.145795,5.974567 -2.145795,2.166833 -5.932493,2.166833 -3.776179,0 -5.932492,-2.166833 -2.145796,-2.166832 -2.145796,-5.974567 0,-3.818253 2.145796,-5.985085 2.156313,-2.166833 5.932492,-2.166833 z"
           style="font-weight:bold;-inkscape-font-specification:'sans-serif Bold';text-align:center;text-anchor:middle"
           id="path12575" />
        <path
           d="m 35.949753,42.466014 h 4.522999 l 5.711602,10.771051 V 42.466014 h 3.839291 V 58.17029 h -4.523 L 39.789043,47.39924 v 10.77105 h -3.83929 z"
           style="font-weight:bold;-inkscape-font-specification:'sans-serif Bold';text-align:center;text-anchor:middle"
           id="path12577" />
        <path
           d="m 53.978641,42.466014 h 10.92883 v 3.060914 H 58.028304 V 48.4511 h 6.468941 v 3.060914 h -6.468941 v 3.597362 H 65.13888 V 58.17029 H 53.978641 Z"
           style="font-weight:bold;-inkscape-font-specification:'sans-serif Bold';text-align:center;text-anchor:middle"
           id="path12579" />
      </g>
    </g>
    <g
       id="use12288"
       inkscape:tile-x0="1.0069543"
       inkscape:tile-y0="7.6704891"
       transform="translate(130.91908)">
      <g
         aria-label="KILL
ZONE"
         id="g12453"
         style="font-size:21.5421px;line-height:1.25;stroke-width:0.538554"
         transform="matrix(0.49227071,0,0,0.43441249,-33.072917,136.63)">
        <path
           d="m 9.2745754,7.6704725 h 4.0496626 v 5.7326395 l 5.837825,-5.7326395 h 4.701816 l -7.562876,7.4366535 8.341253,8.267622 h -5.069967 l -6.248051,-6.184939 v 6.184939 H 9.2745754 Z"
           style="font-weight:bold;-inkscape-font-specification:'sans-serif Bold';text-align:center;text-anchor:middle"
           id="path12437" />
        <path
           d="m 25.967599,7.6704725 h 4.049663 V 23.374748 h -4.049663 z"
           style="font-weight:bold;-inkscape-font-specification:'sans-serif Bold';text-align:center;text-anchor:middle"
           id="path12439" />
        <path
           d="m 33.982774,7.6704725 h 4.049662 V 20.313834 h 7.110577 v 3.060914 H 33.982774 Z"
           style="font-weight:bold;-inkscape-font-specification:'sans-serif Bold';text-align:center;text-anchor:middle"
           id="path12441" />
        <path
           d="m 47.709554,7.6704725 h 4.049662 V 20.313834 h 7.110577 v 3.060914 H 47.709554 Z"
           style="font-weight:bold;-inkscape-font-specification:'sans-serif Bold';text-align:center;text-anchor:middle"
           id="path12443" />
        <path
           d="M 1.2488806,42.466014 H 14.449729 v 2.450835 L 6.0243268,55.109376 H 14.691656 V 58.17029 H 1.0069527 V 55.719455 L 9.4323545,45.526928 H 1.2488806 Z"
           style="font-weight:bold;-inkscape-font-specification:'sans-serif Bold';text-align:center;text-anchor:middle"
           id="path12445" />
        <path
           d="m 24.810553,45.116703 q -1.851274,0 -2.871579,1.367418 -1.020304,1.367419 -1.020304,3.849809 0,2.471872 1.020304,3.839291 1.020305,1.367418 2.871579,1.367418 1.861793,0 2.882098,-1.367418 1.020304,-1.367419 1.020304,-3.839291 0,-2.48239 -1.020304,-3.849809 -1.020305,-1.367418 -2.882098,-1.367418 z m 0,-2.934691 q 3.786698,0 5.932493,2.166833 2.145795,2.166832 2.145795,5.985085 0,3.807735 -2.145795,5.974567 -2.145795,2.166833 -5.932493,2.166833 -3.776179,0 -5.932492,-2.166833 -2.145796,-2.166832 -2.145796,-5.974567 0,-3.818253 2.145796,-5.985085 2.156313,-2.166833 5.932492,-2.166833 z"
           style="font-weight:bold;-inkscape-font-specification:'sans-serif Bold';text-align:center;text-anchor:middle"
           id="path12447" />
        <path
           d="m 35.949753,42.466014 h 4.522999 l 5.711602,10.771051 V 42.466014 h 3.839291 V 58.17029 h -4.523 L 39.789043,47.39924 v 10.77105 h -3.83929 z"
           style="font-weight:bold;-inkscape-font-specification:'sans-serif Bold';text-align:center;text-anchor:middle"
           id="path12449" />
        <path
           d="m 53.978641,42.466014 h 10.92883 v 3.060914 H 58.028304 V 48.4511 h 6.468941 v 3.060914 h -6.468941 v 3.597362 H 65.13888 V 58.17029 H 53.978641 Z"
           style="font-weight:bold;-inkscape-font-specification:'sans-serif Bold';text-align:center;text-anchor:middle"
           id="path12451" />
      </g>
      <g
         aria-label="KILL
ZONE"
         id="g12471"
         style="font-size:21.5421px;line-height:1.25;stroke-width:0.538554"
         transform="matrix(0.49227071,0,0,0.43441249,-33.072917,165.36458)">
        <path
           d="m 9.2745754,7.6704725 h 4.0496626 v 5.7326395 l 5.837825,-5.7326395 h 4.701816 l -7.562876,7.4366535 8.341253,8.267622 h -5.069967 l -6.248051,-6.184939 v 6.184939 H 9.2745754 Z"
           style="font-weight:bold;-inkscape-font-specification:'sans-serif Bold';text-align:center;text-anchor:middle"
           id="path12455" />
        <path
           d="m 25.967599,7.6704725 h 4.049663 V 23.374748 h -4.049663 z"
           style="font-weight:bold;-inkscape-font-specification:'sans-serif Bold';text-align:center;text-anchor:middle"
           id="path12457" />
        <path
           d="m 33.982774,7.6704725 h 4.049662 V 20.313834 h 7.110577 v 3.060914 H 33.982774 Z"
           style="font-weight:bold;-inkscape-font-specification:'sans-serif Bold';text-align:center;text-anchor:middle"
           id="path12459" />
        <path
           d="m 47.709554,7.6704725 h 4.049662 V 20.313834 h 7.110577 v 3.060914 H 47.709554 Z"
           style="font-weight:bold;-inkscape-font-specification:'sans-serif Bold';text-align:center;text-anchor:middle"
           id="path12461" />
        <path
           d="M 1.2488806,42.466014 H 14.449729 v 2.450835 L 6.0243268,55.109376 H 14.691656 V 58.17029 H 1.0069527 V 55.719455 L 9.4323545,45.526928 H 1.2488806 Z"
           style="font-weight:bold;-inkscape-font-specification:'sans-serif Bold';text-align:center;text-anchor:middle"
           id="path12463" />
        <path
           d="m 24.810553,45.116703 q -1.851274,0 -2.871579,1.367418 -1.020304,1.367419 -1.020304,3.849809 0,2.471872 1.020304,3.839291 1.020305,1.367418 2.871579,1.367418 1.861793,0 2.882098,-1.367418 1.020304,-1.367419 1.020304,-3.839291 0,-2.48239 -1.020304,-3.849809 -1.020305,-1.367418 -2.882098,-1.367418 z m 0,-2.934691 q 3.786698,0 5.932493,2.166833 2.145795,2.166832 2.145795,5.985085 0,3.807735 -2.145795,5.974567 -2.145795,2.166833 -5.932493,2.166833 -3.776179,0 -5.932492,-2.166833 -2.145796,-2.166832 -2.145796,-5.974567 0,-3.818253 2.145796,-5.985085 2.156313,-2.166833 5.932492,-2.166833 z"
           style="font-weight:bold;-inkscape-font-specification:'sans-serif Bold';text-align:center;text-anchor:middle"
           id="path12465" />
        <path
           d="m 35.949753,42.466014 h 4.522999 l 5.711602,10.771051 V 42.466014 h 3.839291 V 58.17029 h -4.523 L 39.789043,47.39924 v 10.77105 h -3.83929 z"
           style="font-weight:bold;-inkscape-font-specification:'sans-serif Bold';text-align:center;text-anchor:middle"
           id="path12467" />
        <path
           d="m 53.978641,42.466014 h 10.92883 v 3.060914 H 58.028304 V 48.4511 h 6.468941 v 3.060914 h -6.468941 v 3.597362 H 65.13888 V 58.17029 H 53.978641 Z"
           style="font-weight:bold;-inkscape-font-specification:'sans-serif Bold';text-align:center;text-anchor:middle"
           id="path12469" />
      </g>
      <g
         aria-label="KILL
ZONE"
         id="g12489"
         style="font-size:21.5421px;line-height:1.25;stroke-width:0.538554"
         transform="matrix(0.49227071,0,0,0.43441249,-65.634575,136.63)">
        <path
           d="m 9.2745754,7.6704725 h 4.0496626 v 5.7326395 l 5.837825,-5.7326395 h 4.701816 l -7.562876,7.4366535 8.341253,8.267622 h -5.069967 l -6.248051,-6.184939 v 6.184939 H 9.2745754 Z"
           style="font-weight:bold;-inkscape-font-specification:'sans-serif Bold';text-align:center;text-anchor:middle"
           id="path12473" />
        <path
           d="m 25.967599,7.6704725 h 4.049663 V 23.374748 h -4.049663 z"
           style="font-weight:bold;-inkscape-font-specification:'sans-serif Bold';text-align:center;text-anchor:middle"
           id="path12475" />
        <path
           d="m 33.982774,7.6704725 h 4.049662 V 20.313834 h 7.110577 v 3.060914 H 33.982774 Z"
           style="font-weight:bold;-inkscape-font-specification:'sans-serif Bold';text-align:center;text-anchor:middle"
           id="path12477" />
        <path
           d="m 47.709554,7.6704725 h 4.049662 V 20.313834 h 7.110577 v 3.060914 H 47.709554 Z"
           style="font-weight:bold;-inkscape-font-specification:'sans-serif Bold';text-align:center;text-anchor:middle"
           id="path12479" />
        <path
           d="M 1.2488806,42.466014 H 14.449729 v 2.450835 L 6.0243268,55.109376 H 14.691656 V 58.17029 H 1.0069527 V 55.719455 L 9.4323545,45.526928 H 1.2488806 Z"
           style="font-weight:bold;-inkscape-font-specification:'sans-serif Bold';text-align:center;text-anchor:middle"
           id="path12481" />
        <path
           d="m 24.810553,45.116703 q -1.851274,0 -2.871579,1.367418 -1.020304,1.367419 -1.020304,3.849809 0,2.471872 1.020304,3.839291 1.020305,1.367418 2.871579,1.367418 1.861793,0 2.882098,-1.367418 1.020304,-1.367419 1.020304,-3.839291 0,-2.48239 -1.020304,-3.849809 -1.020305,-1.367418 -2.882098,-1.367418 z m 0,-2.934691 q 3.786698,0 5.932493,2.166833 2.145795,2.166832 2.145795,5.985085 0,3.807735 -2.145795,5.974567 -2.145795,2.166833 -5.932493,2.166833 -3.776179,0 -5.932492,-2.166833 -2.145796,-2.166832 -2.145796,-5.974567 0,-3.818253 2.145796,-5.985085 2.156313,-2.166833 5.932492,-2.166833 z"
           style="font-weight:bold;-inkscape-font-specification:'sans-serif Bold';text-align:center;text-anchor:middle"
           id="path12483" />
        <path
           d="m 35.949753,42.466014 h 4.522999 l 5.711602,10.771051 V 42.466014 h 3.839291 V 58.17029 h -4.523 L 39.789043,47.39924 v 10.77105 h -3.83929 z"
           style="font-weight:bold;-inkscape-font-specification:'sans-serif Bold';text-align:center;text-anchor:middle"
           id="path12485" />
        <path
           d="m 53.978641,42.466014 h 10.92883 v 3.060914 H 58.028304 V 48.4511 h 6.468941 v 3.060914 h -6.468941 v 3.597362 H 65.13888 V 58.17029 H 53.978641 Z"
           style="font-weight:bold;-inkscape-font-specification:'sans-serif Bold';text-align:center;text-anchor:middle"
           id="path12487" />
      </g>
      <g
         aria-label="KILL
ZONE"
         id="g12507"
         style="font-size:21.5421px;line-height:1.25;stroke-width:0.538554"
         transform="matrix(0.49227071,0,0,0.43441249,-65.634575,165.36458)">
        <path
           d="m 9.2745754,7.6704725 h 4.0496626 v 5.7326395 l 5.837825,-5.7326395 h 4.701816 l -7.562876,7.4366535 8.341253,8.267622 h -5.069967 l -6.248051,-6.184939 v 6.184939 H 9.2745754 Z"
           style="font-weight:bold;-inkscape-font-specification:'sans-serif Bold';text-align:center;text-anchor:middle"
           id="path12491" />
        <path
           d="m 25.967599,7.6704725 h 4.049663 V 23.374748 h -4.049663 z"
           style="font-weight:bold;-inkscape-font-specification:'sans-serif Bold';text-align:center;text-anchor:middle"
           id="path12493" />
        <path
           d="m 33.982774,7.6704725 h 4.049662 V 20.313834 h 7.110577 v 3.060914 H 33.982774 Z"
           style="font-weight:bold;-inkscape-font-specification:'sans-serif Bold';text-align:center;text-anchor:middle"
           id="path12495" />
        <path
           d="m 47.709554,7.6704725 h 4.049662 V 20.313834 h 7.110577 v 3.060914 H 47.709554 Z"
           style="font-weight:bold;-inkscape-font-specification:'sans-serif Bold';text-align:center;text-anchor:middle"
           id="path12497" />
        <path
           d="M 1.2488806,42.466014 H 14.449729 v 2.450835 L 6.0243268,55.109376 H 14.691656 V 58.17029 H 1.0069527 V 55.719455 L 9.4323545,45.526928 H 1.2488806 Z"
           style="font-weight:bold;-inkscape-font-specification:'sans-serif Bold';text-align:center;text-anchor:middle"
           id="path12499" />
        <path
           d="m 24.810553,45.116703 q -1.851274,0 -2.871579,1.367418 -1.020304,1.367419 -1.020304,3.849809 0,2.471872 1.020304,3.839291 1.020305,1.367418 2.871579,1.367418 1.861793,0 2.882098,-1.367418 1.020304,-1.367419 1.020304,-3.839291 0,-2.48239 -1.020304,-3.849809 -1.020305,-1.367418 -2.882098,-1.367418 z m 0,-2.934691 q 3.786698,0 5.932493,2.166833 2.145795,2.166832 2.145795,5.985085 0,3.807735 -2.145795,5.974567 -2.145795,2.166833 -5.932493,2.166833 -3.776179,0 -5.932492,-2.166833 -2.145796,-2.166832 -2.145796,-5.974567 0,-3.818253 2.145796,-5.985085 2.156313,-2.166833 5.932492,-2.166833 z"
           style="font-weight:bold;-inkscape-font-specification:'sans-serif Bold';text-align:center;text-anchor:middle"
           id="path12501" />
        <path
           d="m 35.949753,42.466014 h 4.522999 l 5.711602,10.771051 V 42.466014 h 3.839291 V 58.17029 h -4.523 L 39.789043,47.39924 v 10.77105 h -3.83929 z"
           style="font-weight:bold;-inkscape-font-specification:'sans-serif Bold';text-align:center;text-anchor:middle"
           id="path12503" />
        <path
           d="m 53.978641,42.466014 h 10.92883 v 3.060914 H 58.028304 V 48.4511 h 6.468941 v 3.060914 h -6.468941 v 3.597362 H 65.13888 V 58.17029 H 53.978641 Z"
           style="font-weight:bold;-inkscape-font-specification:'sans-serif Bold';text-align:center;text-anchor:middle"
           id="path12505" />
      </g>
    </g>
    <g
       id="use12290"
       inkscape:tile-x0="1.0069543"
       inkscape:tile-y0="7.6704891"
       transform="translate(130.91908,66.145853)">
      <g
         aria-label="KILL
ZONE"
         id="g12379"
         style="font-size:21.5421px;line-height:1.25;stroke-width:0.538554"
         transform="matrix(0.49227071,0,0,0.43441249,-33.072917,136.63)">
        <path
           d="m 9.2745754,7.6704725 h 4.0496626 v 5.7326395 l 5.837825,-5.7326395 h 4.701816 l -7.562876,7.4366535 8.341253,8.267622 h -5.069967 l -6.248051,-6.184939 v 6.184939 H 9.2745754 Z"
           style="font-weight:bold;-inkscape-font-specification:'sans-serif Bold';text-align:center;text-anchor:middle"
           id="path12363" />
        <path
           d="m 25.967599,7.6704725 h 4.049663 V 23.374748 h -4.049663 z"
           style="font-weight:bold;-inkscape-font-specification:'sans-serif Bold';text-align:center;text-anchor:middle"
           id="path12365" />
        <path
           d="m 33.982774,7.6704725 h 4.049662 V 20.313834 h 7.110577 v 3.060914 H 33.982774 Z"
           style="font-weight:bold;-inkscape-font-specification:'sans-serif Bold';text-align:center;text-anchor:middle"
           id="path12367" />
        <path
           d="m 47.709554,7.6704725 h 4.049662 V 20.313834 h 7.110577 v 3.060914 H 47.709554 Z"
           style="font-weight:bold;-inkscape-font-specification:'sans-serif Bold';text-align:center;text-anchor:middle"
           id="path12369" />
        <path
           d="M 1.2488806,42.466014 H 14.449729 v 2.450835 L 6.0243268,55.109376 H 14.691656 V 58.17029 H 1.0069527 V 55.719455 L 9.4323545,45.526928 H 1.2488806 Z"
           style="font-weight:bold;-inkscape-font-specification:'sans-serif Bold';text-align:center;text-anchor:middle"
           id="path12371" />
        <path
           d="m 24.810553,45.116703 q -1.851274,0 -2.871579,1.367418 -1.020304,1.367419 -1.020304,3.849809 0,2.471872 1.020304,3.839291 1.020305,1.367418 2.871579,1.367418 1.861793,0 2.882098,-1.367418 1.020304,-1.367419 1.020304,-3.839291 0,-2.48239 -1.020304,-3.849809 -1.020305,-1.367418 -2.882098,-1.367418 z m 0,-2.934691 q 3.786698,0 5.932493,2.166833 2.145795,2.166832 2.145795,5.985085 0,3.807735 -2.145795,5.974567 -2.145795,2.166833 -5.932493,2.166833 -3.776179,0 -5.932492,-2.166833 -2.145796,-2.166832 -2.145796,-5.974567 0,-3.818253 2.145796,-5.985085 2.156313,-2.166833 5.932492,-2.166833 z"
           style="font-weight:bold;-inkscape-font-specification:'sans-serif Bold';text-align:center;text-anchor:middle"
           id="path12373" />
        <path
           d="m 35.949753,42.466014 h 4.522999 l 5.711602,10.771051 V 42.466014 h 3.839291 V 58.17029 h -4.523 L 39.789043,47.39924 v 10.77105 h -3.83929 z"
           style="font-weight:bold;-inkscape-font-specification:'sans-serif Bold';text-align:center;text-anchor:middle"
           id="path12375" />
        <path
           d="m 53.978641,42.466014 h 10.92883 v 3.060914 H 58.028304 V 48.4511 h 6.468941 v 3.060914 h -6.468941 v 3.597362 H 65.13888 V 58.17029 H 53.978641 Z"
           style="font-weight:bold;-inkscape-font-specification:'sans-serif Bold';text-align:center;text-anchor:middle"
           id="path12377" />
      </g>
      <g
         aria-label="KILL
ZONE"
         id="g12397"
         style="font-size:21.5421px;line-height:1.25;stroke-width:0.538554"
         transform="matrix(0.49227071,0,0,0.43441249,-33.072917,165.36458)">
        <path
           d="m 9.2745754,7.6704725 h 4.0496626 v 5.7326395 l 5.837825,-5.7326395 h 4.701816 l -7.562876,7.4366535 8.341253,8.267622 h -5.069967 l -6.248051,-6.184939 v 6.184939 H 9.2745754 Z"
           style="font-weight:bold;-inkscape-font-specification:'sans-serif Bold';text-align:center;text-anchor:middle"
           id="path12381" />
        <path
           d="m 25.967599,7.6704725 h 4.049663 V 23.374748 h -4.049663 z"
           style="font-weight:bold;-inkscape-font-specification:'sans-serif Bold';text-align:center;text-anchor:middle"
           id="path12383" />
        <path
           d="m 33.982774,7.6704725 h 4.049662 V 20.313834 h 7.110577 v 3.060914 H 33.982774 Z"
           style="font-weight:bold;-inkscape-font-specification:'sans-serif Bold';text-align:center;text-anchor:middle"
           id="path12385" />
        <path
           d="m 47.709554,7.6704725 h 4.049662 V 20.313834 h 7.110577 v 3.060914 H 47.709554 Z"
           style="font-weight:bold;-inkscape-font-specification:'sans-serif Bold';text-align:center;text-anchor:middle"
           id="path12387" />
        <path
           d="M 1.2488806,42.466014 H 14.449729 v 2.450835 L 6.0243268,55.109376 H 14.691656 V 58.17029 H 1.0069527 V 55.719455 L 9.4323545,45.526928 H 1.2488806 Z"
           style="font-weight:bold;-inkscape-font-specification:'sans-serif Bold';text-align:center;text-anchor:middle"
           id="path12389" />
        <path
           d="m 24.810553,45.116703 q -1.851274,0 -2.871579,1.367418 -1.020304,1.367419 -1.020304,3.849809 0,2.471872 1.020304,3.839291 1.020305,1.367418 2.871579,1.367418 1.861793,0 2.882098,-1.367418 1.020304,-1.367419 1.020304,-3.839291 0,-2.48239 -1.020304,-3.849809 -1.020305,-1.367418 -2.882098,-1.367418 z m 0,-2.934691 q 3.786698,0 5.932493,2.166833 2.145795,2.166832 2.145795,5.985085 0,3.807735 -2.145795,5.974567 -2.145795,2.166833 -5.932493,2.166833 -3.776179,0 -5.932492,-2.166833 -2.145796,-2.166832 -2.145796,-5.974567 0,-3.818253 2.145796,-5.985085 2.156313,-2.166833 5.932492,-2.166833 z"
           style="font-weight:bold;-inkscape-font-specification:'sans-serif Bold';text-align:center;text-anchor:middle"
           id="path12391" />
        <path
           d="m 35.949753,42.466014 h 4.522999 l 5.711602,10.771051 V 42.466014 h 3.839291 V 58.17029 h -4.523 L 39.789043,47.39924 v 10.77105 h -3.83929 z"
           style="font-weight:bold;-inkscape-font-specification:'sans-serif Bold';text-align:center;text-anchor:middle"
           id="path12393" />
        <path
           d="m 53.978641,42.466014 h 10.92883 v 3.060914 H 58.028304 V 48.4511 h 6.468941 v 3.060914 h -6.468941 v 3.597362 H 65.13888 V 58.17029 H 53.978641 Z"
           style="font-weight:bold;-inkscape-font-specification:'sans-serif Bold';text-align:center;text-anchor:middle"
           id="path12395" />
      </g>
      <g
         aria-label="KILL
ZONE"
         id="g12415"
         style="font-size:21.5421px;line-height:1.25;stroke-width:0.538554"
         transform="matrix(0.49227071,0,0,0.43441249,-65.634575,136.63)">
        <path
           d="m 9.2745754,7.6704725 h 4.0496626 v 5.7326395 l 5.837825,-5.7326395 h 4.701816 l -7.562876,7.4366535 8.341253,8.267622 h -5.069967 l -6.248051,-6.184939 v 6.184939 H 9.2745754 Z"
           style="font-weight:bold;-inkscape-font-specification:'sans-serif Bold';text-align:center;text-anchor:middle"
           id="path12399" />
        <path
           d="m 25.967599,7.6704725 h 4.049663 V 23.374748 h -4.049663 z"
           style="font-weight:bold;-inkscape-font-specification:'sans-serif Bold';text-align:center;text-anchor:middle"
           id="path12401" />
        <path
           d="m 33.982774,7.6704725 h 4.049662 V 20.313834 h 7.110577 v 3.060914 H 33.982774 Z"
           style="font-weight:bold;-inkscape-font-specification:'sans-serif Bold';text-align:center;text-anchor:middle"
           id="path12403" />
        <path
           d="m 47.709554,7.6704725 h 4.049662 V 20.313834 h 7.110577 v 3.060914 H 47.709554 Z"
           style="font-weight:bold;-inkscape-font-specification:'sans-serif Bold';text-align:center;text-anchor:middle"
           id="path12405" />
        <path
           d="M 1.2488806,42.466014 H 14.449729 v 2.450835 L 6.0243268,55.109376 H 14.691656 V 58.17029 H 1.0069527 V 55.719455 L 9.4323545,45.526928 H 1.2488806 Z"
           style="font-weight:bold;-inkscape-font-specification:'sans-serif Bold';text-align:center;text-anchor:middle"
           id="path12407" />
        <path
           d="m 24.810553,45.116703 q -1.851274,0 -2.871579,1.367418 -1.020304,1.367419 -1.020304,3.849809 0,2.471872 1.020304,3.839291 1.020305,1.367418 2.871579,1.367418 1.861793,0 2.882098,-1.367418 1.020304,-1.367419 1.020304,-3.839291 0,-2.48239 -1.020304,-3.849809 -1.020305,-1.367418 -2.882098,-1.367418 z m 0,-2.934691 q 3.786698,0 5.932493,2.166833 2.145795,2.166832 2.145795,5.985085 0,3.807735 -2.145795,5.974567 -2.145795,2.166833 -5.932493,2.166833 -3.776179,0 -5.932492,-2.166833 -2.145796,-2.166832 -2.145796,-5.974567 0,-3.818253 2.145796,-5.985085 2.156313,-2.166833 5.932492,-2.166833 z"
           style="font-weight:bold;-inkscape-font-specification:'sans-serif Bold';text-align:center;text-anchor:middle"
           id="path12409" />
        <path
           d="m 35.949753,42.466014 h 4.522999 l 5.711602,10.771051 V 42.466014 h 3.839291 V 58.17029 h -4.523 L 39.789043,47.39924 v 10.77105 h -3.83929 z"
           style="font-weight:bold;-inkscape-font-specification:'sans-serif Bold';text-align:center;text-anchor:middle"
           id="path12411" />
        <path
           d="m 53.978641,42.466014 h 10.92883 v 3.060914 H 58.028304 V 48.4511 h 6.468941 v 3.060914 h -6.468941 v 3.597362 H 65.13888 V 58.17029 H 53.978641 Z"
           style="font-weight:bold;-inkscape-font-specification:'sans-serif Bold';text-align:center;text-anchor:middle"
           id="path12413" />
      </g>
      <g
         aria-label="KILL
ZONE"
         id="g12433"
         style="font-size:21.5421px;line-height:1.25;stroke-width:0.538554"
         transform="matrix(0.49227071,0,0,0.43441249,-65.634575,165.36458)">
        <path
           d="m 9.2745754,7.6704725 h 4.0496626 v 5.7326395 l 5.837825,-5.7326395 h 4.701816 l -7.562876,7.4366535 8.341253,8.267622 h -5.069967 l -6.248051,-6.184939 v 6.184939 H 9.2745754 Z"
           style="font-weight:bold;-inkscape-font-specification:'sans-serif Bold';text-align:center;text-anchor:middle"
           id="path12417" />
        <path
           d="m 25.967599,7.6704725 h 4.049663 V 23.374748 h -4.049663 z"
           style="font-weight:bold;-inkscape-font-specification:'sans-serif Bold';text-align:center;text-anchor:middle"
           id="path12419" />
        <path
           d="m 33.982774,7.6704725 h 4.049662 V 20.313834 h 7.110577 v 3.060914 H 33.982774 Z"
           style="font-weight:bold;-inkscape-font-specification:'sans-serif Bold';text-align:center;text-anchor:middle"
           id="path12421" />
        <path
           d="m 47.709554,7.6704725 h 4.049662 V 20.313834 h 7.110577 v 3.060914 H 47.709554 Z"
           style="font-weight:bold;-inkscape-font-specification:'sans-serif Bold';text-align:center;text-anchor:middle"
           id="path12423" />
        <path
           d="M 1.2488806,42.466014 H 14.449729 v 2.450835 L 6.0243268,55.109376 H 14.691656 V 58.17029 H 1.0069527 V 55.719455 L 9.4323545,45.526928 H 1.2488806 Z"
           style="font-weight:bold;-inkscape-font-specification:'sans-serif Bold';text-align:center;text-anchor:middle"
           id="path12425" />
        <path
           d="m 24.810553,45.116703 q -1.851274,0 -2.871579,1.367418 -1.020304,1.367419 -1.020304,3.849809 0,2.471872 1.020304,3.839291 1.020305,1.367418 2.871579,1.367418 1.861793,0 2.882098,-1.367418 1.020304,-1.367419 1.020304,-3.839291 0,-2.48239 -1.020304,-3.849809 -1.020305,-1.367418 -2.882098,-1.367418 z m 0,-2.934691 q 3.786698,0 5.932493,2.166833 2.145795,2.166832 2.145795,5.985085 0,3.807735 -2.145795,5.974567 -2.145795,2.166833 -5.932493,2.166833 -3.776179,0 -5.932492,-2.166833 -2.145796,-2.166832 -2.145796,-5.974567 0,-3.818253 2.145796,-5.985085 2.156313,-2.166833 5.932492,-2.166833 z"
           style="font-weight:bold;-inkscape-font-specification:'sans-serif Bold';text-align:center;text-anchor:middle"
           id="path12427" />
        <path
           d="m 35.949753,42.466014 h 4.522999 l 5.711602,10.771051 V 42.466014 h 3.839291 V 58.17029 h -4.523 L 39.789043,47.39924 v 10.77105 h -3.83929 z"
           style="font-weight:bold;-inkscape-font-specification:'sans-serif Bold';text-align:center;text-anchor:middle"
           id="path12429" />
        <path
           d="m 53.978641,42.466014 h 10.92883 v 3.060914 H 58.028304 V 48.4511 h 6.468941 v 3.060914 h -6.468941 v 3.597362 H 65.13888 V 58.17029 H 53.978641 Z"
           style="font-weight:bold;-inkscape-font-specification:'sans-serif Bold';text-align:center;text-anchor:middle"
           id="path12431" />
      </g>
    </g>
  </g>
</svg>
