<?xml version="1.0" encoding="UTF-8" standalone="no"?>
<!-- Created with Inkscape (http://www.inkscape.org/) -->

<svg
   width="750"
   height="500.00006"
   viewBox="0 0 198.4375 132.29168"
   version="1.1"
   id="svg5"
   inkscape:version="1.1.1 (3bf5ae0d25, 2021-09-20, custom)"
   sodipodi:docname="triggerZone.svg"
   xmlns:inkscape="http://www.inkscape.org/namespaces/inkscape"
   xmlns:sodipodi="http://sodipodi.sourceforge.net/DTD/sodipodi-0.dtd"
   xmlns="http://www.w3.org/2000/svg"
   xmlns:svg="http://www.w3.org/2000/svg">
  <sodipodi:namedview
     id="namedview7"
     pagecolor="#505050"
     bordercolor="#ffffff"
     borderopacity="1"
     inkscape:pageshadow="0"
     inkscape:pageopacity="0"
     inkscape:pagecheckerboard="1"
     inkscape:document-units="mm"
     showgrid="false"
     units="px"
     width="250px"
     inkscape:snap-page="true"
     inkscape:snap-bbox="true"
     inkscape:snap-bbox-edge-midpoints="false"
     inkscape:snap-bbox-midpoints="true"
     inkscape:snap-object-midpoints="false"
     inkscape:zoom="0.91591557"
     inkscape:cx="383.769"
     inkscape:cy="248.38534"
     inkscape:window-width="1920"
     inkscape:window-height="1022"
     inkscape:window-x="0"
     inkscape:window-y="28"
     inkscape:window-maximized="1"
     inkscape:current-layer="layer1"
     inkscape:bbox-nodes="true"
     fit-margin-top="0"
     fit-margin-left="0"
     fit-margin-right="0"
     fit-margin-bottom="0"
     inkscape:snap-global="true" />
  <defs
     id="defs2" />
  <g
     inkscape:label="Layer 1"
     inkscape:groupmode="layer"
     id="layer1"
     transform="translate(66.145836,-132.29166)">
    <path
       id="rect7182"
       style="fill:#d9e100;fill-opacity:0.43809402;stroke-width:0.499999;stroke-linecap:round;stroke-linejoin:round"
       d="m 66.145836,132.29166 h 66.145834 v 66.14583 H 66.145836 Z" />
    <path
       id="rect7264"
       style="fill:#d9e100;fill-opacity:0.43809402;stroke-width:0.499999;stroke-linecap:round;stroke-linejoin:round"
       d="m 0,132.29166 h 66.145836 v 66.14583 H 0 Z" />
    <path
       id="rect7266"
       style="fill:#d9e100;fill-opacity:0.43809402;stroke-width:0.499999;stroke-linecap:round;stroke-linejoin:round"
       d="M -66.145836,198.4375 H 0 v 66.14584 h -66.145836 z" />
    <path
       id="rect7268"
       style="fill:#d9e100;fill-opacity:0.43809402;stroke-width:0.499999;stroke-linecap:round;stroke-linejoin:round"
       d="M -66.145836,132.29166 H 0 v 66.14583 h -66.145836 z" />
    <path
       id="rect7270"
       style="fill:#d9e100;fill-opacity:0.43809402;stroke-width:0.499999;stroke-linecap:round;stroke-linejoin:round"
       d="m 66.145836,198.4375 h 66.145834 v 66.14584 H 66.145836 Z" />
    <path
       id="rect7272"
       style="fill:#d9e100;fill-opacity:0.43809402;stroke-width:0.499999;stroke-linecap:round;stroke-linejoin:round"
       d="m 0,198.4375 h 66.145836 v 66.14584 H 0 Z" />
    <g
       id="use25361"
       transform="translate(3.391662,-66.14585)"
       inkscape:tile-x0="6.9253471"
       inkscape:tile-y0="9.467369">
      <g
         aria-label="TRIGGER"
         id="g25405"
         style="font-size:10.5833px;line-height:1.25;stroke-width:0.264583">
        <path
           d="m -59.192431,208.04441 h 7.110654 v 1.50378 h -2.557975 v 6.21148 h -1.989536 v -6.21148 h -2.563143 z"
           style="font-weight:bold;text-align:center;text-anchor:middle"
           id="path25391" />
        <path
           d="m -48.226727,211.46538 q 0.625283,0 0.893999,-0.23255 0.273884,-0.23254 0.273884,-0.76481 0,-0.52709 -0.273884,-0.75447 -0.268716,-0.22737 -0.893999,-0.22737 h -0.837156 v 1.9792 z m -0.837156,1.37458 v 2.91971 h -1.989536 v -7.71526 h 3.038564 q 1.52445,0 2.232415,0.51159 0.713133,0.5116 0.713133,1.61747 0,0.76481 -0.372069,1.25573 -0.366902,0.49093 -1.11104,0.72347 0.408242,0.093 0.728635,0.42375 0.325561,0.32556 0.656289,0.99218 l 1.080034,2.19107 h -2.118727 l -0.940508,-1.91719 q -0.28422,-0.57877 -0.578774,-0.79064 -0.289388,-0.21188 -0.775144,-0.21188 z"
           style="font-weight:bold;text-align:center;text-anchor:middle"
           id="path25393" />
        <path
           d="m -42.904072,208.04441 h 1.989536 v 7.71526 h -1.989536 z"
           style="font-weight:bold;text-align:center;text-anchor:middle"
           id="path25395" />
        <path
           d="m -32.031385,215.18607 q -0.744138,0.36173 -1.54512,0.5426 -0.800982,0.18087 -1.653641,0.18087 -1.927525,0 -3.054067,-1.07487 -1.126543,-1.08004 -1.126543,-2.92488 0,-1.86551 1.147213,-2.93521 1.147213,-1.0697 3.141917,-1.0697 0.769977,0 1.472774,0.14469 0.707965,0.1447 1.333248,0.42892 v 1.59679 q -0.645954,-0.3669 -1.286739,-0.54776 -0.635619,-0.18087 -1.276404,-0.18087 -1.188554,0 -1.834508,0.66662 -0.640786,0.66146 -0.640786,1.89652 0,1.22473 0.620116,1.89135 0.620115,0.66663 1.76216,0.66663 0.310058,0 0.573607,-0.0362 0.268717,-0.0413 0.480589,-0.12402 v -1.49861 h -1.214392 v -1.33325 h 3.100576 z"
           style="font-weight:bold;text-align:center;text-anchor:middle"
           id="path25397" />
        <path
           d="m -23.344604,215.18607 q -0.744138,0.36173 -1.54512,0.5426 -0.800983,0.18087 -1.653641,0.18087 -1.927525,0 -3.054067,-1.07487 -1.126543,-1.08004 -1.126543,-2.92488 0,-1.86551 1.147213,-2.93521 1.147213,-1.0697 3.141917,-1.0697 0.769977,0 1.472774,0.14469 0.707965,0.1447 1.333248,0.42892 v 1.59679 q -0.645954,-0.3669 -1.28674,-0.54776 -0.635618,-0.18087 -1.276403,-0.18087 -1.188555,0 -1.834508,0.66662 -0.640786,0.66146 -0.640786,1.89652 0,1.22473 0.620116,1.89135 0.620115,0.66663 1.76216,0.66663 0.310058,0 0.573607,-0.0362 0.268717,-0.0413 0.480589,-0.12402 v -1.49861 h -1.214392 v -1.33325 h 3.100576 z"
           style="font-weight:bold;text-align:center;text-anchor:middle"
           id="path25399" />
        <path
           d="m -21.59278,208.04441 h 5.369164 v 1.50378 h -3.379628 v 1.4366 h 3.178091 v 1.50378 h -3.178091 v 1.76732 h 3.493316 v 1.50378 h -5.482852 z"
           style="font-weight:bold;text-align:center;text-anchor:middle"
           id="path25401" />
        <path
           d="m -11.536577,211.46538 q 0.625283,0 0.893999,-0.23255 0.273885,-0.23254 0.273885,-0.76481 0,-0.52709 -0.273885,-0.75447 -0.268716,-0.22737 -0.893999,-0.22737 h -0.837156 v 1.9792 z m -0.837156,1.37458 v 2.91971 h -1.989536 v -7.71526 h 3.038565 q 1.5244496,0 2.2324145,0.51159 0.7131324,0.5116 0.7131324,1.61747 0,0.76481 -0.3720691,1.25573 -0.3669015,0.49093 -1.1110397,0.72347 0.4082425,0.093 0.7286353,0.42375 0.3255605,0.32556 0.6562886,0.99218 l 1.080034,2.19107 h -2.1187269 l -0.9405081,-1.91719 q -0.284219,-0.57877 -0.578774,-0.79064 -0.289387,-0.21188 -0.775144,-0.21188 z"
           style="font-weight:bold;text-align:center;text-anchor:middle"
           id="path25403" />
      </g>
      <g
         aria-label="TRIGGER"
         id="g25421"
         style="font-size:10.5833px;line-height:1.25;stroke-width:0.264583">
        <path
           d="m -58.943488,221.11322 h 7.110655 v 1.50378 h -2.557976 v 6.21149 h -1.989536 V 222.617 h -2.563143 z"
           style="font-weight:bold;text-align:center;text-anchor:middle"
           id="path25407" />
        <path
           d="m -47.977784,224.53419 q 0.625283,0 0.893999,-0.23254 0.273885,-0.23254 0.273885,-0.76481 0,-0.5271 -0.273885,-0.75447 -0.268716,-0.22738 -0.893999,-0.22738 h -0.837155 v 1.9792 z m -0.837155,1.37459 v 2.91971 h -1.989537 v -7.71527 h 3.038565 q 1.52445,0 2.232415,0.5116 0.713132,0.51159 0.713132,1.61747 0,0.76481 -0.372069,1.25573 -0.366902,0.49092 -1.11104,0.72347 0.408243,0.093 0.728636,0.42374 0.32556,0.32556 0.656288,0.99219 l 1.080034,2.19107 h -2.118727 l -0.940508,-1.91719 q -0.284219,-0.57877 -0.578774,-0.79065 -0.289387,-0.21187 -0.775144,-0.21187 z"
           style="font-weight:bold;text-align:center;text-anchor:middle"
           id="path25409" />
        <path
           d="m -42.655128,221.11322 h 1.989536 v 7.71527 h -1.989536 z"
           style="font-weight:bold;text-align:center;text-anchor:middle"
           id="path25411" />
        <path
           d="m -31.782442,228.25488 q -0.744138,0.36174 -1.54512,0.54261 -0.800982,0.18086 -1.653641,0.18086 -1.927524,0 -3.054067,-1.07486 -1.126543,-1.08004 -1.126543,-2.92488 0,-1.86551 1.147213,-2.93521 1.147214,-1.0697 3.141918,-1.0697 0.769976,0 1.472773,0.14469 0.707965,0.1447 1.333248,0.42892 v 1.59679 q -0.645953,-0.3669 -1.286739,-0.54777 -0.635618,-0.18086 -1.276404,-0.18086 -1.188554,0 -1.834507,0.66662 -0.640786,0.66146 -0.640786,1.89652 0,1.22473 0.620115,1.89135 0.620115,0.66662 1.762161,0.66662 0.310057,0 0.573606,-0.0362 0.268717,-0.0413 0.48059,-0.12402 v -1.49861 h -1.214393 v -1.33325 h 3.100576 z"
           style="font-weight:bold;text-align:center;text-anchor:middle"
           id="path25413" />
        <path
           d="m -23.095661,228.25488 q -0.744138,0.36174 -1.54512,0.54261 -0.800982,0.18086 -1.653641,0.18086 -1.927524,0 -3.054067,-1.07486 -1.126543,-1.08004 -1.126543,-2.92488 0,-1.86551 1.147213,-2.93521 1.147214,-1.0697 3.141918,-1.0697 0.769976,0 1.472773,0.14469 0.707965,0.1447 1.333248,0.42892 v 1.59679 q -0.645954,-0.3669 -1.286739,-0.54777 -0.635618,-0.18086 -1.276404,-0.18086 -1.188554,0 -1.834508,0.66662 -0.640785,0.66146 -0.640785,1.89652 0,1.22473 0.620115,1.89135 0.620115,0.66662 1.762161,0.66662 0.310057,0 0.573606,-0.0362 0.268717,-0.0413 0.48059,-0.12402 v -1.49861 h -1.214393 v -1.33325 h 3.100576 z"
           style="font-weight:bold;text-align:center;text-anchor:middle"
           id="path25415" />
        <path
           d="m -21.343837,221.11322 h 5.369164 V 222.617 H -19.3543 v 1.4366 h 3.17809 v 1.50378 h -3.17809 v 1.76733 h 3.493315 v 1.50378 h -5.482852 z"
           style="font-weight:bold;text-align:center;text-anchor:middle"
           id="path25417" />
        <path
           d="m -11.287634,224.53419 q 0.625283,0 0.894,-0.23254 0.273884,-0.23254 0.273884,-0.76481 0,-0.5271 -0.273884,-0.75447 -0.268717,-0.22738 -0.894,-0.22738 h -0.837155 v 1.9792 z m -0.837155,1.37459 v 2.91971 h -1.989537 v -7.71527 h 3.038565 q 1.5244499,0 2.2324148,0.5116 0.7131325,0.51159 0.7131325,1.61747 0,0.76481 -0.3720692,1.25573 -0.3669015,0.49092 -1.1110397,0.72347 0.4082425,0.093 0.7286354,0.42374 0.3255605,0.32556 0.6562886,0.99219 l 1.080034,2.19107 h -2.118727 L -10.2076,226.9113 q -0.284219,-0.57877 -0.578774,-0.79065 -0.289387,-0.21187 -0.775144,-0.21187 z"
           style="font-weight:bold;text-align:center;text-anchor:middle"
           id="path25419" />
      </g>
      <g
         aria-label="TRIGGER"
         id="g25437"
         style="font-size:10.5833px;line-height:1.25;stroke-width:0.264583">
        <path
           d="m -58.720469,234.18203 h 7.110654 v 1.50378 h -2.557975 v 6.21148 h -1.989536 v -6.21148 h -2.563143 z"
           style="font-weight:bold;text-align:center;text-anchor:middle"
           id="path25423" />
        <path
           d="m -47.754765,237.603 q 0.625283,0 0.893999,-0.23255 0.273884,-0.23254 0.273884,-0.76481 0,-0.52709 -0.273884,-0.75447 -0.268716,-0.22738 -0.893999,-0.22738 h -0.837156 v 1.97921 z m -0.837156,1.37458 v 2.91971 h -1.989536 v -7.71526 h 3.038564 q 1.52445,0 2.232415,0.51159 0.713133,0.5116 0.713133,1.61747 0,0.76481 -0.372069,1.25573 -0.366902,0.49093 -1.11104,0.72347 0.408242,0.093 0.728635,0.42374 0.325561,0.32557 0.656289,0.99219 l 1.080034,2.19107 h -2.118727 l -0.940508,-1.91719 q -0.28422,-0.57877 -0.578775,-0.79064 -0.289387,-0.21188 -0.775144,-0.21188 z"
           style="font-weight:bold;text-align:center;text-anchor:middle"
           id="path25425" />
        <path
           d="m -42.43211,234.18203 h 1.989536 v 7.71526 h -1.989536 z"
           style="font-weight:bold;text-align:center;text-anchor:middle"
           id="path25427" />
        <path
           d="m -31.559423,241.32369 q -0.744138,0.36173 -1.54512,0.5426 -0.800983,0.18086 -1.653641,0.18086 -1.927525,0 -3.054067,-1.07486 -1.126543,-1.08004 -1.126543,-2.92488 0,-1.86551 1.147213,-2.93521 1.147213,-1.0697 3.141917,-1.0697 0.769977,0 1.472774,0.14469 0.707965,0.1447 1.333248,0.42892 v 1.59679 q -0.645954,-0.3669 -1.28674,-0.54776 -0.635618,-0.18087 -1.276403,-0.18087 -1.188554,0 -1.834508,0.66662 -0.640786,0.66146 -0.640786,1.89652 0,1.22473 0.620116,1.89135 0.620115,0.66663 1.76216,0.66663 0.310058,0 0.573607,-0.0362 0.268717,-0.0413 0.480589,-0.12402 v -1.49861 h -1.214392 v -1.33325 h 3.100576 z"
           style="font-weight:bold;text-align:center;text-anchor:middle"
           id="path25429" />
        <path
           d="m -22.872642,241.32369 q -0.744138,0.36173 -1.54512,0.5426 -0.800983,0.18086 -1.653641,0.18086 -1.927525,0 -3.054067,-1.07486 -1.126543,-1.08004 -1.126543,-2.92488 0,-1.86551 1.147213,-2.93521 1.147213,-1.0697 3.141917,-1.0697 0.769977,0 1.472774,0.14469 0.707965,0.1447 1.333247,0.42892 v 1.59679 q -0.645953,-0.3669 -1.286739,-0.54776 -0.635618,-0.18087 -1.276403,-0.18087 -1.188555,0 -1.834508,0.66662 -0.640786,0.66146 -0.640786,1.89652 0,1.22473 0.620116,1.89135 0.620115,0.66663 1.76216,0.66663 0.310058,0 0.573607,-0.0362 0.268716,-0.0413 0.480589,-0.12402 v -1.49861 h -1.214392 v -1.33325 h 3.100576 z"
           style="font-weight:bold;text-align:center;text-anchor:middle"
           id="path25431" />
        <path
           d="m -21.120818,234.18203 h 5.369164 v 1.50378 h -3.379628 v 1.4366 h 3.178091 v 1.50378 h -3.178091 v 1.76732 h 3.493316 v 1.50378 h -5.482852 z"
           style="font-weight:bold;text-align:center;text-anchor:middle"
           id="path25433" />
        <path
           d="m -11.064615,237.603 q 0.625283,0 0.893999,-0.23255 0.2738846,-0.23254 0.2738846,-0.76481 0,-0.52709 -0.2738846,-0.75447 -0.268716,-0.22738 -0.893999,-0.22738 h -0.837156 v 1.97921 z m -0.837156,1.37458 v 2.91971 h -1.989536 v -7.71526 h 3.038565 q 1.5244496,0 2.2324144,0.51159 0.7131325,0.5116 0.7131325,1.61747 0,0.76481 -0.3720691,1.25573 -0.3669015,0.49093 -1.1110398,0.72347 0.4082426,0.093 0.7286354,0.42374 0.3255605,0.32557 0.6562886,0.99219 l 1.080034,2.19107 h -2.118727 l -0.940508,-1.91719 q -0.28422,-0.57877 -0.578774,-0.79064 -0.289387,-0.21188 -0.775144,-0.21188 z"
           style="font-weight:bold;text-align:center;text-anchor:middle"
           id="path25435" />
      </g>
      <g
         aria-label="TRIGGER"
         id="g25453"
         style="font-size:10.5833px;line-height:1.25;stroke-width:0.264583">
        <path
           d="m -59.220488,247.25084 h 7.110654 v 1.50378 h -2.557975 v 6.21149 h -1.989536 v -6.21149 h -2.563143 z"
           style="font-weight:bold;text-align:center;text-anchor:middle"
           id="path25439" />
        <path
           d="m -48.254784,250.67181 q 0.625282,0 0.893999,-0.23254 0.273884,-0.23254 0.273884,-0.76481 0,-0.5271 -0.273884,-0.75447 -0.268717,-0.22738 -0.893999,-0.22738 h -0.837156 v 1.9792 z m -0.837156,1.37459 v 2.91971 h -1.989536 v -7.71527 h 3.038564 q 1.52445,0 2.232415,0.5116 0.713133,0.51159 0.713133,1.61747 0,0.7648 -0.37207,1.25573 -0.366901,0.49092 -1.111039,0.72347 0.408242,0.093 0.728635,0.42374 0.325561,0.32556 0.656289,0.99219 l 1.080034,2.19107 h -2.118727 l -0.940508,-1.91719 q -0.28422,-0.57877 -0.578775,-0.79065 -0.289387,-0.21187 -0.775144,-0.21187 z"
           style="font-weight:bold;text-align:center;text-anchor:middle"
           id="path25441" />
        <path
           d="m -42.932129,247.25084 h 1.989536 v 7.71527 h -1.989536 z"
           style="font-weight:bold;text-align:center;text-anchor:middle"
           id="path25443" />
        <path
           d="m -32.059442,254.3925 q -0.744138,0.36174 -1.54512,0.5426 -0.800983,0.18087 -1.653641,0.18087 -1.927525,0 -3.054067,-1.07486 -1.126543,-1.08004 -1.126543,-2.92488 0,-1.86551 1.147213,-2.93521 1.147213,-1.0697 3.141917,-1.0697 0.769977,0 1.472774,0.14469 0.707965,0.14469 1.333247,0.42891 v 1.5968 q -0.645953,-0.3669 -1.286739,-0.54777 -0.635618,-0.18086 -1.276403,-0.18086 -1.188555,0 -1.834508,0.66662 -0.640786,0.66146 -0.640786,1.89652 0,1.22473 0.620116,1.89135 0.620115,0.66662 1.76216,0.66662 0.310058,0 0.573607,-0.0362 0.268716,-0.0413 0.480589,-0.12402 v -1.49861 h -1.214392 v -1.33325 h 3.100576 z"
           style="font-weight:bold;text-align:center;text-anchor:middle"
           id="path25445" />
        <path
           d="m -23.372661,254.3925 q -0.744138,0.36174 -1.545121,0.5426 -0.800982,0.18087 -1.65364,0.18087 -1.927525,0 -3.054068,-1.07486 -1.126542,-1.08004 -1.126542,-2.92488 0,-1.86551 1.147213,-2.93521 1.147213,-1.0697 3.141917,-1.0697 0.769976,0 1.472774,0.14469 0.707965,0.14469 1.333247,0.42891 v 1.5968 q -0.645953,-0.3669 -1.286739,-0.54777 -0.635618,-0.18086 -1.276403,-0.18086 -1.188555,0 -1.834508,0.66662 -0.640786,0.66146 -0.640786,1.89652 0,1.22473 0.620116,1.89135 0.620115,0.66662 1.76216,0.66662 0.310058,0 0.573607,-0.0362 0.268716,-0.0413 0.480589,-0.12402 v -1.49861 h -1.214392 v -1.33325 h 3.100576 z"
           style="font-weight:bold;text-align:center;text-anchor:middle"
           id="path25447" />
        <path
           d="m -21.620837,247.25084 h 5.369164 v 1.50378 h -3.379628 v 1.4366 h 3.178091 v 1.50378 h -3.178091 v 1.76733 h 3.493316 v 1.50378 h -5.482852 z"
           style="font-weight:bold;text-align:center;text-anchor:middle"
           id="path25449" />
        <path
           d="m -11.564634,250.67181 q 0.625283,0 0.893999,-0.23254 0.273885,-0.23254 0.273885,-0.76481 0,-0.5271 -0.273885,-0.75447 -0.268716,-0.22738 -0.893999,-0.22738 h -0.837156 v 1.9792 z m -0.837156,1.37459 v 2.91971 h -1.989536 v -7.71527 h 3.038565 q 1.5244495,0 2.2324144,0.5116 0.7131324,0.51159 0.7131324,1.61747 0,0.7648 -0.3720691,1.25573 -0.3669015,0.49092 -1.1110397,0.72347 0.4082425,0.093 0.7286353,0.42374 0.3255605,0.32556 0.6562886,0.99219 l 1.080034,2.19107 H -9.544092 l -0.940508,-1.91719 q -0.28422,-0.57877 -0.578774,-0.79065 -0.289387,-0.21187 -0.775144,-0.21187 z"
           style="font-weight:bold;text-align:center;text-anchor:middle"
           id="path25451" />
      </g>
    </g>
    <g
       id="use25363"
       inkscape:tile-x0="6.9253471"
       inkscape:tile-y0="9.467369">
      <g
         aria-label="TRIGGER"
         id="g25471"
         style="font-size:10.5833px;line-height:1.25;stroke-width:0.264583">
        <path
           d="m -59.192431,208.04441 h 7.110654 v 1.50378 h -2.557975 v 6.21148 h -1.989536 v -6.21148 h -2.563143 z"
           style="font-weight:bold;text-align:center;text-anchor:middle"
           id="path25457" />
        <path
           d="m -48.226727,211.46538 q 0.625283,0 0.893999,-0.23255 0.273884,-0.23254 0.273884,-0.76481 0,-0.52709 -0.273884,-0.75447 -0.268716,-0.22737 -0.893999,-0.22737 h -0.837156 v 1.9792 z m -0.837156,1.37458 v 2.91971 h -1.989536 v -7.71526 h 3.038564 q 1.52445,0 2.232415,0.51159 0.713133,0.5116 0.713133,1.61747 0,0.76481 -0.372069,1.25573 -0.366902,0.49093 -1.11104,0.72347 0.408242,0.093 0.728635,0.42375 0.325561,0.32556 0.656289,0.99218 l 1.080034,2.19107 h -2.118727 l -0.940508,-1.91719 q -0.28422,-0.57877 -0.578774,-0.79064 -0.289388,-0.21188 -0.775144,-0.21188 z"
           style="font-weight:bold;text-align:center;text-anchor:middle"
           id="path25459" />
        <path
           d="m -42.904072,208.04441 h 1.989536 v 7.71526 h -1.989536 z"
           style="font-weight:bold;text-align:center;text-anchor:middle"
           id="path25461" />
        <path
           d="m -32.031385,215.18607 q -0.744138,0.36173 -1.54512,0.5426 -0.800982,0.18087 -1.653641,0.18087 -1.927525,0 -3.054067,-1.07487 -1.126543,-1.08004 -1.126543,-2.92488 0,-1.86551 1.147213,-2.93521 1.147213,-1.0697 3.141917,-1.0697 0.769977,0 1.472774,0.14469 0.707965,0.1447 1.333248,0.42892 v 1.59679 q -0.645954,-0.3669 -1.286739,-0.54776 -0.635619,-0.18087 -1.276404,-0.18087 -1.188554,0 -1.834508,0.66662 -0.640786,0.66146 -0.640786,1.89652 0,1.22473 0.620116,1.89135 0.620115,0.66663 1.76216,0.66663 0.310058,0 0.573607,-0.0362 0.268717,-0.0413 0.480589,-0.12402 v -1.49861 h -1.214392 v -1.33325 h 3.100576 z"
           style="font-weight:bold;text-align:center;text-anchor:middle"
           id="path25463" />
        <path
           d="m -23.344604,215.18607 q -0.744138,0.36173 -1.54512,0.5426 -0.800983,0.18087 -1.653641,0.18087 -1.927525,0 -3.054067,-1.07487 -1.126543,-1.08004 -1.126543,-2.92488 0,-1.86551 1.147213,-2.93521 1.147213,-1.0697 3.141917,-1.0697 0.769977,0 1.472774,0.14469 0.707965,0.1447 1.333248,0.42892 v 1.59679 q -0.645954,-0.3669 -1.28674,-0.54776 -0.635618,-0.18087 -1.276403,-0.18087 -1.188555,0 -1.834508,0.66662 -0.640786,0.66146 -0.640786,1.89652 0,1.22473 0.620116,1.89135 0.620115,0.66663 1.76216,0.66663 0.310058,0 0.573607,-0.0362 0.268717,-0.0413 0.480589,-0.12402 v -1.49861 h -1.214392 v -1.33325 h 3.100576 z"
           style="font-weight:bold;text-align:center;text-anchor:middle"
           id="path25465" />
        <path
           d="m -21.59278,208.04441 h 5.369164 v 1.50378 h -3.379628 v 1.4366 h 3.178091 v 1.50378 h -3.178091 v 1.76732 h 3.493316 v 1.50378 h -5.482852 z"
           style="font-weight:bold;text-align:center;text-anchor:middle"
           id="path25467" />
        <path
           d="m -11.536577,211.46538 q 0.625283,0 0.893999,-0.23255 0.273885,-0.23254 0.273885,-0.76481 0,-0.52709 -0.273885,-0.75447 -0.268716,-0.22737 -0.893999,-0.22737 h -0.837156 v 1.9792 z m -0.837156,1.37458 v 2.91971 h -1.989536 v -7.71526 h 3.038565 q 1.5244496,0 2.2324145,0.51159 0.7131324,0.5116 0.7131324,1.61747 0,0.76481 -0.3720691,1.25573 -0.3669015,0.49093 -1.1110397,0.72347 0.4082425,0.093 0.7286353,0.42375 0.3255605,0.32556 0.6562886,0.99218 l 1.080034,2.19107 h -2.1187269 l -0.9405081,-1.91719 q -0.284219,-0.57877 -0.578774,-0.79064 -0.289387,-0.21188 -0.775144,-0.21188 z"
           style="font-weight:bold;text-align:center;text-anchor:middle"
           id="path25469" />
      </g>
      <g
         aria-label="TRIGGER"
         id="g25487"
         style="font-size:10.5833px;line-height:1.25;stroke-width:0.264583">
        <path
           d="m -58.943488,221.11322 h 7.110655 v 1.50378 h -2.557976 v 6.21149 h -1.989536 V 222.617 h -2.563143 z"
           style="font-weight:bold;text-align:center;text-anchor:middle"
           id="path25473" />
        <path
           d="m -47.977784,224.53419 q 0.625283,0 0.893999,-0.23254 0.273885,-0.23254 0.273885,-0.76481 0,-0.5271 -0.273885,-0.75447 -0.268716,-0.22738 -0.893999,-0.22738 h -0.837155 v 1.9792 z m -0.837155,1.37459 v 2.91971 h -1.989537 v -7.71527 h 3.038565 q 1.52445,0 2.232415,0.5116 0.713132,0.51159 0.713132,1.61747 0,0.76481 -0.372069,1.25573 -0.366902,0.49092 -1.11104,0.72347 0.408243,0.093 0.728636,0.42374 0.32556,0.32556 0.656288,0.99219 l 1.080034,2.19107 h -2.118727 l -0.940508,-1.91719 q -0.284219,-0.57877 -0.578774,-0.79065 -0.289387,-0.21187 -0.775144,-0.21187 z"
           style="font-weight:bold;text-align:center;text-anchor:middle"
           id="path25475" />
        <path
           d="m -42.655128,221.11322 h 1.989536 v 7.71527 h -1.989536 z"
           style="font-weight:bold;text-align:center;text-anchor:middle"
           id="path25477" />
        <path
           d="m -31.782442,228.25488 q -0.744138,0.36174 -1.54512,0.54261 -0.800982,0.18086 -1.653641,0.18086 -1.927524,0 -3.054067,-1.07486 -1.126543,-1.08004 -1.126543,-2.92488 0,-1.86551 1.147213,-2.93521 1.147214,-1.0697 3.141918,-1.0697 0.769976,0 1.472773,0.14469 0.707965,0.1447 1.333248,0.42892 v 1.59679 q -0.645953,-0.3669 -1.286739,-0.54777 -0.635618,-0.18086 -1.276404,-0.18086 -1.188554,0 -1.834507,0.66662 -0.640786,0.66146 -0.640786,1.89652 0,1.22473 0.620115,1.89135 0.620115,0.66662 1.762161,0.66662 0.310057,0 0.573606,-0.0362 0.268717,-0.0413 0.48059,-0.12402 v -1.49861 h -1.214393 v -1.33325 h 3.100576 z"
           style="font-weight:bold;text-align:center;text-anchor:middle"
           id="path25479" />
        <path
           d="m -23.095661,228.25488 q -0.744138,0.36174 -1.54512,0.54261 -0.800982,0.18086 -1.653641,0.18086 -1.927524,0 -3.054067,-1.07486 -1.126543,-1.08004 -1.126543,-2.92488 0,-1.86551 1.147213,-2.93521 1.147214,-1.0697 3.141918,-1.0697 0.769976,0 1.472773,0.14469 0.707965,0.1447 1.333248,0.42892 v 1.59679 q -0.645954,-0.3669 -1.286739,-0.54777 -0.635618,-0.18086 -1.276404,-0.18086 -1.188554,0 -1.834508,0.66662 -0.640785,0.66146 -0.640785,1.89652 0,1.22473 0.620115,1.89135 0.620115,0.66662 1.762161,0.66662 0.310057,0 0.573606,-0.0362 0.268717,-0.0413 0.48059,-0.12402 v -1.49861 h -1.214393 v -1.33325 h 3.100576 z"
           style="font-weight:bold;text-align:center;text-anchor:middle"
           id="path25481" />
        <path
           d="m -21.343837,221.11322 h 5.369164 V 222.617 H -19.3543 v 1.4366 h 3.17809 v 1.50378 h -3.17809 v 1.76733 h 3.493315 v 1.50378 h -5.482852 z"
           style="font-weight:bold;text-align:center;text-anchor:middle"
           id="path25483" />
        <path
           d="m -11.287634,224.53419 q 0.625283,0 0.894,-0.23254 0.273884,-0.23254 0.273884,-0.76481 0,-0.5271 -0.273884,-0.75447 -0.268717,-0.22738 -0.894,-0.22738 h -0.837155 v 1.9792 z m -0.837155,1.37459 v 2.91971 h -1.989537 v -7.71527 h 3.038565 q 1.5244499,0 2.2324148,0.5116 0.7131325,0.51159 0.7131325,1.61747 0,0.76481 -0.3720692,1.25573 -0.3669015,0.49092 -1.1110397,0.72347 0.4082425,0.093 0.7286354,0.42374 0.3255605,0.32556 0.6562886,0.99219 l 1.080034,2.19107 h -2.118727 L -10.2076,226.9113 q -0.284219,-0.57877 -0.578774,-0.79065 -0.289387,-0.21187 -0.775144,-0.21187 z"
           style="font-weight:bold;text-align:center;text-anchor:middle"
           id="path25485" />
      </g>
      <g
         aria-label="TRIGGER"
         id="g25503"
         style="font-size:10.5833px;line-height:1.25;stroke-width:0.264583">
        <path
           d="m -58.720469,234.18203 h 7.110654 v 1.50378 h -2.557975 v 6.21148 h -1.989536 v -6.21148 h -2.563143 z"
           style="font-weight:bold;text-align:center;text-anchor:middle"
           id="path25489" />
        <path
           d="m -47.754765,237.603 q 0.625283,0 0.893999,-0.23255 0.273884,-0.23254 0.273884,-0.76481 0,-0.52709 -0.273884,-0.75447 -0.268716,-0.22738 -0.893999,-0.22738 h -0.837156 v 1.97921 z m -0.837156,1.37458 v 2.91971 h -1.989536 v -7.71526 h 3.038564 q 1.52445,0 2.232415,0.51159 0.713133,0.5116 0.713133,1.61747 0,0.76481 -0.372069,1.25573 -0.366902,0.49093 -1.11104,0.72347 0.408242,0.093 0.728635,0.42374 0.325561,0.32557 0.656289,0.99219 l 1.080034,2.19107 h -2.118727 l -0.940508,-1.91719 q -0.28422,-0.57877 -0.578775,-0.79064 -0.289387,-0.21188 -0.775144,-0.21188 z"
           style="font-weight:bold;text-align:center;text-anchor:middle"
           id="path25491" />
        <path
           d="m -42.43211,234.18203 h 1.989536 v 7.71526 h -1.989536 z"
           style="font-weight:bold;text-align:center;text-anchor:middle"
           id="path25493" />
        <path
           d="m -31.559423,241.32369 q -0.744138,0.36173 -1.54512,0.5426 -0.800983,0.18086 -1.653641,0.18086 -1.927525,0 -3.054067,-1.07486 -1.126543,-1.08004 -1.126543,-2.92488 0,-1.86551 1.147213,-2.93521 1.147213,-1.0697 3.141917,-1.0697 0.769977,0 1.472774,0.14469 0.707965,0.1447 1.333248,0.42892 v 1.59679 q -0.645954,-0.3669 -1.28674,-0.54776 -0.635618,-0.18087 -1.276403,-0.18087 -1.188554,0 -1.834508,0.66662 -0.640786,0.66146 -0.640786,1.89652 0,1.22473 0.620116,1.89135 0.620115,0.66663 1.76216,0.66663 0.310058,0 0.573607,-0.0362 0.268717,-0.0413 0.480589,-0.12402 v -1.49861 h -1.214392 v -1.33325 h 3.100576 z"
           style="font-weight:bold;text-align:center;text-anchor:middle"
           id="path25495" />
        <path
           d="m -22.872642,241.32369 q -0.744138,0.36173 -1.54512,0.5426 -0.800983,0.18086 -1.653641,0.18086 -1.927525,0 -3.054067,-1.07486 -1.126543,-1.08004 -1.126543,-2.92488 0,-1.86551 1.147213,-2.93521 1.147213,-1.0697 3.141917,-1.0697 0.769977,0 1.472774,0.14469 0.707965,0.1447 1.333247,0.42892 v 1.59679 q -0.645953,-0.3669 -1.286739,-0.54776 -0.635618,-0.18087 -1.276403,-0.18087 -1.188555,0 -1.834508,0.66662 -0.640786,0.66146 -0.640786,1.89652 0,1.22473 0.620116,1.89135 0.620115,0.66663 1.76216,0.66663 0.310058,0 0.573607,-0.0362 0.268716,-0.0413 0.480589,-0.12402 v -1.49861 h -1.214392 v -1.33325 h 3.100576 z"
           style="font-weight:bold;text-align:center;text-anchor:middle"
           id="path25497" />
        <path
           d="m -21.120818,234.18203 h 5.369164 v 1.50378 h -3.379628 v 1.4366 h 3.178091 v 1.50378 h -3.178091 v 1.76732 h 3.493316 v 1.50378 h -5.482852 z"
           style="font-weight:bold;text-align:center;text-anchor:middle"
           id="path25499" />
        <path
           d="m -11.064615,237.603 q 0.625283,0 0.893999,-0.23255 0.2738846,-0.23254 0.2738846,-0.76481 0,-0.52709 -0.2738846,-0.75447 -0.268716,-0.22738 -0.893999,-0.22738 h -0.837156 v 1.97921 z m -0.837156,1.37458 v 2.91971 h -1.989536 v -7.71526 h 3.038565 q 1.5244496,0 2.2324144,0.51159 0.7131325,0.5116 0.7131325,1.61747 0,0.76481 -0.3720691,1.25573 -0.3669015,0.49093 -1.1110398,0.72347 0.4082426,0.093 0.7286354,0.42374 0.3255605,0.32557 0.6562886,0.99219 l 1.080034,2.19107 h -2.118727 l -0.940508,-1.91719 q -0.28422,-0.57877 -0.578774,-0.79064 -0.289387,-0.21188 -0.775144,-0.21188 z"
           style="font-weight:bold;text-align:center;text-anchor:middle"
           id="path25501" />
      </g>
      <g
         aria-label="TRIGGER"
         id="g25519"
         style="font-size:10.5833px;line-height:1.25;stroke-width:0.264583">
        <path
           d="m -59.220488,247.25084 h 7.110654 v 1.50378 h -2.557975 v 6.21149 h -1.989536 v -6.21149 h -2.563143 z"
           style="font-weight:bold;text-align:center;text-anchor:middle"
           id="path25505" />
        <path
           d="m -48.254784,250.67181 q 0.625282,0 0.893999,-0.23254 0.273884,-0.23254 0.273884,-0.76481 0,-0.5271 -0.273884,-0.75447 -0.268717,-0.22738 -0.893999,-0.22738 h -0.837156 v 1.9792 z m -0.837156,1.37459 v 2.91971 h -1.989536 v -7.71527 h 3.038564 q 1.52445,0 2.232415,0.5116 0.713133,0.51159 0.713133,1.61747 0,0.7648 -0.37207,1.25573 -0.366901,0.49092 -1.111039,0.72347 0.408242,0.093 0.728635,0.42374 0.325561,0.32556 0.656289,0.99219 l 1.080034,2.19107 h -2.118727 l -0.940508,-1.91719 q -0.28422,-0.57877 -0.578775,-0.79065 -0.289387,-0.21187 -0.775144,-0.21187 z"
           style="font-weight:bold;text-align:center;text-anchor:middle"
           id="path25507" />
        <path
           d="m -42.932129,247.25084 h 1.989536 v 7.71527 h -1.989536 z"
           style="font-weight:bold;text-align:center;text-anchor:middle"
           id="path25509" />
        <path
           d="m -32.059442,254.3925 q -0.744138,0.36174 -1.54512,0.5426 -0.800983,0.18087 -1.653641,0.18087 -1.927525,0 -3.054067,-1.07486 -1.126543,-1.08004 -1.126543,-2.92488 0,-1.86551 1.147213,-2.93521 1.147213,-1.0697 3.141917,-1.0697 0.769977,0 1.472774,0.14469 0.707965,0.14469 1.333247,0.42891 v 1.5968 q -0.645953,-0.3669 -1.286739,-0.54777 -0.635618,-0.18086 -1.276403,-0.18086 -1.188555,0 -1.834508,0.66662 -0.640786,0.66146 -0.640786,1.89652 0,1.22473 0.620116,1.89135 0.620115,0.66662 1.76216,0.66662 0.310058,0 0.573607,-0.0362 0.268716,-0.0413 0.480589,-0.12402 v -1.49861 h -1.214392 v -1.33325 h 3.100576 z"
           style="font-weight:bold;text-align:center;text-anchor:middle"
           id="path25511" />
        <path
           d="m -23.372661,254.3925 q -0.744138,0.36174 -1.545121,0.5426 -0.800982,0.18087 -1.65364,0.18087 -1.927525,0 -3.054068,-1.07486 -1.126542,-1.08004 -1.126542,-2.92488 0,-1.86551 1.147213,-2.93521 1.147213,-1.0697 3.141917,-1.0697 0.769976,0 1.472774,0.14469 0.707965,0.14469 1.333247,0.42891 v 1.5968 q -0.645953,-0.3669 -1.286739,-0.54777 -0.635618,-0.18086 -1.276403,-0.18086 -1.188555,0 -1.834508,0.66662 -0.640786,0.66146 -0.640786,1.89652 0,1.22473 0.620116,1.89135 0.620115,0.66662 1.76216,0.66662 0.310058,0 0.573607,-0.0362 0.268716,-0.0413 0.480589,-0.12402 v -1.49861 h -1.214392 v -1.33325 h 3.100576 z"
           style="font-weight:bold;text-align:center;text-anchor:middle"
           id="path25513" />
        <path
           d="m -21.620837,247.25084 h 5.369164 v 1.50378 h -3.379628 v 1.4366 h 3.178091 v 1.50378 h -3.178091 v 1.76733 h 3.493316 v 1.50378 h -5.482852 z"
           style="font-weight:bold;text-align:center;text-anchor:middle"
           id="path25515" />
        <path
           d="m -11.564634,250.67181 q 0.625283,0 0.893999,-0.23254 0.273885,-0.23254 0.273885,-0.76481 0,-0.5271 -0.273885,-0.75447 -0.268716,-0.22738 -0.893999,-0.22738 h -0.837156 v 1.9792 z m -0.837156,1.37459 v 2.91971 h -1.989536 v -7.71527 h 3.038565 q 1.5244495,0 2.2324144,0.5116 0.7131324,0.51159 0.7131324,1.61747 0,0.7648 -0.3720691,1.25573 -0.3669015,0.49092 -1.1110397,0.72347 0.4082425,0.093 0.7286353,0.42374 0.3255605,0.32556 0.6562886,0.99219 l 1.080034,2.19107 H -9.544092 l -0.940508,-1.91719 q -0.28422,-0.57877 -0.578774,-0.79065 -0.289387,-0.21187 -0.775144,-0.21187 z"
           style="font-weight:bold;text-align:center;text-anchor:middle"
           id="path25517" />
      </g>
    </g>
    <g
       id="use25365"
       transform="translate(66.145835,-66.14585)"
       inkscape:tile-x0="6.9253471"
       inkscape:tile-y0="9.467369">
      <g
         aria-label="TRIGGER"
         id="g25537"
         style="font-size:10.5833px;line-height:1.25;stroke-width:0.264583">
        <path
           d="m -59.192431,208.04441 h 7.110654 v 1.50378 h -2.557975 v 6.21148 h -1.989536 v -6.21148 h -2.563143 z"
           style="font-weight:bold;text-align:center;text-anchor:middle"
           id="path25523" />
        <path
           d="m -48.226727,211.46538 q 0.625283,0 0.893999,-0.23255 0.273884,-0.23254 0.273884,-0.76481 0,-0.52709 -0.273884,-0.75447 -0.268716,-0.22737 -0.893999,-0.22737 h -0.837156 v 1.9792 z m -0.837156,1.37458 v 2.91971 h -1.989536 v -7.71526 h 3.038564 q 1.52445,0 2.232415,0.51159 0.713133,0.5116 0.713133,1.61747 0,0.76481 -0.372069,1.25573 -0.366902,0.49093 -1.11104,0.72347 0.408242,0.093 0.728635,0.42375 0.325561,0.32556 0.656289,0.99218 l 1.080034,2.19107 h -2.118727 l -0.940508,-1.91719 q -0.28422,-0.57877 -0.578774,-0.79064 -0.289388,-0.21188 -0.775144,-0.21188 z"
           style="font-weight:bold;text-align:center;text-anchor:middle"
           id="path25525" />
        <path
           d="m -42.904072,208.04441 h 1.989536 v 7.71526 h -1.989536 z"
           style="font-weight:bold;text-align:center;text-anchor:middle"
           id="path25527" />
        <path
           d="m -32.031385,215.18607 q -0.744138,0.36173 -1.54512,0.5426 -0.800982,0.18087 -1.653641,0.18087 -1.927525,0 -3.054067,-1.07487 -1.126543,-1.08004 -1.126543,-2.92488 0,-1.86551 1.147213,-2.93521 1.147213,-1.0697 3.141917,-1.0697 0.769977,0 1.472774,0.14469 0.707965,0.1447 1.333248,0.42892 v 1.59679 q -0.645954,-0.3669 -1.286739,-0.54776 -0.635619,-0.18087 -1.276404,-0.18087 -1.188554,0 -1.834508,0.66662 -0.640786,0.66146 -0.640786,1.89652 0,1.22473 0.620116,1.89135 0.620115,0.66663 1.76216,0.66663 0.310058,0 0.573607,-0.0362 0.268717,-0.0413 0.480589,-0.12402 v -1.49861 h -1.214392 v -1.33325 h 3.100576 z"
           style="font-weight:bold;text-align:center;text-anchor:middle"
           id="path25529" />
        <path
           d="m -23.344604,215.18607 q -0.744138,0.36173 -1.54512,0.5426 -0.800983,0.18087 -1.653641,0.18087 -1.927525,0 -3.054067,-1.07487 -1.126543,-1.08004 -1.126543,-2.92488 0,-1.86551 1.147213,-2.93521 1.147213,-1.0697 3.141917,-1.0697 0.769977,0 1.472774,0.14469 0.707965,0.1447 1.333248,0.42892 v 1.59679 q -0.645954,-0.3669 -1.28674,-0.54776 -0.635618,-0.18087 -1.276403,-0.18087 -1.188555,0 -1.834508,0.66662 -0.640786,0.66146 -0.640786,1.89652 0,1.22473 0.620116,1.89135 0.620115,0.66663 1.76216,0.66663 0.310058,0 0.573607,-0.0362 0.268717,-0.0413 0.480589,-0.12402 v -1.49861 h -1.214392 v -1.33325 h 3.100576 z"
           style="font-weight:bold;text-align:center;text-anchor:middle"
           id="path25531" />
        <path
           d="m -21.59278,208.04441 h 5.369164 v 1.50378 h -3.379628 v 1.4366 h 3.178091 v 1.50378 h -3.178091 v 1.76732 h 3.493316 v 1.50378 h -5.482852 z"
           style="font-weight:bold;text-align:center;text-anchor:middle"
           id="path25533" />
        <path
           d="m -11.536577,211.46538 q 0.625283,0 0.893999,-0.23255 0.273885,-0.23254 0.273885,-0.76481 0,-0.52709 -0.273885,-0.75447 -0.268716,-0.22737 -0.893999,-0.22737 h -0.837156 v 1.9792 z m -0.837156,1.37458 v 2.91971 h -1.989536 v -7.71526 h 3.038565 q 1.5244496,0 2.2324145,0.51159 0.7131324,0.5116 0.7131324,1.61747 0,0.76481 -0.3720691,1.25573 -0.3669015,0.49093 -1.1110397,0.72347 0.4082425,0.093 0.7286353,0.42375 0.3255605,0.32556 0.6562886,0.99218 l 1.080034,2.19107 h -2.1187269 l -0.9405081,-1.91719 q -0.284219,-0.57877 -0.578774,-0.79064 -0.289387,-0.21188 -0.775144,-0.21188 z"
           style="font-weight:bold;text-align:center;text-anchor:middle"
           id="path25535" />
      </g>
      <g
         aria-label="TRIGGER"
         id="g25553"
         style="font-size:10.5833px;line-height:1.25;stroke-width:0.264583">
        <path
           d="m -58.943488,221.11322 h 7.110655 v 1.50378 h -2.557976 v 6.21149 h -1.989536 V 222.617 h -2.563143 z"
           style="font-weight:bold;text-align:center;text-anchor:middle"
           id="path25539" />
        <path
           d="m -47.977784,224.53419 q 0.625283,0 0.893999,-0.23254 0.273885,-0.23254 0.273885,-0.76481 0,-0.5271 -0.273885,-0.75447 -0.268716,-0.22738 -0.893999,-0.22738 h -0.837155 v 1.9792 z m -0.837155,1.37459 v 2.91971 h -1.989537 v -7.71527 h 3.038565 q 1.52445,0 2.232415,0.5116 0.713132,0.51159 0.713132,1.61747 0,0.76481 -0.372069,1.25573 -0.366902,0.49092 -1.11104,0.72347 0.408243,0.093 0.728636,0.42374 0.32556,0.32556 0.656288,0.99219 l 1.080034,2.19107 h -2.118727 l -0.940508,-1.91719 q -0.284219,-0.57877 -0.578774,-0.79065 -0.289387,-0.21187 -0.775144,-0.21187 z"
           style="font-weight:bold;text-align:center;text-anchor:middle"
           id="path25541" />
        <path
           d="m -42.655128,221.11322 h 1.989536 v 7.71527 h -1.989536 z"
           style="font-weight:bold;text-align:center;text-anchor:middle"
           id="path25543" />
        <path
           d="m -31.782442,228.25488 q -0.744138,0.36174 -1.54512,0.54261 -0.800982,0.18086 -1.653641,0.18086 -1.927524,0 -3.054067,-1.07486 -1.126543,-1.08004 -1.126543,-2.92488 0,-1.86551 1.147213,-2.93521 1.147214,-1.0697 3.141918,-1.0697 0.769976,0 1.472773,0.14469 0.707965,0.1447 1.333248,0.42892 v 1.59679 q -0.645953,-0.3669 -1.286739,-0.54777 -0.635618,-0.18086 -1.276404,-0.18086 -1.188554,0 -1.834507,0.66662 -0.640786,0.66146 -0.640786,1.89652 0,1.22473 0.620115,1.89135 0.620115,0.66662 1.762161,0.66662 0.310057,0 0.573606,-0.0362 0.268717,-0.0413 0.48059,-0.12402 v -1.49861 h -1.214393 v -1.33325 h 3.100576 z"
           style="font-weight:bold;text-align:center;text-anchor:middle"
           id="path25545" />
        <path
           d="m -23.095661,228.25488 q -0.744138,0.36174 -1.54512,0.54261 -0.800982,0.18086 -1.653641,0.18086 -1.927524,0 -3.054067,-1.07486 -1.126543,-1.08004 -1.126543,-2.92488 0,-1.86551 1.147213,-2.93521 1.147214,-1.0697 3.141918,-1.0697 0.769976,0 1.472773,0.14469 0.707965,0.1447 1.333248,0.42892 v 1.59679 q -0.645954,-0.3669 -1.286739,-0.54777 -0.635618,-0.18086 -1.276404,-0.18086 -1.188554,0 -1.834508,0.66662 -0.640785,0.66146 -0.640785,1.89652 0,1.22473 0.620115,1.89135 0.620115,0.66662 1.762161,0.66662 0.310057,0 0.573606,-0.0362 0.268717,-0.0413 0.48059,-0.12402 v -1.49861 h -1.214393 v -1.33325 h 3.100576 z"
           style="font-weight:bold;text-align:center;text-anchor:middle"
           id="path25547" />
        <path
           d="m -21.343837,221.11322 h 5.369164 V 222.617 H -19.3543 v 1.4366 h 3.17809 v 1.50378 h -3.17809 v 1.76733 h 3.493315 v 1.50378 h -5.482852 z"
           style="font-weight:bold;text-align:center;text-anchor:middle"
           id="path25549" />
        <path
           d="m -11.287634,224.53419 q 0.625283,0 0.894,-0.23254 0.273884,-0.23254 0.273884,-0.76481 0,-0.5271 -0.273884,-0.75447 -0.268717,-0.22738 -0.894,-0.22738 h -0.837155 v 1.9792 z m -0.837155,1.37459 v 2.91971 h -1.989537 v -7.71527 h 3.038565 q 1.5244499,0 2.2324148,0.5116 0.7131325,0.51159 0.7131325,1.61747 0,0.76481 -0.3720692,1.25573 -0.3669015,0.49092 -1.1110397,0.72347 0.4082425,0.093 0.7286354,0.42374 0.3255605,0.32556 0.6562886,0.99219 l 1.080034,2.19107 h -2.118727 L -10.2076,226.9113 q -0.284219,-0.57877 -0.578774,-0.79065 -0.289387,-0.21187 -0.775144,-0.21187 z"
           style="font-weight:bold;text-align:center;text-anchor:middle"
           id="path25551" />
      </g>
      <g
         aria-label="TRIGGER"
         id="g25569"
         style="font-size:10.5833px;line-height:1.25;stroke-width:0.264583">
        <path
           d="m -58.720469,234.18203 h 7.110654 v 1.50378 h -2.557975 v 6.21148 h -1.989536 v -6.21148 h -2.563143 z"
           style="font-weight:bold;text-align:center;text-anchor:middle"
           id="path25555" />
        <path
           d="m -47.754765,237.603 q 0.625283,0 0.893999,-0.23255 0.273884,-0.23254 0.273884,-0.76481 0,-0.52709 -0.273884,-0.75447 -0.268716,-0.22738 -0.893999,-0.22738 h -0.837156 v 1.97921 z m -0.837156,1.37458 v 2.91971 h -1.989536 v -7.71526 h 3.038564 q 1.52445,0 2.232415,0.51159 0.713133,0.5116 0.713133,1.61747 0,0.76481 -0.372069,1.25573 -0.366902,0.49093 -1.11104,0.72347 0.408242,0.093 0.728635,0.42374 0.325561,0.32557 0.656289,0.99219 l 1.080034,2.19107 h -2.118727 l -0.940508,-1.91719 q -0.28422,-0.57877 -0.578775,-0.79064 -0.289387,-0.21188 -0.775144,-0.21188 z"
           style="font-weight:bold;text-align:center;text-anchor:middle"
           id="path25557" />
        <path
           d="m -42.43211,234.18203 h 1.989536 v 7.71526 h -1.989536 z"
           style="font-weight:bold;text-align:center;text-anchor:middle"
           id="path25559" />
        <path
           d="m -31.559423,241.32369 q -0.744138,0.36173 -1.54512,0.5426 -0.800983,0.18086 -1.653641,0.18086 -1.927525,0 -3.054067,-1.07486 -1.126543,-1.08004 -1.126543,-2.92488 0,-1.86551 1.147213,-2.93521 1.147213,-1.0697 3.141917,-1.0697 0.769977,0 1.472774,0.14469 0.707965,0.1447 1.333248,0.42892 v 1.59679 q -0.645954,-0.3669 -1.28674,-0.54776 -0.635618,-0.18087 -1.276403,-0.18087 -1.188554,0 -1.834508,0.66662 -0.640786,0.66146 -0.640786,1.89652 0,1.22473 0.620116,1.89135 0.620115,0.66663 1.76216,0.66663 0.310058,0 0.573607,-0.0362 0.268717,-0.0413 0.480589,-0.12402 v -1.49861 h -1.214392 v -1.33325 h 3.100576 z"
           style="font-weight:bold;text-align:center;text-anchor:middle"
           id="path25561" />
        <path
           d="m -22.872642,241.32369 q -0.744138,0.36173 -1.54512,0.5426 -0.800983,0.18086 -1.653641,0.18086 -1.927525,0 -3.054067,-1.07486 -1.126543,-1.08004 -1.126543,-2.92488 0,-1.86551 1.147213,-2.93521 1.147213,-1.0697 3.141917,-1.0697 0.769977,0 1.472774,0.14469 0.707965,0.1447 1.333247,0.42892 v 1.59679 q -0.645953,-0.3669 -1.286739,-0.54776 -0.635618,-0.18087 -1.276403,-0.18087 -1.188555,0 -1.834508,0.66662 -0.640786,0.66146 -0.640786,1.89652 0,1.22473 0.620116,1.89135 0.620115,0.66663 1.76216,0.66663 0.310058,0 0.573607,-0.0362 0.268716,-0.0413 0.480589,-0.12402 v -1.49861 h -1.214392 v -1.33325 h 3.100576 z"
           style="font-weight:bold;text-align:center;text-anchor:middle"
           id="path25563" />
        <path
           d="m -21.120818,234.18203 h 5.369164 v 1.50378 h -3.379628 v 1.4366 h 3.178091 v 1.50378 h -3.178091 v 1.76732 h 3.493316 v 1.50378 h -5.482852 z"
           style="font-weight:bold;text-align:center;text-anchor:middle"
           id="path25565" />
        <path
           d="m -11.064615,237.603 q 0.625283,0 0.893999,-0.23255 0.2738846,-0.23254 0.2738846,-0.76481 0,-0.52709 -0.2738846,-0.75447 -0.268716,-0.22738 -0.893999,-0.22738 h -0.837156 v 1.97921 z m -0.837156,1.37458 v 2.91971 h -1.989536 v -7.71526 h 3.038565 q 1.5244496,0 2.2324144,0.51159 0.7131325,0.5116 0.7131325,1.61747 0,0.76481 -0.3720691,1.25573 -0.3669015,0.49093 -1.1110398,0.72347 0.4082426,0.093 0.7286354,0.42374 0.3255605,0.32557 0.6562886,0.99219 l 1.080034,2.19107 h -2.118727 l -0.940508,-1.91719 q -0.28422,-0.57877 -0.578774,-0.79064 -0.289387,-0.21188 -0.775144,-0.21188 z"
           style="font-weight:bold;text-align:center;text-anchor:middle"
           id="path25567" />
      </g>
      <g
         aria-label="TRIGGER"
         id="g25585"
         style="font-size:10.5833px;line-height:1.25;stroke-width:0.264583">
        <path
           d="m -59.220488,247.25084 h 7.110654 v 1.50378 h -2.557975 v 6.21149 h -1.989536 v -6.21149 h -2.563143 z"
           style="font-weight:bold;text-align:center;text-anchor:middle"
           id="path25571" />
        <path
           d="m -48.254784,250.67181 q 0.625282,0 0.893999,-0.23254 0.273884,-0.23254 0.273884,-0.76481 0,-0.5271 -0.273884,-0.75447 -0.268717,-0.22738 -0.893999,-0.22738 h -0.837156 v 1.9792 z m -0.837156,1.37459 v 2.91971 h -1.989536 v -7.71527 h 3.038564 q 1.52445,0 2.232415,0.5116 0.713133,0.51159 0.713133,1.61747 0,0.7648 -0.37207,1.25573 -0.366901,0.49092 -1.111039,0.72347 0.408242,0.093 0.728635,0.42374 0.325561,0.32556 0.656289,0.99219 l 1.080034,2.19107 h -2.118727 l -0.940508,-1.91719 q -0.28422,-0.57877 -0.578775,-0.79065 -0.289387,-0.21187 -0.775144,-0.21187 z"
           style="font-weight:bold;text-align:center;text-anchor:middle"
           id="path25573" />
        <path
           d="m -42.932129,247.25084 h 1.989536 v 7.71527 h -1.989536 z"
           style="font-weight:bold;text-align:center;text-anchor:middle"
           id="path25575" />
        <path
           d="m -32.059442,254.3925 q -0.744138,0.36174 -1.54512,0.5426 -0.800983,0.18087 -1.653641,0.18087 -1.927525,0 -3.054067,-1.07486 -1.126543,-1.08004 -1.126543,-2.92488 0,-1.86551 1.147213,-2.93521 1.147213,-1.0697 3.141917,-1.0697 0.769977,0 1.472774,0.14469 0.707965,0.14469 1.333247,0.42891 v 1.5968 q -0.645953,-0.3669 -1.286739,-0.54777 -0.635618,-0.18086 -1.276403,-0.18086 -1.188555,0 -1.834508,0.66662 -0.640786,0.66146 -0.640786,1.89652 0,1.22473 0.620116,1.89135 0.620115,0.66662 1.76216,0.66662 0.310058,0 0.573607,-0.0362 0.268716,-0.0413 0.480589,-0.12402 v -1.49861 h -1.214392 v -1.33325 h 3.100576 z"
           style="font-weight:bold;text-align:center;text-anchor:middle"
           id="path25577" />
        <path
           d="m -23.372661,254.3925 q -0.744138,0.36174 -1.545121,0.5426 -0.800982,0.18087 -1.65364,0.18087 -1.927525,0 -3.054068,-1.07486 -1.126542,-1.08004 -1.126542,-2.92488 0,-1.86551 1.147213,-2.93521 1.147213,-1.0697 3.141917,-1.0697 0.769976,0 1.472774,0.14469 0.707965,0.14469 1.333247,0.42891 v 1.5968 q -0.645953,-0.3669 -1.286739,-0.54777 -0.635618,-0.18086 -1.276403,-0.18086 -1.188555,0 -1.834508,0.66662 -0.640786,0.66146 -0.640786,1.89652 0,1.22473 0.620116,1.89135 0.620115,0.66662 1.76216,0.66662 0.310058,0 0.573607,-0.0362 0.268716,-0.0413 0.480589,-0.12402 v -1.49861 h -1.214392 v -1.33325 h 3.100576 z"
           style="font-weight:bold;text-align:center;text-anchor:middle"
           id="path25579" />
        <path
           d="m -21.620837,247.25084 h 5.369164 v 1.50378 h -3.379628 v 1.4366 h 3.178091 v 1.50378 h -3.178091 v 1.76733 h 3.493316 v 1.50378 h -5.482852 z"
           style="font-weight:bold;text-align:center;text-anchor:middle"
           id="path25581" />
        <path
           d="m -11.564634,250.67181 q 0.625283,0 0.893999,-0.23254 0.273885,-0.23254 0.273885,-0.76481 0,-0.5271 -0.273885,-0.75447 -0.268716,-0.22738 -0.893999,-0.22738 h -0.837156 v 1.9792 z m -0.837156,1.37459 v 2.91971 h -1.989536 v -7.71527 h 3.038565 q 1.5244495,0 2.2324144,0.5116 0.7131324,0.51159 0.7131324,1.61747 0,0.7648 -0.3720691,1.25573 -0.3669015,0.49092 -1.1110397,0.72347 0.4082425,0.093 0.7286353,0.42374 0.3255605,0.32556 0.6562886,0.99219 l 1.080034,2.19107 H -9.544092 l -0.940508,-1.91719 q -0.28422,-0.57877 -0.578774,-0.79065 -0.289387,-0.21187 -0.775144,-0.21187 z"
           style="font-weight:bold;text-align:center;text-anchor:middle"
           id="path25583" />
      </g>
    </g>
    <g
       id="use25367"
       transform="translate(62.754172)"
       inkscape:tile-x0="6.9253471"
       inkscape:tile-y0="9.467369">
      <g
         aria-label="TRIGGER"
         id="g25603"
         style="font-size:10.5833px;line-height:1.25;stroke-width:0.264583">
        <path
           d="m -59.192431,208.04441 h 7.110654 v 1.50378 h -2.557975 v 6.21148 h -1.989536 v -6.21148 h -2.563143 z"
           style="font-weight:bold;text-align:center;text-anchor:middle"
           id="path25589" />
        <path
           d="m -48.226727,211.46538 q 0.625283,0 0.893999,-0.23255 0.273884,-0.23254 0.273884,-0.76481 0,-0.52709 -0.273884,-0.75447 -0.268716,-0.22737 -0.893999,-0.22737 h -0.837156 v 1.9792 z m -0.837156,1.37458 v 2.91971 h -1.989536 v -7.71526 h 3.038564 q 1.52445,0 2.232415,0.51159 0.713133,0.5116 0.713133,1.61747 0,0.76481 -0.372069,1.25573 -0.366902,0.49093 -1.11104,0.72347 0.408242,0.093 0.728635,0.42375 0.325561,0.32556 0.656289,0.99218 l 1.080034,2.19107 h -2.118727 l -0.940508,-1.91719 q -0.28422,-0.57877 -0.578774,-0.79064 -0.289388,-0.21188 -0.775144,-0.21188 z"
           style="font-weight:bold;text-align:center;text-anchor:middle"
           id="path25591" />
        <path
           d="m -42.904072,208.04441 h 1.989536 v 7.71526 h -1.989536 z"
           style="font-weight:bold;text-align:center;text-anchor:middle"
           id="path25593" />
        <path
           d="m -32.031385,215.18607 q -0.744138,0.36173 -1.54512,0.5426 -0.800982,0.18087 -1.653641,0.18087 -1.927525,0 -3.054067,-1.07487 -1.126543,-1.08004 -1.126543,-2.92488 0,-1.86551 1.147213,-2.93521 1.147213,-1.0697 3.141917,-1.0697 0.769977,0 1.472774,0.14469 0.707965,0.1447 1.333248,0.42892 v 1.59679 q -0.645954,-0.3669 -1.286739,-0.54776 -0.635619,-0.18087 -1.276404,-0.18087 -1.188554,0 -1.834508,0.66662 -0.640786,0.66146 -0.640786,1.89652 0,1.22473 0.620116,1.89135 0.620115,0.66663 1.76216,0.66663 0.310058,0 0.573607,-0.0362 0.268717,-0.0413 0.480589,-0.12402 v -1.49861 h -1.214392 v -1.33325 h 3.100576 z"
           style="font-weight:bold;text-align:center;text-anchor:middle"
           id="path25595" />
        <path
           d="m -23.344604,215.18607 q -0.744138,0.36173 -1.54512,0.5426 -0.800983,0.18087 -1.653641,0.18087 -1.927525,0 -3.054067,-1.07487 -1.126543,-1.08004 -1.126543,-2.92488 0,-1.86551 1.147213,-2.93521 1.147213,-1.0697 3.141917,-1.0697 0.769977,0 1.472774,0.14469 0.707965,0.1447 1.333248,0.42892 v 1.59679 q -0.645954,-0.3669 -1.28674,-0.54776 -0.635618,-0.18087 -1.276403,-0.18087 -1.188555,0 -1.834508,0.66662 -0.640786,0.66146 -0.640786,1.89652 0,1.22473 0.620116,1.89135 0.620115,0.66663 1.76216,0.66663 0.310058,0 0.573607,-0.0362 0.268717,-0.0413 0.480589,-0.12402 v -1.49861 h -1.214392 v -1.33325 h 3.100576 z"
           style="font-weight:bold;text-align:center;text-anchor:middle"
           id="path25597" />
        <path
           d="m -21.59278,208.04441 h 5.369164 v 1.50378 h -3.379628 v 1.4366 h 3.178091 v 1.50378 h -3.178091 v 1.76732 h 3.493316 v 1.50378 h -5.482852 z"
           style="font-weight:bold;text-align:center;text-anchor:middle"
           id="path25599" />
        <path
           d="m -11.536577,211.46538 q 0.625283,0 0.893999,-0.23255 0.273885,-0.23254 0.273885,-0.76481 0,-0.52709 -0.273885,-0.75447 -0.268716,-0.22737 -0.893999,-0.22737 h -0.837156 v 1.9792 z m -0.837156,1.37458 v 2.91971 h -1.989536 v -7.71526 h 3.038565 q 1.5244496,0 2.2324145,0.51159 0.7131324,0.5116 0.7131324,1.61747 0,0.76481 -0.3720691,1.25573 -0.3669015,0.49093 -1.1110397,0.72347 0.4082425,0.093 0.7286353,0.42375 0.3255605,0.32556 0.6562886,0.99218 l 1.080034,2.19107 h -2.1187269 l -0.9405081,-1.91719 q -0.284219,-0.57877 -0.578774,-0.79064 -0.289387,-0.21188 -0.775144,-0.21188 z"
           style="font-weight:bold;text-align:center;text-anchor:middle"
           id="path25601" />
      </g>
      <g
         aria-label="TRIGGER"
         id="g25619"
         style="font-size:10.5833px;line-height:1.25;stroke-width:0.264583">
        <path
           d="m -58.943488,221.11322 h 7.110655 v 1.50378 h -2.557976 v 6.21149 h -1.989536 V 222.617 h -2.563143 z"
           style="font-weight:bold;text-align:center;text-anchor:middle"
           id="path25605" />
        <path
           d="m -47.977784,224.53419 q 0.625283,0 0.893999,-0.23254 0.273885,-0.23254 0.273885,-0.76481 0,-0.5271 -0.273885,-0.75447 -0.268716,-0.22738 -0.893999,-0.22738 h -0.837155 v 1.9792 z m -0.837155,1.37459 v 2.91971 h -1.989537 v -7.71527 h 3.038565 q 1.52445,0 2.232415,0.5116 0.713132,0.51159 0.713132,1.61747 0,0.76481 -0.372069,1.25573 -0.366902,0.49092 -1.11104,0.72347 0.408243,0.093 0.728636,0.42374 0.32556,0.32556 0.656288,0.99219 l 1.080034,2.19107 h -2.118727 l -0.940508,-1.91719 q -0.284219,-0.57877 -0.578774,-0.79065 -0.289387,-0.21187 -0.775144,-0.21187 z"
           style="font-weight:bold;text-align:center;text-anchor:middle"
           id="path25607" />
        <path
           d="m -42.655128,221.11322 h 1.989536 v 7.71527 h -1.989536 z"
           style="font-weight:bold;text-align:center;text-anchor:middle"
           id="path25609" />
        <path
           d="m -31.782442,228.25488 q -0.744138,0.36174 -1.54512,0.54261 -0.800982,0.18086 -1.653641,0.18086 -1.927524,0 -3.054067,-1.07486 -1.126543,-1.08004 -1.126543,-2.92488 0,-1.86551 1.147213,-2.93521 1.147214,-1.0697 3.141918,-1.0697 0.769976,0 1.472773,0.14469 0.707965,0.1447 1.333248,0.42892 v 1.59679 q -0.645953,-0.3669 -1.286739,-0.54777 -0.635618,-0.18086 -1.276404,-0.18086 -1.188554,0 -1.834507,0.66662 -0.640786,0.66146 -0.640786,1.89652 0,1.22473 0.620115,1.89135 0.620115,0.66662 1.762161,0.66662 0.310057,0 0.573606,-0.0362 0.268717,-0.0413 0.48059,-0.12402 v -1.49861 h -1.214393 v -1.33325 h 3.100576 z"
           style="font-weight:bold;text-align:center;text-anchor:middle"
           id="path25611" />
        <path
           d="m -23.095661,228.25488 q -0.744138,0.36174 -1.54512,0.54261 -0.800982,0.18086 -1.653641,0.18086 -1.927524,0 -3.054067,-1.07486 -1.126543,-1.08004 -1.126543,-2.92488 0,-1.86551 1.147213,-2.93521 1.147214,-1.0697 3.141918,-1.0697 0.769976,0 1.472773,0.14469 0.707965,0.1447 1.333248,0.42892 v 1.59679 q -0.645954,-0.3669 -1.286739,-0.54777 -0.635618,-0.18086 -1.276404,-0.18086 -1.188554,0 -1.834508,0.66662 -0.640785,0.66146 -0.640785,1.89652 0,1.22473 0.620115,1.89135 0.620115,0.66662 1.762161,0.66662 0.310057,0 0.573606,-0.0362 0.268717,-0.0413 0.48059,-0.12402 v -1.49861 h -1.214393 v -1.33325 h 3.100576 z"
           style="font-weight:bold;text-align:center;text-anchor:middle"
           id="path25613" />
        <path
           d="m -21.343837,221.11322 h 5.369164 V 222.617 H -19.3543 v 1.4366 h 3.17809 v 1.50378 h -3.17809 v 1.76733 h 3.493315 v 1.50378 h -5.482852 z"
           style="font-weight:bold;text-align:center;text-anchor:middle"
           id="path25615" />
        <path
           d="m -11.287634,224.53419 q 0.625283,0 0.894,-0.23254 0.273884,-0.23254 0.273884,-0.76481 0,-0.5271 -0.273884,-0.75447 -0.268717,-0.22738 -0.894,-0.22738 h -0.837155 v 1.9792 z m -0.837155,1.37459 v 2.91971 h -1.989537 v -7.71527 h 3.038565 q 1.5244499,0 2.2324148,0.5116 0.7131325,0.51159 0.7131325,1.61747 0,0.76481 -0.3720692,1.25573 -0.3669015,0.49092 -1.1110397,0.72347 0.4082425,0.093 0.7286354,0.42374 0.3255605,0.32556 0.6562886,0.99219 l 1.080034,2.19107 h -2.118727 L -10.2076,226.9113 q -0.284219,-0.57877 -0.578774,-0.79065 -0.289387,-0.21187 -0.775144,-0.21187 z"
           style="font-weight:bold;text-align:center;text-anchor:middle"
           id="path25617" />
      </g>
      <g
         aria-label="TRIGGER"
         id="g25635"
         style="font-size:10.5833px;line-height:1.25;stroke-width:0.264583">
        <path
           d="m -58.720469,234.18203 h 7.110654 v 1.50378 h -2.557975 v 6.21148 h -1.989536 v -6.21148 h -2.563143 z"
           style="font-weight:bold;text-align:center;text-anchor:middle"
           id="path25621" />
        <path
           d="m -47.754765,237.603 q 0.625283,0 0.893999,-0.23255 0.273884,-0.23254 0.273884,-0.76481 0,-0.52709 -0.273884,-0.75447 -0.268716,-0.22738 -0.893999,-0.22738 h -0.837156 v 1.97921 z m -0.837156,1.37458 v 2.91971 h -1.989536 v -7.71526 h 3.038564 q 1.52445,0 2.232415,0.51159 0.713133,0.5116 0.713133,1.61747 0,0.76481 -0.372069,1.25573 -0.366902,0.49093 -1.11104,0.72347 0.408242,0.093 0.728635,0.42374 0.325561,0.32557 0.656289,0.99219 l 1.080034,2.19107 h -2.118727 l -0.940508,-1.91719 q -0.28422,-0.57877 -0.578775,-0.79064 -0.289387,-0.21188 -0.775144,-0.21188 z"
           style="font-weight:bold;text-align:center;text-anchor:middle"
           id="path25623" />
        <path
           d="m -42.43211,234.18203 h 1.989536 v 7.71526 h -1.989536 z"
           style="font-weight:bold;text-align:center;text-anchor:middle"
           id="path25625" />
        <path
           d="m -31.559423,241.32369 q -0.744138,0.36173 -1.54512,0.5426 -0.800983,0.18086 -1.653641,0.18086 -1.927525,0 -3.054067,-1.07486 -1.126543,-1.08004 -1.126543,-2.92488 0,-1.86551 1.147213,-2.93521 1.147213,-1.0697 3.141917,-1.0697 0.769977,0 1.472774,0.14469 0.707965,0.1447 1.333248,0.42892 v 1.59679 q -0.645954,-0.3669 -1.28674,-0.54776 -0.635618,-0.18087 -1.276403,-0.18087 -1.188554,0 -1.834508,0.66662 -0.640786,0.66146 -0.640786,1.89652 0,1.22473 0.620116,1.89135 0.620115,0.66663 1.76216,0.66663 0.310058,0 0.573607,-0.0362 0.268717,-0.0413 0.480589,-0.12402 v -1.49861 h -1.214392 v -1.33325 h 3.100576 z"
           style="font-weight:bold;text-align:center;text-anchor:middle"
           id="path25627" />
        <path
           d="m -22.872642,241.32369 q -0.744138,0.36173 -1.54512,0.5426 -0.800983,0.18086 -1.653641,0.18086 -1.927525,0 -3.054067,-1.07486 -1.126543,-1.08004 -1.126543,-2.92488 0,-1.86551 1.147213,-2.93521 1.147213,-1.0697 3.141917,-1.0697 0.769977,0 1.472774,0.14469 0.707965,0.1447 1.333247,0.42892 v 1.59679 q -0.645953,-0.3669 -1.286739,-0.54776 -0.635618,-0.18087 -1.276403,-0.18087 -1.188555,0 -1.834508,0.66662 -0.640786,0.66146 -0.640786,1.89652 0,1.22473 0.620116,1.89135 0.620115,0.66663 1.76216,0.66663 0.310058,0 0.573607,-0.0362 0.268716,-0.0413 0.480589,-0.12402 v -1.49861 h -1.214392 v -1.33325 h 3.100576 z"
           style="font-weight:bold;text-align:center;text-anchor:middle"
           id="path25629" />
        <path
           d="m -21.120818,234.18203 h 5.369164 v 1.50378 h -3.379628 v 1.4366 h 3.178091 v 1.50378 h -3.178091 v 1.76732 h 3.493316 v 1.50378 h -5.482852 z"
           style="font-weight:bold;text-align:center;text-anchor:middle"
           id="path25631" />
        <path
           d="m -11.064615,237.603 q 0.625283,0 0.893999,-0.23255 0.2738846,-0.23254 0.2738846,-0.76481 0,-0.52709 -0.2738846,-0.75447 -0.268716,-0.22738 -0.893999,-0.22738 h -0.837156 v 1.97921 z m -0.837156,1.37458 v 2.91971 h -1.989536 v -7.71526 h 3.038565 q 1.5244496,0 2.2324144,0.51159 0.7131325,0.5116 0.7131325,1.61747 0,0.76481 -0.3720691,1.25573 -0.3669015,0.49093 -1.1110398,0.72347 0.4082426,0.093 0.7286354,0.42374 0.3255605,0.32557 0.6562886,0.99219 l 1.080034,2.19107 h -2.118727 l -0.940508,-1.91719 q -0.28422,-0.57877 -0.578774,-0.79064 -0.289387,-0.21188 -0.775144,-0.21188 z"
           style="font-weight:bold;text-align:center;text-anchor:middle"
           id="path25633" />
      </g>
      <g
         aria-label="TRIGGER"
         id="g25651"
         style="font-size:10.5833px;line-height:1.25;stroke-width:0.264583">
        <path
           d="m -59.220488,247.25084 h 7.110654 v 1.50378 h -2.557975 v 6.21149 h -1.989536 v -6.21149 h -2.563143 z"
           style="font-weight:bold;text-align:center;text-anchor:middle"
           id="path25637" />
        <path
           d="m -48.254784,250.67181 q 0.625282,0 0.893999,-0.23254 0.273884,-0.23254 0.273884,-0.76481 0,-0.5271 -0.273884,-0.75447 -0.268717,-0.22738 -0.893999,-0.22738 h -0.837156 v 1.9792 z m -0.837156,1.37459 v 2.91971 h -1.989536 v -7.71527 h 3.038564 q 1.52445,0 2.232415,0.5116 0.713133,0.51159 0.713133,1.61747 0,0.7648 -0.37207,1.25573 -0.366901,0.49092 -1.111039,0.72347 0.408242,0.093 0.728635,0.42374 0.325561,0.32556 0.656289,0.99219 l 1.080034,2.19107 h -2.118727 l -0.940508,-1.91719 q -0.28422,-0.57877 -0.578775,-0.79065 -0.289387,-0.21187 -0.775144,-0.21187 z"
           style="font-weight:bold;text-align:center;text-anchor:middle"
           id="path25639" />
        <path
           d="m -42.932129,247.25084 h 1.989536 v 7.71527 h -1.989536 z"
           style="font-weight:bold;text-align:center;text-anchor:middle"
           id="path25641" />
        <path
           d="m -32.059442,254.3925 q -0.744138,0.36174 -1.54512,0.5426 -0.800983,0.18087 -1.653641,0.18087 -1.927525,0 -3.054067,-1.07486 -1.126543,-1.08004 -1.126543,-2.92488 0,-1.86551 1.147213,-2.93521 1.147213,-1.0697 3.141917,-1.0697 0.769977,0 1.472774,0.14469 0.707965,0.14469 1.333247,0.42891 v 1.5968 q -0.645953,-0.3669 -1.286739,-0.54777 -0.635618,-0.18086 -1.276403,-0.18086 -1.188555,0 -1.834508,0.66662 -0.640786,0.66146 -0.640786,1.89652 0,1.22473 0.620116,1.89135 0.620115,0.66662 1.76216,0.66662 0.310058,0 0.573607,-0.0362 0.268716,-0.0413 0.480589,-0.12402 v -1.49861 h -1.214392 v -1.33325 h 3.100576 z"
           style="font-weight:bold;text-align:center;text-anchor:middle"
           id="path25643" />
        <path
           d="m -23.372661,254.3925 q -0.744138,0.36174 -1.545121,0.5426 -0.800982,0.18087 -1.65364,0.18087 -1.927525,0 -3.054068,-1.07486 -1.126542,-1.08004 -1.126542,-2.92488 0,-1.86551 1.147213,-2.93521 1.147213,-1.0697 3.141917,-1.0697 0.769976,0 1.472774,0.14469 0.707965,0.14469 1.333247,0.42891 v 1.5968 q -0.645953,-0.3669 -1.286739,-0.54777 -0.635618,-0.18086 -1.276403,-0.18086 -1.188555,0 -1.834508,0.66662 -0.640786,0.66146 -0.640786,1.89652 0,1.22473 0.620116,1.89135 0.620115,0.66662 1.76216,0.66662 0.310058,0 0.573607,-0.0362 0.268716,-0.0413 0.480589,-0.12402 v -1.49861 h -1.214392 v -1.33325 h 3.100576 z"
           style="font-weight:bold;text-align:center;text-anchor:middle"
           id="path25645" />
        <path
           d="m -21.620837,247.25084 h 5.369164 v 1.50378 h -3.379628 v 1.4366 h 3.178091 v 1.50378 h -3.178091 v 1.76733 h 3.493316 v 1.50378 h -5.482852 z"
           style="font-weight:bold;text-align:center;text-anchor:middle"
           id="path25647" />
        <path
           d="m -11.564634,250.67181 q 0.625283,0 0.893999,-0.23254 0.273885,-0.23254 0.273885,-0.76481 0,-0.5271 -0.273885,-0.75447 -0.268716,-0.22738 -0.893999,-0.22738 h -0.837156 v 1.9792 z m -0.837156,1.37459 v 2.91971 h -1.989536 v -7.71527 h 3.038565 q 1.5244495,0 2.2324144,0.5116 0.7131324,0.51159 0.7131324,1.61747 0,0.7648 -0.3720691,1.25573 -0.3669015,0.49092 -1.1110397,0.72347 0.4082425,0.093 0.7286353,0.42374 0.3255605,0.32556 0.6562886,0.99219 l 1.080034,2.19107 H -9.544092 l -0.940508,-1.91719 q -0.28422,-0.57877 -0.578774,-0.79065 -0.289387,-0.21187 -0.775144,-0.21187 z"
           style="font-weight:bold;text-align:center;text-anchor:middle"
           id="path25649" />
      </g>
    </g>
    <g
       id="use25369"
       transform="translate(128.9,-66.14585)"
       inkscape:tile-x0="6.9253471"
       inkscape:tile-y0="9.467369">
      <g
         aria-label="TRIGGER"
         id="g25669"
         style="font-size:10.5833px;line-height:1.25;stroke-width:0.264583">
        <path
           d="m -59.192431,208.04441 h 7.110654 v 1.50378 h -2.557975 v 6.21148 h -1.989536 v -6.21148 h -2.563143 z"
           style="font-weight:bold;text-align:center;text-anchor:middle"
           id="path25655" />
        <path
           d="m -48.226727,211.46538 q 0.625283,0 0.893999,-0.23255 0.273884,-0.23254 0.273884,-0.76481 0,-0.52709 -0.273884,-0.75447 -0.268716,-0.22737 -0.893999,-0.22737 h -0.837156 v 1.9792 z m -0.837156,1.37458 v 2.91971 h -1.989536 v -7.71526 h 3.038564 q 1.52445,0 2.232415,0.51159 0.713133,0.5116 0.713133,1.61747 0,0.76481 -0.372069,1.25573 -0.366902,0.49093 -1.11104,0.72347 0.408242,0.093 0.728635,0.42375 0.325561,0.32556 0.656289,0.99218 l 1.080034,2.19107 h -2.118727 l -0.940508,-1.91719 q -0.28422,-0.57877 -0.578774,-0.79064 -0.289388,-0.21188 -0.775144,-0.21188 z"
           style="font-weight:bold;text-align:center;text-anchor:middle"
           id="path25657" />
        <path
           d="m -42.904072,208.04441 h 1.989536 v 7.71526 h -1.989536 z"
           style="font-weight:bold;text-align:center;text-anchor:middle"
           id="path25659" />
        <path
           d="m -32.031385,215.18607 q -0.744138,0.36173 -1.54512,0.5426 -0.800982,0.18087 -1.653641,0.18087 -1.927525,0 -3.054067,-1.07487 -1.126543,-1.08004 -1.126543,-2.92488 0,-1.86551 1.147213,-2.93521 1.147213,-1.0697 3.141917,-1.0697 0.769977,0 1.472774,0.14469 0.707965,0.1447 1.333248,0.42892 v 1.59679 q -0.645954,-0.3669 -1.286739,-0.54776 -0.635619,-0.18087 -1.276404,-0.18087 -1.188554,0 -1.834508,0.66662 -0.640786,0.66146 -0.640786,1.89652 0,1.22473 0.620116,1.89135 0.620115,0.66663 1.76216,0.66663 0.310058,0 0.573607,-0.0362 0.268717,-0.0413 0.480589,-0.12402 v -1.49861 h -1.214392 v -1.33325 h 3.100576 z"
           style="font-weight:bold;text-align:center;text-anchor:middle"
           id="path25661" />
        <path
           d="m -23.344604,215.18607 q -0.744138,0.36173 -1.54512,0.5426 -0.800983,0.18087 -1.653641,0.18087 -1.927525,0 -3.054067,-1.07487 -1.126543,-1.08004 -1.126543,-2.92488 0,-1.86551 1.147213,-2.93521 1.147213,-1.0697 3.141917,-1.0697 0.769977,0 1.472774,0.14469 0.707965,0.1447 1.333248,0.42892 v 1.59679 q -0.645954,-0.3669 -1.28674,-0.54776 -0.635618,-0.18087 -1.276403,-0.18087 -1.188555,0 -1.834508,0.66662 -0.640786,0.66146 -0.640786,1.89652 0,1.22473 0.620116,1.89135 0.620115,0.66663 1.76216,0.66663 0.310058,0 0.573607,-0.0362 0.268717,-0.0413 0.480589,-0.12402 v -1.49861 h -1.214392 v -1.33325 h 3.100576 z"
           style="font-weight:bold;text-align:center;text-anchor:middle"
           id="path25663" />
        <path
           d="m -21.59278,208.04441 h 5.369164 v 1.50378 h -3.379628 v 1.4366 h 3.178091 v 1.50378 h -3.178091 v 1.76732 h 3.493316 v 1.50378 h -5.482852 z"
           style="font-weight:bold;text-align:center;text-anchor:middle"
           id="path25665" />
        <path
           d="m -11.536577,211.46538 q 0.625283,0 0.893999,-0.23255 0.273885,-0.23254 0.273885,-0.76481 0,-0.52709 -0.273885,-0.75447 -0.268716,-0.22737 -0.893999,-0.22737 h -0.837156 v 1.9792 z m -0.837156,1.37458 v 2.91971 h -1.989536 v -7.71526 h 3.038565 q 1.5244496,0 2.2324145,0.51159 0.7131324,0.5116 0.7131324,1.61747 0,0.76481 -0.3720691,1.25573 -0.3669015,0.49093 -1.1110397,0.72347 0.4082425,0.093 0.7286353,0.42375 0.3255605,0.32556 0.6562886,0.99218 l 1.080034,2.19107 h -2.1187269 l -0.9405081,-1.91719 q -0.284219,-0.57877 -0.578774,-0.79064 -0.289387,-0.21188 -0.775144,-0.21188 z"
           style="font-weight:bold;text-align:center;text-anchor:middle"
           id="path25667" />
      </g>
      <g
         aria-label="TRIGGER"
         id="g25685"
         style="font-size:10.5833px;line-height:1.25;stroke-width:0.264583">
        <path
           d="m -58.943488,221.11322 h 7.110655 v 1.50378 h -2.557976 v 6.21149 h -1.989536 V 222.617 h -2.563143 z"
           style="font-weight:bold;text-align:center;text-anchor:middle"
           id="path25671" />
        <path
           d="m -47.977784,224.53419 q 0.625283,0 0.893999,-0.23254 0.273885,-0.23254 0.273885,-0.76481 0,-0.5271 -0.273885,-0.75447 -0.268716,-0.22738 -0.893999,-0.22738 h -0.837155 v 1.9792 z m -0.837155,1.37459 v 2.91971 h -1.989537 v -7.71527 h 3.038565 q 1.52445,0 2.232415,0.5116 0.713132,0.51159 0.713132,1.61747 0,0.76481 -0.372069,1.25573 -0.366902,0.49092 -1.11104,0.72347 0.408243,0.093 0.728636,0.42374 0.32556,0.32556 0.656288,0.99219 l 1.080034,2.19107 h -2.118727 l -0.940508,-1.91719 q -0.284219,-0.57877 -0.578774,-0.79065 -0.289387,-0.21187 -0.775144,-0.21187 z"
           style="font-weight:bold;text-align:center;text-anchor:middle"
           id="path25673" />
        <path
           d="m -42.655128,221.11322 h 1.989536 v 7.71527 h -1.989536 z"
           style="font-weight:bold;text-align:center;text-anchor:middle"
           id="path25675" />
        <path
           d="m -31.782442,228.25488 q -0.744138,0.36174 -1.54512,0.54261 -0.800982,0.18086 -1.653641,0.18086 -1.927524,0 -3.054067,-1.07486 -1.126543,-1.08004 -1.126543,-2.92488 0,-1.86551 1.147213,-2.93521 1.147214,-1.0697 3.141918,-1.0697 0.769976,0 1.472773,0.14469 0.707965,0.1447 1.333248,0.42892 v 1.59679 q -0.645953,-0.3669 -1.286739,-0.54777 -0.635618,-0.18086 -1.276404,-0.18086 -1.188554,0 -1.834507,0.66662 -0.640786,0.66146 -0.640786,1.89652 0,1.22473 0.620115,1.89135 0.620115,0.66662 1.762161,0.66662 0.310057,0 0.573606,-0.0362 0.268717,-0.0413 0.48059,-0.12402 v -1.49861 h -1.214393 v -1.33325 h 3.100576 z"
           style="font-weight:bold;text-align:center;text-anchor:middle"
           id="path25677" />
        <path
           d="m -23.095661,228.25488 q -0.744138,0.36174 -1.54512,0.54261 -0.800982,0.18086 -1.653641,0.18086 -1.927524,0 -3.054067,-1.07486 -1.126543,-1.08004 -1.126543,-2.92488 0,-1.86551 1.147213,-2.93521 1.147214,-1.0697 3.141918,-1.0697 0.769976,0 1.472773,0.14469 0.707965,0.1447 1.333248,0.42892 v 1.59679 q -0.645954,-0.3669 -1.286739,-0.54777 -0.635618,-0.18086 -1.276404,-0.18086 -1.188554,0 -1.834508,0.66662 -0.640785,0.66146 -0.640785,1.89652 0,1.22473 0.620115,1.89135 0.620115,0.66662 1.762161,0.66662 0.310057,0 0.573606,-0.0362 0.268717,-0.0413 0.48059,-0.12402 v -1.49861 h -1.214393 v -1.33325 h 3.100576 z"
           style="font-weight:bold;text-align:center;text-anchor:middle"
           id="path25679" />
        <path
           d="m -21.343837,221.11322 h 5.369164 V 222.617 H -19.3543 v 1.4366 h 3.17809 v 1.50378 h -3.17809 v 1.76733 h 3.493315 v 1.50378 h -5.482852 z"
           style="font-weight:bold;text-align:center;text-anchor:middle"
           id="path25681" />
        <path
           d="m -11.287634,224.53419 q 0.625283,0 0.894,-0.23254 0.273884,-0.23254 0.273884,-0.76481 0,-0.5271 -0.273884,-0.75447 -0.268717,-0.22738 -0.894,-0.22738 h -0.837155 v 1.9792 z m -0.837155,1.37459 v 2.91971 h -1.989537 v -7.71527 h 3.038565 q 1.5244499,0 2.2324148,0.5116 0.7131325,0.51159 0.7131325,1.61747 0,0.76481 -0.3720692,1.25573 -0.3669015,0.49092 -1.1110397,0.72347 0.4082425,0.093 0.7286354,0.42374 0.3255605,0.32556 0.6562886,0.99219 l 1.080034,2.19107 h -2.118727 L -10.2076,226.9113 q -0.284219,-0.57877 -0.578774,-0.79065 -0.289387,-0.21187 -0.775144,-0.21187 z"
           style="font-weight:bold;text-align:center;text-anchor:middle"
           id="path25683" />
      </g>
      <g
         aria-label="TRIGGER"
         id="g25701"
         style="font-size:10.5833px;line-height:1.25;stroke-width:0.264583">
        <path
           d="m -58.720469,234.18203 h 7.110654 v 1.50378 h -2.557975 v 6.21148 h -1.989536 v -6.21148 h -2.563143 z"
           style="font-weight:bold;text-align:center;text-anchor:middle"
           id="path25687" />
        <path
           d="m -47.754765,237.603 q 0.625283,0 0.893999,-0.23255 0.273884,-0.23254 0.273884,-0.76481 0,-0.52709 -0.273884,-0.75447 -0.268716,-0.22738 -0.893999,-0.22738 h -0.837156 v 1.97921 z m -0.837156,1.37458 v 2.91971 h -1.989536 v -7.71526 h 3.038564 q 1.52445,0 2.232415,0.51159 0.713133,0.5116 0.713133,1.61747 0,0.76481 -0.372069,1.25573 -0.366902,0.49093 -1.11104,0.72347 0.408242,0.093 0.728635,0.42374 0.325561,0.32557 0.656289,0.99219 l 1.080034,2.19107 h -2.118727 l -0.940508,-1.91719 q -0.28422,-0.57877 -0.578775,-0.79064 -0.289387,-0.21188 -0.775144,-0.21188 z"
           style="font-weight:bold;text-align:center;text-anchor:middle"
           id="path25689" />
        <path
           d="m -42.43211,234.18203 h 1.989536 v 7.71526 h -1.989536 z"
           style="font-weight:bold;text-align:center;text-anchor:middle"
           id="path25691" />
        <path
           d="m -31.559423,241.32369 q -0.744138,0.36173 -1.54512,0.5426 -0.800983,0.18086 -1.653641,0.18086 -1.927525,0 -3.054067,-1.07486 -1.126543,-1.08004 -1.126543,-2.92488 0,-1.86551 1.147213,-2.93521 1.147213,-1.0697 3.141917,-1.0697 0.769977,0 1.472774,0.14469 0.707965,0.1447 1.333248,0.42892 v 1.59679 q -0.645954,-0.3669 -1.28674,-0.54776 -0.635618,-0.18087 -1.276403,-0.18087 -1.188554,0 -1.834508,0.66662 -0.640786,0.66146 -0.640786,1.89652 0,1.22473 0.620116,1.89135 0.620115,0.66663 1.76216,0.66663 0.310058,0 0.573607,-0.0362 0.268717,-0.0413 0.480589,-0.12402 v -1.49861 h -1.214392 v -1.33325 h 3.100576 z"
           style="font-weight:bold;text-align:center;text-anchor:middle"
           id="path25693" />
        <path
           d="m -22.872642,241.32369 q -0.744138,0.36173 -1.54512,0.5426 -0.800983,0.18086 -1.653641,0.18086 -1.927525,0 -3.054067,-1.07486 -1.126543,-1.08004 -1.126543,-2.92488 0,-1.86551 1.147213,-2.93521 1.147213,-1.0697 3.141917,-1.0697 0.769977,0 1.472774,0.14469 0.707965,0.1447 1.333247,0.42892 v 1.59679 q -0.645953,-0.3669 -1.286739,-0.54776 -0.635618,-0.18087 -1.276403,-0.18087 -1.188555,0 -1.834508,0.66662 -0.640786,0.66146 -0.640786,1.89652 0,1.22473 0.620116,1.89135 0.620115,0.66663 1.76216,0.66663 0.310058,0 0.573607,-0.0362 0.268716,-0.0413 0.480589,-0.12402 v -1.49861 h -1.214392 v -1.33325 h 3.100576 z"
           style="font-weight:bold;text-align:center;text-anchor:middle"
           id="path25695" />
        <path
           d="m -21.120818,234.18203 h 5.369164 v 1.50378 h -3.379628 v 1.4366 h 3.178091 v 1.50378 h -3.178091 v 1.76732 h 3.493316 v 1.50378 h -5.482852 z"
           style="font-weight:bold;text-align:center;text-anchor:middle"
           id="path25697" />
        <path
           d="m -11.064615,237.603 q 0.625283,0 0.893999,-0.23255 0.2738846,-0.23254 0.2738846,-0.76481 0,-0.52709 -0.2738846,-0.75447 -0.268716,-0.22738 -0.893999,-0.22738 h -0.837156 v 1.97921 z m -0.837156,1.37458 v 2.91971 h -1.989536 v -7.71526 h 3.038565 q 1.5244496,0 2.2324144,0.51159 0.7131325,0.5116 0.7131325,1.61747 0,0.76481 -0.3720691,1.25573 -0.3669015,0.49093 -1.1110398,0.72347 0.4082426,0.093 0.7286354,0.42374 0.3255605,0.32557 0.6562886,0.99219 l 1.080034,2.19107 h -2.118727 l -0.940508,-1.91719 q -0.28422,-0.57877 -0.578774,-0.79064 -0.289387,-0.21188 -0.775144,-0.21188 z"
           style="font-weight:bold;text-align:center;text-anchor:middle"
           id="path25699" />
      </g>
      <g
         aria-label="TRIGGER"
         id="g25717"
         style="font-size:10.5833px;line-height:1.25;stroke-width:0.264583">
        <path
           d="m -59.220488,247.25084 h 7.110654 v 1.50378 h -2.557975 v 6.21149 h -1.989536 v -6.21149 h -2.563143 z"
           style="font-weight:bold;text-align:center;text-anchor:middle"
           id="path25703" />
        <path
           d="m -48.254784,250.67181 q 0.625282,0 0.893999,-0.23254 0.273884,-0.23254 0.273884,-0.76481 0,-0.5271 -0.273884,-0.75447 -0.268717,-0.22738 -0.893999,-0.22738 h -0.837156 v 1.9792 z m -0.837156,1.37459 v 2.91971 h -1.989536 v -7.71527 h 3.038564 q 1.52445,0 2.232415,0.5116 0.713133,0.51159 0.713133,1.61747 0,0.7648 -0.37207,1.25573 -0.366901,0.49092 -1.111039,0.72347 0.408242,0.093 0.728635,0.42374 0.325561,0.32556 0.656289,0.99219 l 1.080034,2.19107 h -2.118727 l -0.940508,-1.91719 q -0.28422,-0.57877 -0.578775,-0.79065 -0.289387,-0.21187 -0.775144,-0.21187 z"
           style="font-weight:bold;text-align:center;text-anchor:middle"
           id="path25705" />
        <path
           d="m -42.932129,247.25084 h 1.989536 v 7.71527 h -1.989536 z"
           style="font-weight:bold;text-align:center;text-anchor:middle"
           id="path25707" />
        <path
           d="m -32.059442,254.3925 q -0.744138,0.36174 -1.54512,0.5426 -0.800983,0.18087 -1.653641,0.18087 -1.927525,0 -3.054067,-1.07486 -1.126543,-1.08004 -1.126543,-2.92488 0,-1.86551 1.147213,-2.93521 1.147213,-1.0697 3.141917,-1.0697 0.769977,0 1.472774,0.14469 0.707965,0.14469 1.333247,0.42891 v 1.5968 q -0.645953,-0.3669 -1.286739,-0.54777 -0.635618,-0.18086 -1.276403,-0.18086 -1.188555,0 -1.834508,0.66662 -0.640786,0.66146 -0.640786,1.89652 0,1.22473 0.620116,1.89135 0.620115,0.66662 1.76216,0.66662 0.310058,0 0.573607,-0.0362 0.268716,-0.0413 0.480589,-0.12402 v -1.49861 h -1.214392 v -1.33325 h 3.100576 z"
           style="font-weight:bold;text-align:center;text-anchor:middle"
           id="path25709" />
        <path
           d="m -23.372661,254.3925 q -0.744138,0.36174 -1.545121,0.5426 -0.800982,0.18087 -1.65364,0.18087 -1.927525,0 -3.054068,-1.07486 -1.126542,-1.08004 -1.126542,-2.92488 0,-1.86551 1.147213,-2.93521 1.147213,-1.0697 3.141917,-1.0697 0.769976,0 1.472774,0.14469 0.707965,0.14469 1.333247,0.42891 v 1.5968 q -0.645953,-0.3669 -1.286739,-0.54777 -0.635618,-0.18086 -1.276403,-0.18086 -1.188555,0 -1.834508,0.66662 -0.640786,0.66146 -0.640786,1.89652 0,1.22473 0.620116,1.89135 0.620115,0.66662 1.76216,0.66662 0.310058,0 0.573607,-0.0362 0.268716,-0.0413 0.480589,-0.12402 v -1.49861 h -1.214392 v -1.33325 h 3.100576 z"
           style="font-weight:bold;text-align:center;text-anchor:middle"
           id="path25711" />
        <path
           d="m -21.620837,247.25084 h 5.369164 v 1.50378 h -3.379628 v 1.4366 h 3.178091 v 1.50378 h -3.178091 v 1.76733 h 3.493316 v 1.50378 h -5.482852 z"
           style="font-weight:bold;text-align:center;text-anchor:middle"
           id="path25713" />
        <path
           d="m -11.564634,250.67181 q 0.625283,0 0.893999,-0.23254 0.273885,-0.23254 0.273885,-0.76481 0,-0.5271 -0.273885,-0.75447 -0.268716,-0.22738 -0.893999,-0.22738 h -0.837156 v 1.9792 z m -0.837156,1.37459 v 2.91971 h -1.989536 v -7.71527 h 3.038565 q 1.5244495,0 2.2324144,0.5116 0.7131324,0.51159 0.7131324,1.61747 0,0.7648 -0.3720691,1.25573 -0.3669015,0.49092 -1.1110397,0.72347 0.4082425,0.093 0.7286353,0.42374 0.3255605,0.32556 0.6562886,0.99219 l 1.080034,2.19107 H -9.544092 l -0.940508,-1.91719 q -0.28422,-0.57877 -0.578774,-0.79065 -0.289387,-0.21187 -0.775144,-0.21187 z"
           style="font-weight:bold;text-align:center;text-anchor:middle"
           id="path25715" />
      </g>
    </g>
    <g
       id="use25371"
       transform="translate(125.50834)"
       inkscape:tile-x0="6.9253471"
       inkscape:tile-y0="9.467369">
      <g
         aria-label="TRIGGER"
         id="g25735"
         style="font-size:10.5833px;line-height:1.25;stroke-width:0.264583">
        <path
           d="m -59.192431,208.04441 h 7.110654 v 1.50378 h -2.557975 v 6.21148 h -1.989536 v -6.21148 h -2.563143 z"
           style="font-weight:bold;text-align:center;text-anchor:middle"
           id="path25721" />
        <path
           d="m -48.226727,211.46538 q 0.625283,0 0.893999,-0.23255 0.273884,-0.23254 0.273884,-0.76481 0,-0.52709 -0.273884,-0.75447 -0.268716,-0.22737 -0.893999,-0.22737 h -0.837156 v 1.9792 z m -0.837156,1.37458 v 2.91971 h -1.989536 v -7.71526 h 3.038564 q 1.52445,0 2.232415,0.51159 0.713133,0.5116 0.713133,1.61747 0,0.76481 -0.372069,1.25573 -0.366902,0.49093 -1.11104,0.72347 0.408242,0.093 0.728635,0.42375 0.325561,0.32556 0.656289,0.99218 l 1.080034,2.19107 h -2.118727 l -0.940508,-1.91719 q -0.28422,-0.57877 -0.578774,-0.79064 -0.289388,-0.21188 -0.775144,-0.21188 z"
           style="font-weight:bold;text-align:center;text-anchor:middle"
           id="path25723" />
        <path
           d="m -42.904072,208.04441 h 1.989536 v 7.71526 h -1.989536 z"
           style="font-weight:bold;text-align:center;text-anchor:middle"
           id="path25725" />
        <path
           d="m -32.031385,215.18607 q -0.744138,0.36173 -1.54512,0.5426 -0.800982,0.18087 -1.653641,0.18087 -1.927525,0 -3.054067,-1.07487 -1.126543,-1.08004 -1.126543,-2.92488 0,-1.86551 1.147213,-2.93521 1.147213,-1.0697 3.141917,-1.0697 0.769977,0 1.472774,0.14469 0.707965,0.1447 1.333248,0.42892 v 1.59679 q -0.645954,-0.3669 -1.286739,-0.54776 -0.635619,-0.18087 -1.276404,-0.18087 -1.188554,0 -1.834508,0.66662 -0.640786,0.66146 -0.640786,1.89652 0,1.22473 0.620116,1.89135 0.620115,0.66663 1.76216,0.66663 0.310058,0 0.573607,-0.0362 0.268717,-0.0413 0.480589,-0.12402 v -1.49861 h -1.214392 v -1.33325 h 3.100576 z"
           style="font-weight:bold;text-align:center;text-anchor:middle"
           id="path25727" />
        <path
           d="m -23.344604,215.18607 q -0.744138,0.36173 -1.54512,0.5426 -0.800983,0.18087 -1.653641,0.18087 -1.927525,0 -3.054067,-1.07487 -1.126543,-1.08004 -1.126543,-2.92488 0,-1.86551 1.147213,-2.93521 1.147213,-1.0697 3.141917,-1.0697 0.769977,0 1.472774,0.14469 0.707965,0.1447 1.333248,0.42892 v 1.59679 q -0.645954,-0.3669 -1.28674,-0.54776 -0.635618,-0.18087 -1.276403,-0.18087 -1.188555,0 -1.834508,0.66662 -0.640786,0.66146 -0.640786,1.89652 0,1.22473 0.620116,1.89135 0.620115,0.66663 1.76216,0.66663 0.310058,0 0.573607,-0.0362 0.268717,-0.0413 0.480589,-0.12402 v -1.49861 h -1.214392 v -1.33325 h 3.100576 z"
           style="font-weight:bold;text-align:center;text-anchor:middle"
           id="path25729" />
        <path
           d="m -21.59278,208.04441 h 5.369164 v 1.50378 h -3.379628 v 1.4366 h 3.178091 v 1.50378 h -3.178091 v 1.76732 h 3.493316 v 1.50378 h -5.482852 z"
           style="font-weight:bold;text-align:center;text-anchor:middle"
           id="path25731" />
        <path
           d="m -11.536577,211.46538 q 0.625283,0 0.893999,-0.23255 0.273885,-0.23254 0.273885,-0.76481 0,-0.52709 -0.273885,-0.75447 -0.268716,-0.22737 -0.893999,-0.22737 h -0.837156 v 1.9792 z m -0.837156,1.37458 v 2.91971 h -1.989536 v -7.71526 h 3.038565 q 1.5244496,0 2.2324145,0.51159 0.7131324,0.5116 0.7131324,1.61747 0,0.76481 -0.3720691,1.25573 -0.3669015,0.49093 -1.1110397,0.72347 0.4082425,0.093 0.7286353,0.42375 0.3255605,0.32556 0.6562886,0.99218 l 1.080034,2.19107 h -2.1187269 l -0.9405081,-1.91719 q -0.284219,-0.57877 -0.578774,-0.79064 -0.289387,-0.21188 -0.775144,-0.21188 z"
           style="font-weight:bold;text-align:center;text-anchor:middle"
           id="path25733" />
      </g>
      <g
         aria-label="TRIGGER"
         id="g25751"
         style="font-size:10.5833px;line-height:1.25;stroke-width:0.264583">
        <path
           d="m -58.943488,221.11322 h 7.110655 v 1.50378 h -2.557976 v 6.21149 h -1.989536 V 222.617 h -2.563143 z"
           style="font-weight:bold;text-align:center;text-anchor:middle"
           id="path25737" />
        <path
           d="m -47.977784,224.53419 q 0.625283,0 0.893999,-0.23254 0.273885,-0.23254 0.273885,-0.76481 0,-0.5271 -0.273885,-0.75447 -0.268716,-0.22738 -0.893999,-0.22738 h -0.837155 v 1.9792 z m -0.837155,1.37459 v 2.91971 h -1.989537 v -7.71527 h 3.038565 q 1.52445,0 2.232415,0.5116 0.713132,0.51159 0.713132,1.61747 0,0.76481 -0.372069,1.25573 -0.366902,0.49092 -1.11104,0.72347 0.408243,0.093 0.728636,0.42374 0.32556,0.32556 0.656288,0.99219 l 1.080034,2.19107 h -2.118727 l -0.940508,-1.91719 q -0.284219,-0.57877 -0.578774,-0.79065 -0.289387,-0.21187 -0.775144,-0.21187 z"
           style="font-weight:bold;text-align:center;text-anchor:middle"
           id="path25739" />
        <path
           d="m -42.655128,221.11322 h 1.989536 v 7.71527 h -1.989536 z"
           style="font-weight:bold;text-align:center;text-anchor:middle"
           id="path25741" />
        <path
           d="m -31.782442,228.25488 q -0.744138,0.36174 -1.54512,0.54261 -0.800982,0.18086 -1.653641,0.18086 -1.927524,0 -3.054067,-1.07486 -1.126543,-1.08004 -1.126543,-2.92488 0,-1.86551 1.147213,-2.93521 1.147214,-1.0697 3.141918,-1.0697 0.769976,0 1.472773,0.14469 0.707965,0.1447 1.333248,0.42892 v 1.59679 q -0.645953,-0.3669 -1.286739,-0.54777 -0.635618,-0.18086 -1.276404,-0.18086 -1.188554,0 -1.834507,0.66662 -0.640786,0.66146 -0.640786,1.89652 0,1.22473 0.620115,1.89135 0.620115,0.66662 1.762161,0.66662 0.310057,0 0.573606,-0.0362 0.268717,-0.0413 0.48059,-0.12402 v -1.49861 h -1.214393 v -1.33325 h 3.100576 z"
           style="font-weight:bold;text-align:center;text-anchor:middle"
           id="path25743" />
        <path
           d="m -23.095661,228.25488 q -0.744138,0.36174 -1.54512,0.54261 -0.800982,0.18086 -1.653641,0.18086 -1.927524,0 -3.054067,-1.07486 -1.126543,-1.08004 -1.126543,-2.92488 0,-1.86551 1.147213,-2.93521 1.147214,-1.0697 3.141918,-1.0697 0.769976,0 1.472773,0.14469 0.707965,0.1447 1.333248,0.42892 v 1.59679 q -0.645954,-0.3669 -1.286739,-0.54777 -0.635618,-0.18086 -1.276404,-0.18086 -1.188554,0 -1.834508,0.66662 -0.640785,0.66146 -0.640785,1.89652 0,1.22473 0.620115,1.89135 0.620115,0.66662 1.762161,0.66662 0.310057,0 0.573606,-0.0362 0.268717,-0.0413 0.48059,-0.12402 v -1.49861 h -1.214393 v -1.33325 h 3.100576 z"
           style="font-weight:bold;text-align:center;text-anchor:middle"
           id="path25745" />
        <path
           d="m -21.343837,221.11322 h 5.369164 V 222.617 H -19.3543 v 1.4366 h 3.17809 v 1.50378 h -3.17809 v 1.76733 h 3.493315 v 1.50378 h -5.482852 z"
           style="font-weight:bold;text-align:center;text-anchor:middle"
           id="path25747" />
        <path
           d="m -11.287634,224.53419 q 0.625283,0 0.894,-0.23254 0.273884,-0.23254 0.273884,-0.76481 0,-0.5271 -0.273884,-0.75447 -0.268717,-0.22738 -0.894,-0.22738 h -0.837155 v 1.9792 z m -0.837155,1.37459 v 2.91971 h -1.989537 v -7.71527 h 3.038565 q 1.5244499,0 2.2324148,0.5116 0.7131325,0.51159 0.7131325,1.61747 0,0.76481 -0.3720692,1.25573 -0.3669015,0.49092 -1.1110397,0.72347 0.4082425,0.093 0.7286354,0.42374 0.3255605,0.32556 0.6562886,0.99219 l 1.080034,2.19107 h -2.118727 L -10.2076,226.9113 q -0.284219,-0.57877 -0.578774,-0.79065 -0.289387,-0.21187 -0.775144,-0.21187 z"
           style="font-weight:bold;text-align:center;text-anchor:middle"
           id="path25749" />
      </g>
      <g
         aria-label="TRIGGER"
         id="g25767"
         style="font-size:10.5833px;line-height:1.25;stroke-width:0.264583">
        <path
           d="m -58.720469,234.18203 h 7.110654 v 1.50378 h -2.557975 v 6.21148 h -1.989536 v -6.21148 h -2.563143 z"
           style="font-weight:bold;text-align:center;text-anchor:middle"
           id="path25753" />
        <path
           d="m -47.754765,237.603 q 0.625283,0 0.893999,-0.23255 0.273884,-0.23254 0.273884,-0.76481 0,-0.52709 -0.273884,-0.75447 -0.268716,-0.22738 -0.893999,-0.22738 h -0.837156 v 1.97921 z m -0.837156,1.37458 v 2.91971 h -1.989536 v -7.71526 h 3.038564 q 1.52445,0 2.232415,0.51159 0.713133,0.5116 0.713133,1.61747 0,0.76481 -0.372069,1.25573 -0.366902,0.49093 -1.11104,0.72347 0.408242,0.093 0.728635,0.42374 0.325561,0.32557 0.656289,0.99219 l 1.080034,2.19107 h -2.118727 l -0.940508,-1.91719 q -0.28422,-0.57877 -0.578775,-0.79064 -0.289387,-0.21188 -0.775144,-0.21188 z"
           style="font-weight:bold;text-align:center;text-anchor:middle"
           id="path25755" />
        <path
           d="m -42.43211,234.18203 h 1.989536 v 7.71526 h -1.989536 z"
           style="font-weight:bold;text-align:center;text-anchor:middle"
           id="path25757" />
        <path
           d="m -31.559423,241.32369 q -0.744138,0.36173 -1.54512,0.5426 -0.800983,0.18086 -1.653641,0.18086 -1.927525,0 -3.054067,-1.07486 -1.126543,-1.08004 -1.126543,-2.92488 0,-1.86551 1.147213,-2.93521 1.147213,-1.0697 3.141917,-1.0697 0.769977,0 1.472774,0.14469 0.707965,0.1447 1.333248,0.42892 v 1.59679 q -0.645954,-0.3669 -1.28674,-0.54776 -0.635618,-0.18087 -1.276403,-0.18087 -1.188554,0 -1.834508,0.66662 -0.640786,0.66146 -0.640786,1.89652 0,1.22473 0.620116,1.89135 0.620115,0.66663 1.76216,0.66663 0.310058,0 0.573607,-0.0362 0.268717,-0.0413 0.480589,-0.12402 v -1.49861 h -1.214392 v -1.33325 h 3.100576 z"
           style="font-weight:bold;text-align:center;text-anchor:middle"
           id="path25759" />
        <path
           d="m -22.872642,241.32369 q -0.744138,0.36173 -1.54512,0.5426 -0.800983,0.18086 -1.653641,0.18086 -1.927525,0 -3.054067,-1.07486 -1.126543,-1.08004 -1.126543,-2.92488 0,-1.86551 1.147213,-2.93521 1.147213,-1.0697 3.141917,-1.0697 0.769977,0 1.472774,0.14469 0.707965,0.1447 1.333247,0.42892 v 1.59679 q -0.645953,-0.3669 -1.286739,-0.54776 -0.635618,-0.18087 -1.276403,-0.18087 -1.188555,0 -1.834508,0.66662 -0.640786,0.66146 -0.640786,1.89652 0,1.22473 0.620116,1.89135 0.620115,0.66663 1.76216,0.66663 0.310058,0 0.573607,-0.0362 0.268716,-0.0413 0.480589,-0.12402 v -1.49861 h -1.214392 v -1.33325 h 3.100576 z"
           style="font-weight:bold;text-align:center;text-anchor:middle"
           id="path25761" />
        <path
           d="m -21.120818,234.18203 h 5.369164 v 1.50378 h -3.379628 v 1.4366 h 3.178091 v 1.50378 h -3.178091 v 1.76732 h 3.493316 v 1.50378 h -5.482852 z"
           style="font-weight:bold;text-align:center;text-anchor:middle"
           id="path25763" />
        <path
           d="m -11.064615,237.603 q 0.625283,0 0.893999,-0.23255 0.2738846,-0.23254 0.2738846,-0.76481 0,-0.52709 -0.2738846,-0.75447 -0.268716,-0.22738 -0.893999,-0.22738 h -0.837156 v 1.97921 z m -0.837156,1.37458 v 2.91971 h -1.989536 v -7.71526 h 3.038565 q 1.5244496,0 2.2324144,0.51159 0.7131325,0.5116 0.7131325,1.61747 0,0.76481 -0.3720691,1.25573 -0.3669015,0.49093 -1.1110398,0.72347 0.4082426,0.093 0.7286354,0.42374 0.3255605,0.32557 0.6562886,0.99219 l 1.080034,2.19107 h -2.118727 l -0.940508,-1.91719 q -0.28422,-0.57877 -0.578774,-0.79064 -0.289387,-0.21188 -0.775144,-0.21188 z"
           style="font-weight:bold;text-align:center;text-anchor:middle"
           id="path25765" />
      </g>
      <g
         aria-label="TRIGGER"
         id="g25783"
         style="font-size:10.5833px;line-height:1.25;stroke-width:0.264583">
        <path
           d="m -59.220488,247.25084 h 7.110654 v 1.50378 h -2.557975 v 6.21149 h -1.989536 v -6.21149 h -2.563143 z"
           style="font-weight:bold;text-align:center;text-anchor:middle"
           id="path25769" />
        <path
           d="m -48.254784,250.67181 q 0.625282,0 0.893999,-0.23254 0.273884,-0.23254 0.273884,-0.76481 0,-0.5271 -0.273884,-0.75447 -0.268717,-0.22738 -0.893999,-0.22738 h -0.837156 v 1.9792 z m -0.837156,1.37459 v 2.91971 h -1.989536 v -7.71527 h 3.038564 q 1.52445,0 2.232415,0.5116 0.713133,0.51159 0.713133,1.61747 0,0.7648 -0.37207,1.25573 -0.366901,0.49092 -1.111039,0.72347 0.408242,0.093 0.728635,0.42374 0.325561,0.32556 0.656289,0.99219 l 1.080034,2.19107 h -2.118727 l -0.940508,-1.91719 q -0.28422,-0.57877 -0.578775,-0.79065 -0.289387,-0.21187 -0.775144,-0.21187 z"
           style="font-weight:bold;text-align:center;text-anchor:middle"
           id="path25771" />
        <path
           d="m -42.932129,247.25084 h 1.989536 v 7.71527 h -1.989536 z"
           style="font-weight:bold;text-align:center;text-anchor:middle"
           id="path25773" />
        <path
           d="m -32.059442,254.3925 q -0.744138,0.36174 -1.54512,0.5426 -0.800983,0.18087 -1.653641,0.18087 -1.927525,0 -3.054067,-1.07486 -1.126543,-1.08004 -1.126543,-2.92488 0,-1.86551 1.147213,-2.93521 1.147213,-1.0697 3.141917,-1.0697 0.769977,0 1.472774,0.14469 0.707965,0.14469 1.333247,0.42891 v 1.5968 q -0.645953,-0.3669 -1.286739,-0.54777 -0.635618,-0.18086 -1.276403,-0.18086 -1.188555,0 -1.834508,0.66662 -0.640786,0.66146 -0.640786,1.89652 0,1.22473 0.620116,1.89135 0.620115,0.66662 1.76216,0.66662 0.310058,0 0.573607,-0.0362 0.268716,-0.0413 0.480589,-0.12402 v -1.49861 h -1.214392 v -1.33325 h 3.100576 z"
           style="font-weight:bold;text-align:center;text-anchor:middle"
           id="path25775" />
        <path
           d="m -23.372661,254.3925 q -0.744138,0.36174 -1.545121,0.5426 -0.800982,0.18087 -1.65364,0.18087 -1.927525,0 -3.054068,-1.07486 -1.126542,-1.08004 -1.126542,-2.92488 0,-1.86551 1.147213,-2.93521 1.147213,-1.0697 3.141917,-1.0697 0.769976,0 1.472774,0.14469 0.707965,0.14469 1.333247,0.42891 v 1.5968 q -0.645953,-0.3669 -1.286739,-0.54777 -0.635618,-0.18086 -1.276403,-0.18086 -1.188555,0 -1.834508,0.66662 -0.640786,0.66146 -0.640786,1.89652 0,1.22473 0.620116,1.89135 0.620115,0.66662 1.76216,0.66662 0.310058,0 0.573607,-0.0362 0.268716,-0.0413 0.480589,-0.12402 v -1.49861 h -1.214392 v -1.33325 h 3.100576 z"
           style="font-weight:bold;text-align:center;text-anchor:middle"
           id="path25777" />
        <path
           d="m -21.620837,247.25084 h 5.369164 v 1.50378 h -3.379628 v 1.4366 h 3.178091 v 1.50378 h -3.178091 v 1.76733 h 3.493316 v 1.50378 h -5.482852 z"
           style="font-weight:bold;text-align:center;text-anchor:middle"
           id="path25779" />
        <path
           d="m -11.564634,250.67181 q 0.625283,0 0.893999,-0.23254 0.273885,-0.23254 0.273885,-0.76481 0,-0.5271 -0.273885,-0.75447 -0.268716,-0.22738 -0.893999,-0.22738 h -0.837156 v 1.9792 z m -0.837156,1.37459 v 2.91971 h -1.989536 v -7.71527 h 3.038565 q 1.5244495,0 2.2324144,0.5116 0.7131324,0.51159 0.7131324,1.61747 0,0.7648 -0.3720691,1.25573 -0.3669015,0.49092 -1.1110397,0.72347 0.4082425,0.093 0.7286353,0.42374 0.3255605,0.32556 0.6562886,0.99219 l 1.080034,2.19107 H -9.544092 l -0.940508,-1.91719 q -0.28422,-0.57877 -0.578774,-0.79065 -0.289387,-0.21187 -0.775144,-0.21187 z"
           style="font-weight:bold;text-align:center;text-anchor:middle"
           id="path25781" />
      </g>
    </g>
  </g>
</svg>
