<?xml version="1.0" encoding="UTF-8" standalone="no"?>
<!-- Created with Inkscape (http://www.inkscape.org/) -->

<svg
   width="70"
   height="125"
   viewBox="0 0 18.520833 33.072917"
   version="1.1"
   id="svg5"
   inkscape:version="1.1.1 (3bf5ae0d25, 2021-09-20, custom)"
   sodipodi:docname="InvProgBar_over.svg"
   xmlns:inkscape="http://www.inkscape.org/namespaces/inkscape"
   xmlns:sodipodi="http://sodipodi.sourceforge.net/DTD/sodipodi-0.dtd"
   xmlns="http://www.w3.org/2000/svg"
   xmlns:svg="http://www.w3.org/2000/svg">
  <sodipodi:namedview
     id="namedview7"
     pagecolor="#505050"
     bordercolor="#ffffff"
     borderopacity="1"
     inkscape:pageshadow="0"
     inkscape:pageopacity="0"
     inkscape:pagecheckerboard="1"
     inkscape:document-units="mm"
     showgrid="false"
     units="px"
     width="800px"
     inkscape:snap-bbox="true"
     inkscape:snap-page="true"
     fit-margin-top="0"
     fit-margin-left="0"
     fit-margin-right="0"
     fit-margin-bottom="0"
     inkscape:zoom="3.6636622"
     inkscape:cx="27.431568"
     inkscape:cy="37.257802"
     inkscape:window-width="1920"
     inkscape:window-height="1022"
     inkscape:window-x="0"
     inkscape:window-y="28"
     inkscape:window-maximized="1"
     inkscape:current-layer="layer1"
     inkscape:bbox-nodes="true"
     inkscape:object-paths="false"
     inkscape:snap-others="false"
     inkscape:snap-nodes="false" />
  <defs
     id="defs2" />
  <g
     inkscape:label="Layer 1"
     inkscape:groupmode="layer"
     id="layer1"
     transform="translate(0.60000002,0.60000002)">
    <path
       style="color:#000000;fill:#ffffff;stroke-linecap:round;stroke-linejoin:round;-inkscape-stroke:none"
       d="m 1.6230469,-0.59960937 c -1.22469296,0 -2.22265627,0.99796331 -2.22265627,2.22265627 V 30.248047 c 0,1.224693 0.99796331,2.224609 2.22265627,2.224609 H 15.697266 c 1.224693,0 2.222656,-0.999916 2.222656,-2.224609 V 1.6230469 c 0,-1.22469296 -0.997963,-2.22265627 -2.222656,-2.22265627 z m 0,0.85546875 H 15.697266 c 0.7656,0 1.36914,0.60158698 1.36914,1.36718752 V 30.248047 c 0,0.7656 -0.60354,1.36914 -1.36914,1.36914 H 1.6230469 c -0.76560054,0 -1.36718752,-0.60354 -1.36718752,-1.36914 V 1.6230469 c 0,-0.76560054 0.60158698,-1.36718752 1.36718752,-1.36718752 z"
       id="rect846" />
  </g>
</svg>
