<?xml version="1.0" encoding="UTF-8" standalone="no"?>
<!-- Created with Inkscape (http://www.inkscape.org/) -->

<svg
   width="256"
   height="512"
   viewBox="0 0 67.733332 135.46667"
   version="1.1"
   id="svg5"
   inkscape:version="1.2 (dc2aedaf03, 2022-05-15)"
   sodipodi:docname="UI icons.svg"
   xml:space="preserve"
   xmlns:inkscape="http://www.inkscape.org/namespaces/inkscape"
   xmlns:sodipodi="http://sodipodi.sourceforge.net/DTD/sodipodi-0.dtd"
   xmlns="http://www.w3.org/2000/svg"
   xmlns:svg="http://www.w3.org/2000/svg"><sodipodi:namedview
     id="namedview7"
     pagecolor="#000000"
     bordercolor="#ffffff"
     borderopacity="1"
     inkscape:pageshadow="0"
     inkscape:pageopacity="0"
     inkscape:pagecheckerboard="false"
     inkscape:document-units="mm"
     showgrid="false"
     units="px"
     inkscape:snap-page="true"
     inkscape:zoom="2"
     inkscape:cx="268.75"
     inkscape:cy="127.75"
     inkscape:window-width="1920"
     inkscape:window-height="1020"
     inkscape:window-x="0"
     inkscape:window-y="32"
     inkscape:window-maximized="1"
     inkscape:current-layer="layer5"
     showguides="false"
     inkscape:snap-bbox="true"
     inkscape:snap-bbox-midpoints="true"
     inkscape:snap-center="true"
     inkscape:showpageshadow="0"
     inkscape:deskcolor="#000000"><inkscape:grid
       type="xygrid"
       id="grid2316" /></sodipodi:namedview><defs
     id="defs2"><inkscape:path-effect
       effect="copy_rotate"
       starting_point="2.6096128,-89.930593"
       origin="-860.05536,-89.930593"
       id="path-effect1309"
       is_visible="true"
       lpeversion="1.2"
       lpesatellites=""
       method="normal"
       num_copies="8"
       starting_angle="0"
       rotation_angle="45"
       gap="-0.01"
       copies_to_360="true"
       mirror_copies="false"
       split_items="false"
       link_styles="true" /><inkscape:path-effect
       effect="copy_rotate"
       starting_point="315.49416,-93.551627"
       origin="-753.4495,-93.551627"
       id="path-effect1287"
       is_visible="true"
       lpeversion="1.2"
       lpesatellites=""
       method="normal"
       num_copies="8"
       starting_angle="0"
       rotation_angle="45"
       gap="-0.01"
       copies_to_360="true"
       mirror_copies="false"
       split_items="false"
       link_styles="false" /><linearGradient
       id="linearGradient3659"
       inkscape:swatch="solid"><stop
         style="stop-color:#ff3131;stop-opacity:1;"
         offset="0"
         id="stop3657" /></linearGradient></defs><g
     inkscape:label="slider grabber"
     inkscape:groupmode="layer"
     id="layer1" /><g
     inkscape:groupmode="layer"
     id="layer2"
     inkscape:label="checks" /><g
     inkscape:groupmode="layer"
     id="layer3"
     inkscape:label="Dmg indicator" /><g
     inkscape:groupmode="layer"
     id="layer4"
     inkscape:label="WeaponSlot" /><g
     inkscape:groupmode="layer"
     id="layer5"
     inkscape:label="Crosshairs"><g
       style="fill:#ffffff;fill-opacity:1"
       id="g1045"
       transform="matrix(3.5679773,0,0,3.5679773,5.3209075,14.018645)"
       inkscape:export-filename="../Icons/edit_pencil.png"
       inkscape:export-xdpi="48"
       inkscape:export-ydpi="48"><path
         d="m 12.854,0.146 a 0.5,0.5 0 0 0 -0.707,0 L 10.5,1.793 14.207,5.5 15.854,3.854 a 0.5,0.5 0 0 0 0,-0.708 z M 13.5,6.207 9.793,2.5 3.293,9 H 3.5 A 0.5,0.5 0 0 1 4,9.5 V 10 H 4.5 A 0.5,0.5 0 0 1 5,10.5 V 11 H 5.5 A 0.5,0.5 0 0 1 6,11.5 V 12 H 6.5 A 0.5,0.5 0 0 1 7,12.5 v 0.207 z M 6.032,13.675 A 0.5,0.5 0 0 1 6,13.5 V 13 H 5.5 A 0.5,0.5 0 0 1 5,12.5 V 12 H 4.5 A 0.5,0.5 0 0 1 4,11.5 V 11 H 3.5 A 0.5,0.5 0 0 1 3,10.5 V 10 H 2.5 A 0.499,0.499 0 0 1 2.325,9.968 l -0.179,0.178 a 0.5,0.5 0 0 0 -0.11,0.168 l -2,5 a 0.5,0.5 0 0 0 0.65,0.65 l 5,-2 a 0.5,0.5 0 0 0 0.168,-0.11 l 0.178,-0.178 z"
         id="path1036"
         style="fill:#ffffff;fill-opacity:1" /></g><g
       style="fill:#ffffff;fill-opacity:1"
       id="g1756"
       transform="matrix(4.4936966,0,0,4.4936966,66.424481,7.4613239)"
       inkscape:export-filename="../Icons/reset.png"
       inkscape:export-xdpi="48"
       inkscape:export-ydpi="48"><path
         fill-rule="evenodd"
         d="M 8,3 A 5,5 0 1 1 3.454,5.914 0.5,0.5 0 0 0 2.546,5.497 6,6 0 1 0 8,2 Z"
         id="path1744"
         style="fill:#ffffff;fill-opacity:1" /><path
         d="M 8,4.466 V 0.534 A 0.25,0.25 0 0 0 7.59,0.342 L 5.23,2.308 a 0.25,0.25 0 0 0 0,0.384 L 7.59,4.658 A 0.25,0.25 0 0 0 8,4.466 Z"
         id="path1746"
         style="fill:#ffffff;fill-opacity:1" /></g><g
       style="fill:#ffffff;fill-opacity:1"
       id="g1846"
       transform="matrix(3.370268,0,0,3.370268,21.483003,77.18975)"
       inkscape:export-filename="../Icons/abort_x.png"
       inkscape:export-xdpi="48"
       inkscape:export-ydpi="48"><path
         d="M 8,15 A 7,7 0 1 1 8,1 7,7 0 0 1 8,15 Z m 0,1 A 8,8 0 1 0 8,0 8,8 0 0 0 8,16 Z"
         id="path1834"
         style="fill:#ffffff;fill-opacity:1" /><path
         d="m 4.646,4.646 a 0.5,0.5 0 0 1 0.708,0 L 8,7.293 10.646,4.646 a 0.5006316,0.5006316 0 0 1 0.708,0.708 L 8.707,8 l 2.647,2.646 a 0.5006316,0.5006316 0 0 1 -0.708,0.708 L 8,8.707 5.354,11.354 A 0.5006316,0.5006316 0 0 1 4.646,10.646 L 7.293,8 4.646,5.354 a 0.5,0.5 0 0 1 0,-0.708 z"
         id="path1836"
         style="fill:#ffffff;fill-opacity:1" /></g></g></svg>
