# Blender v2.93.4 OBJ File: 'rifle.blend'
# www.blender.org
mtllib rifle.mtl
o Cube
v 3.855217 -2.888365 0.676903
v -4.816764 1.851472 0.768992
v 7.764946 -2.888365 0.676903
v 8.577705 2.000000 1.165189
v -4.816764 0.976637 0.768992
v 8.577705 0.393443 1.165189
v -1.359169 -0.018756 0.504188
v -2.057135 2.000000 1.165189
v -14.980373 0.976637 0.768992
v -14.980373 1.851472 0.768992
v 0.002857 -0.823129 0.346328
v -2.057135 0.393443 1.165189
v 0.721370 -1.247461 0.921046
v -3.253327 -3.226089 0.504188
v -1.891301 -4.030463 0.346328
v 3.855217 -2.888365 -0.676903
v -4.816764 1.851472 -0.768992
v 7.764946 -2.888365 -0.676903
v 8.577705 2.000000 -1.165189
v -4.816764 0.976637 -0.768992
v 8.577705 0.393443 -1.165189
v -4.816764 2.076011 0.000000
v -4.816764 0.591541 0.000000
v 9.235474 2.340225 0.000000
v 9.235474 0.393443 0.000000
v 8.422714 -2.888365 0.000000
v 3.855217 -2.888365 0.000000
v -1.359169 -0.018756 -0.504188
v -1.359169 -0.018756 0.000000
v -2.057135 2.000000 -1.165189
v -2.057135 2.340225 0.000000
v -14.980373 0.976637 -0.768992
v -14.980373 0.591541 0.000000
v -14.980373 1.851472 -0.768992
v -14.980373 2.076011 0.000000
v 0.002857 -0.823129 -0.346328
v 0.002857 -0.823128 0.000000
v -2.057135 0.393443 -1.165189
v -2.057135 0.393443 0.000000
v 0.721370 -1.247461 -0.921046
v 0.721370 -1.247461 0.000000
v -3.253327 -3.226089 -0.504188
v -3.253327 -3.226090 0.000000
v -1.891301 -4.030463 -0.346328
v -1.891301 -4.030462 0.000000
vt 0.625000 0.750000
vt 0.524590 0.625000
vt 0.625000 0.625000
vt 0.524590 1.000000
vt 0.524590 0.750000
vt 0.375000 0.750000
vt 0.125000 0.625000
vt 0.375000 0.625000
vt 0.875000 0.625000
vt 0.536360 0.021252
vt 0.535380 0.103748
vt 0.524590 0.000000
vt 0.612965 0.021252
vt 0.625000 0.125000
vt 0.613952 0.103748
vt 0.625000 0.000000
vt 0.536360 0.021252
vt 0.613952 0.103748
vt 0.535380 0.103748
vt 0.612965 0.021252
vt 0.375000 0.000000
vt 0.449795 0.125000
vt 0.375000 0.125000
vt 0.517222 0.035076
vt 0.524590 0.125000
vt 0.517222 0.089949
vt 0.449795 0.000000
vt 0.457163 0.041944
vt 0.457163 0.041944
vt 0.517222 0.089949
vt 0.457163 0.083085
vt 0.517222 0.035076
vt 0.457163 0.083085
vt 0.449795 1.000000
vt 0.375000 1.000000
vt 0.625000 0.750000
vt 0.524590 1.000000
vt 0.524590 0.750000
vt 0.375000 0.750000
vt 0.125000 0.750000
vt 0.875000 0.750000
vt 0.547779 0.000000
vt 0.547779 0.000000
vt 0.440276 0.000000
vt 0.536360 0.021252
vt 0.524590 0.000000
vt 0.612965 0.021252
vt 0.625000 0.000000
vt 0.536360 0.021252
vt 0.612965 0.021252
vt 0.375000 0.000000
vt 0.517222 0.035076
vt 0.449795 0.000000
vt 0.457163 0.041944
vt 0.457163 0.041944
vt 0.517222 0.035076
vt 0.449795 1.000000
vt 0.625000 1.000000
vt 0.125000 0.750000
vt 0.875000 0.750000
vt 0.625000 1.000000
vt 0.440276 0.000000
vt 0.440276 0.000000
vt 0.547779 0.000000
vt 0.547779 0.000000
vt 0.375000 1.000000
vn 0.8708 0.0000 0.4916
vn 0.0000 0.0000 1.0000
vn 0.0000 -1.0000 0.0000
vn 0.0000 0.9599 0.2803
vn 0.6904 -0.2708 0.6709
vn 0.8513 -0.2108 0.4805
vn -0.2455 -0.8668 0.4341
vn -0.0915 0.9559 0.2791
vn -0.1421 0.0000 0.9899
vn -1.0000 0.0000 0.0000
vn 0.0000 -0.8941 0.4478
vn -0.4639 -0.8859 0.0000
vn -0.5085 -0.8611 0.0000
vn -0.8611 0.5085 0.0000
vn 0.8611 -0.5085 0.0000
vn 0.0855 -0.0505 0.9951
vn -0.0000 -0.1472 0.9891
vn -0.0716 -0.9974 0.0000
vn 0.8708 0.0000 -0.4916
vn 0.0000 0.0000 -1.0000
vn 0.0000 0.9599 -0.2803
vn 0.6904 -0.2708 -0.6709
vn 0.8513 -0.2108 -0.4805
vn -0.2455 -0.8668 -0.4341
vn -0.0915 0.9559 -0.2791
vn -0.1421 0.0000 -0.9899
vn 0.0000 -0.8941 -0.4478
vn 0.0855 -0.0505 -0.9951
vn 0.0000 -0.1472 -0.9891
usemtl None
s off
f 4/1/1 25/2/1 24/3/1
f 4/1/2 12/4/2 6/5/2
f 3/6/3 27/7/3 26/8/3
f 31/9/4 4/1/4 24/3/4
f 6/5/5 3/6/5 26/8/5
f 6/5/6 26/8/6 25/2/6
f 5/10/7 23/11/7 12/12/7
f 2/13/8 31/14/8 22/15/8
f 5/10/9 8/16/9 2/13/9
f 9/17/10 35/18/10 33/19/10
f 5/10/11 33/19/11 23/11/11
f 2/13/2 9/17/2 5/10/2
f 22/15/4 10/20/4 2/13/4
f 1/21/12 41/22/12 27/23/12
f 7/24/13 39/25/13 29/26/13
f 7/24/13 13/27/13 12/12/13
f 11/28/13 41/22/13 13/27/13
f 15/29/13 43/30/13 45/31/13
f 29/26/14 14/32/14 7/24/14
f 11/28/15 45/31/15 37/33/15
f 11/28/16 14/32/16 15/29/16
f 6/5/17 13/34/17 1/35/17
f 12/12/18 23/11/18 39/25/18
f 35/18/2 23/11/2 22/15/2
f 25/2/19 19/36/19 24/3/19
f 38/37/20 19/36/20 21/38/20
f 18/39/3 27/7/3 16/40/3
f 31/9/21 19/36/21 30/41/21
f 21/38/22 26/8/22 18/39/22
f 43/30/2 37/33/2 29/26/2
f 41/42/2 27/43/2 24/44/2
f 21/38/23 25/2/23 26/8/23
f 20/45/24 38/46/24 23/11/24
f 31/14/25 17/47/25 22/15/25
f 39/25/2 22/15/2 23/11/2
f 30/48/26 20/45/26 17/47/26
f 35/18/10 32/49/10 33/19/10
f 33/19/27 20/45/27 23/11/27
f 32/49/20 17/47/20 20/45/20
f 34/50/21 22/15/21 17/47/21
f 41/22/12 16/51/12 27/23/12
f 39/25/13 28/52/13 29/26/13
f 28/52/13 40/53/13 36/54/13
f 37/33/2 39/25/2 29/26/2
f 36/54/13 41/22/13 37/33/13
f 43/30/13 44/55/13 45/31/13
f 42/56/14 29/26/14 28/52/14
f 45/31/15 36/54/15 37/33/15
f 44/55/28 28/52/28 36/54/28
f 40/57/29 38/37/29 21/38/29
f 38/46/18 39/25/18 23/11/18
f 4/1/1 6/5/1 25/2/1
f 4/1/2 8/58/2 12/4/2
f 3/6/3 1/59/3 27/7/3
f 31/9/4 8/60/4 4/1/4
f 2/13/8 8/16/8 31/14/8
f 5/10/9 12/12/9 8/16/9
f 9/17/10 10/20/10 35/18/10
f 5/10/11 9/17/11 33/19/11
f 2/13/2 10/20/2 9/17/2
f 22/15/4 35/18/4 10/20/4
f 1/21/12 13/27/12 41/22/12
f 7/24/13 12/12/13 39/25/13
f 7/24/13 11/28/13 13/27/13
f 11/28/13 37/33/13 41/22/13
f 15/29/13 14/32/13 43/30/13
f 29/26/14 43/30/14 14/32/14
f 11/28/15 15/29/15 45/31/15
f 11/28/16 7/24/16 14/32/16
f 1/35/17 3/6/17 6/5/17
f 6/5/17 12/4/17 13/34/17
f 35/18/2 33/19/2 23/11/2
f 25/2/19 21/38/19 19/36/19
f 38/37/20 30/61/20 19/36/20
f 18/39/3 26/8/3 27/7/3
f 31/9/21 24/3/21 19/36/21
f 43/30/2 45/31/2 37/33/2
f 26/62/2 25/63/2 27/43/2
f 25/63/2 24/44/2 27/43/2
f 24/44/2 31/64/2 41/42/2
f 31/64/2 39/65/2 41/42/2
f 31/14/25 30/48/25 17/47/25
f 39/25/2 31/14/2 22/15/2
f 30/48/26 38/46/26 20/45/26
f 35/18/10 34/50/10 32/49/10
f 33/19/27 32/49/27 20/45/27
f 32/49/20 34/50/20 17/47/20
f 34/50/21 35/18/21 22/15/21
f 41/22/12 40/53/12 16/51/12
f 39/25/13 38/46/13 28/52/13
f 28/52/13 38/46/13 40/53/13
f 37/33/2 41/22/2 39/25/2
f 36/54/13 40/53/13 41/22/13
f 43/30/13 42/56/13 44/55/13
f 42/56/14 43/30/14 29/26/14
f 45/31/15 44/55/15 36/54/15
f 44/55/28 42/56/28 28/52/28
f 21/38/29 18/39/29 16/66/29
f 16/66/29 40/57/29 21/38/29
