<?xml version="1.0" encoding="UTF-8" standalone="no"?>
<!-- Created with Inkscape (http://www.inkscape.org/) -->

<svg
   width="250"
   height="250"
   viewBox="0 0 66.145832 66.145835"
   version="1.1"
   id="svg5"
   inkscape:version="1.1.1 (3bf5ae0d25, 2021-09-20, custom)"
   sodipodi:docname="compass.svg"
   xmlns:inkscape="http://www.inkscape.org/namespaces/inkscape"
   xmlns:sodipodi="http://sodipodi.sourceforge.net/DTD/sodipodi-0.dtd"
   xmlns="http://www.w3.org/2000/svg"
   xmlns:svg="http://www.w3.org/2000/svg">
  <sodipodi:namedview
     id="namedview7"
     pagecolor="#505050"
     bordercolor="#ffffff"
     borderopacity="1"
     inkscape:pageshadow="0"
     inkscape:pageopacity="0"
     inkscape:pagecheckerboard="1"
     inkscape:document-units="mm"
     showgrid="false"
     units="px"
     width="250px"
     inkscape:snap-page="true"
     inkscape:snap-bbox="false"
     inkscape:bbox-nodes="false"
     inkscape:zoom="2.5906004"
     inkscape:cx="114.83824"
     inkscape:cy="130.66469"
     inkscape:window-width="1920"
     inkscape:window-height="1022"
     inkscape:window-x="0"
     inkscape:window-y="28"
     inkscape:window-maximized="1"
     inkscape:current-layer="layer1"
     inkscape:snap-bbox-midpoints="true"
     inkscape:snap-global="false"
     showguides="false">
    <inkscape:grid
       type="xygrid"
       id="grid2559" />
  </sodipodi:namedview>
  <defs
     id="defs2" />
  <g
     inkscape:label="Layer 1"
     inkscape:groupmode="layer"
     id="layer1">
    <path
       id="circle10948"
       style="display:inline;fill:none;fill-opacity:0.408503;stroke:#cbcbcb;stroke-width:0.5;stroke-linecap:round;stroke-linejoin:round"
       d="m 40.957719,33.072918 c 0,4.354655 -3.530146,7.884801 -7.884801,7.884801 -4.354655,0 -7.884801,-3.530146 -7.884801,-7.884801 0,-4.354655 3.530146,-7.884801 7.884801,-7.884801 4.354655,0 7.884801,3.530146 7.884801,7.884801 z m 7.884802,0 c 0,8.709311 -7.060292,15.769603 -15.769603,15.769603 -8.709311,0 -15.769603,-7.060292 -15.769603,-15.769603 0,-8.709311 7.060292,-15.769603 15.769603,-15.769603 8.709311,0 15.769603,7.060292 15.769603,15.769603 z m 7.884801,0 c 0,13.063967 -10.590437,23.654404 -23.654404,23.654404 -13.063966,0 -23.6544037,-10.590438 -23.6544037,-23.654404 2e-7,-13.063966 10.5904377,-23.6544035 23.6544037,-23.6544037 13.063966,0 23.654404,10.5904377 23.654404,23.6544037 z m 7.884801,0 C 64.612122,50.49154 50.49154,64.612122 33.072918,64.612123 15.654296,64.612123 1.533713,50.49154 1.5337124,33.072918 1.5337126,15.654296 15.654296,1.5337126 33.072918,1.5337124 50.49154,1.533713 64.612123,15.654296 64.612123,33.072918 Z"
       sodipodi:nodetypes="ssssssssssssssssssss" />
    <circle
       style="display:inline;fill:#000000;fill-opacity:0.408503;stroke:#fefefe;stroke-width:3.06742;stroke-linecap:round;stroke-linejoin:round;stroke-miterlimit:4;stroke-dasharray:none;stroke-opacity:1;paint-order:normal"
       id="path891"
       cx="33.072918"
       cy="33.072918"
       r="31.539206" />
  </g>
</svg>
