<?xml version="1.0" encoding="UTF-8" standalone="no"?>
<!-- Created with Inkscape (http://www.inkscape.org/) -->

<svg
   version="1.1"
   id="svg870"
   width="45"
   height="45"
   viewBox="0 0 45 45"
   sodipodi:docname="crosshair2.svg"
   inkscape:export-filename="/home/andrea/Projects/Godot/FPS test/Assets/Sprites/crosshair2.png"
   inkscape:export-xdpi="89.982002"
   inkscape:export-ydpi="89.982002"
   inkscape:version="1.1.1 (3bf5ae0d25, 2021-09-20)"
   xmlns:inkscape="http://www.inkscape.org/namespaces/inkscape"
   xmlns:sodipodi="http://sodipodi.sourceforge.net/DTD/sodipodi-0.dtd"
   xmlns="http://www.w3.org/2000/svg"
   xmlns:svg="http://www.w3.org/2000/svg">
  <defs
     id="defs874" />
  <sodipodi:namedview
     id="namedview872"
     pagecolor="#505050"
     bordercolor="#ffffff"
     borderopacity="1"
     inkscape:pageshadow="0"
     inkscape:pageopacity="0"
     inkscape:pagecheckerboard="1"
     showgrid="false"
     inkscape:snap-bbox="true"
     inkscape:snap-page="true"
     inkscape:snap-bbox-edge-midpoints="true"
     inkscape:zoom="12.680782"
     inkscape:cx="21.331493"
     inkscape:cy="22.041228"
     inkscape:window-width="1920"
     inkscape:window-height="1022"
     inkscape:window-x="0"
     inkscape:window-y="28"
     inkscape:window-maximized="1"
     inkscape:current-layer="g876" />
  <g
     inkscape:groupmode="layer"
     inkscape:label="Image"
     id="g876">
    <path
       id="rect982"
       style="fill:#ffffff;stroke:#000000;stroke-width:0.7;stroke-linecap:round;stroke-linejoin:round"
       d="m 1.19593,0 h 14.961585 c 0.662545,0 1.19593,0.53338478 1.19593,1.19593 v 6.1169176 c 0,0.6625452 -0.533385,1.19593 -1.19593,1.19593 H 1.19593 C 0.53338478,8.5087776 0,7.9753928 0,7.3128476 V 1.19593 C 0,0.53338478 0.53338478,0 1.19593,0 Z" />
    <path
       id="rect1108"
       style="fill:#ffffff;stroke:#000000;stroke-width:1.1;stroke-linecap:round;stroke-linejoin:round;stroke-miterlimit:4;stroke-dasharray:none"
       d="M 0 0 L 0 8.5078125 L 0 45 L 8.5078125 45 L 8.5078125 8.5078125 L 17.353516 8.5078125 L 17.353516 0 L 8.5078125 0 L 0 0 z " />
    <path
       id="rect1196"
       style="fill:#ffffff;stroke:#000000;stroke-width:1.1;stroke-linecap:round;stroke-linejoin:round;stroke-miterlimit:4;stroke-dasharray:none"
       d="M 36.492188 0 L 36.492188 36.492188 L 27.646484 36.492188 L 27.646484 45 L 36.492188 45 L 45 45 L 45 36.492188 L 45 0 L 36.492188 0 z " />
  </g>
</svg>
